<!-- generated via image_generator script in this repo -->
<?xml version="1.0" encoding="utf-8" ?>
<svg xmlns="http://www.w3.org/2000/svg"  xmlns:xlink="http://www.w3.org/1999/xlink" baseProfile="full" height="450" version="1.1" viewBox="0 0 790 450" width="790">
  <defs/>
  <text dy="30" fill="#000001" font-size="24" x="20">Double Order Chop Move</text>
  <image height="100" width="70" x="0" xlink:href="/img/pieces/back-r.png" y="50"/>
  <image height="100" width="70" x="72" xlink:href="/img/pieces/back-y.png" y="50"/>
  <image height="100" width="70" x="144" xlink:href="/img/pieces/back-g.png" y="50"/>
  <image height="100" width="70" x="216" xlink:href="/img/pieces/back-b.png" y="50"/>
  <image height="100" width="70" x="288" xlink:href="/img/pieces/back-p.png" y="50"/>
  <text dy="50" fill="#000001" x="360" y="0">Alice</text>
  <image height="100" width="70" x="420" xlink:href="/img/pieces/back.png" y="10"/>
  <image height="100" width="70" x="494" xlink:href="/img/pieces/back.png" y="10"/>
  <image height="100" width="70" x="568" xlink:href="/img/pieces/back.png" y="10"/>
  <image height="100" width="70" x="642" xlink:href="/img/pieces/back.png" y="10"/>
  <svg height="40" width="64" x="645" y="0">
    <defs/>
    <rect fill="purple" height="40" stroke="white" width="64" x="0" y="0"/>
    <svg height="20" width="64" x="0" y="0">
      <defs/>
      <text dominant-baseline="central" fill="white" text-anchor="middle" x="50%" y="50%">Chop</text>
    </svg>
    <svg height="20" width="64" x="0" y="20">
      <defs/>
      <text dominant-baseline="central" fill="white" text-anchor="middle" x="50%" y="50%">Move</text>
    </svg>
  </svg>
  <image height="100" width="70" x="716" xlink:href="/img/pieces/back.png" y="10"/>
  <svg height="40" width="64" x="719" y="0">
    <defs/>
    <rect fill="maroon" height="40" stroke="white" width="64" x="0" y="0"/>
    <svg height="20" width="64" x="0" y="0">
      <defs/>
      <text dominant-baseline="central" fill="white" text-anchor="middle" x="50%" y="50%">Chop</text>
    </svg>
    <svg height="20" width="64" x="0" y="20">
      <defs/>
      <text dominant-baseline="central" fill="white" text-anchor="middle" x="50%" y="50%">Move</text>
    </svg>
  </svg>
  <text dy="50" fill="#000001" x="360" y="125">Bob</text>
  <text dy="70" fill="#000001" x="360" y="125">(clue</text>
  <text dy="90" fill="#000001" x="360" y="125">giver)</text>
  <rect fill="orange" height="102" width="72" x="419" y="124"/>
  <image height="100" width="70" x="420" xlink:href="/img/pieces/1.png" y="125"/>
  <image height="70" width="50" x="430" xlink:href="/img/pieces/clue-1.png" y="85"/>
  <svg height="80" width="64" x="423" y="220">
    <defs/>
    <rect fill="purple" height="80" stroke="white" width="64" x="0" y="0"/>
    <svg height="20" width="64" x="0" y="0">
      <defs/>
      <text dominant-baseline="central" fill="white" text-anchor="middle" x="50%" y="50%">Double</text>
    </svg>
    <svg height="20" width="64" x="0" y="20">
      <defs/>
      <text dominant-baseline="central" fill="white" text-anchor="middle" x="50%" y="50%">Chop</text>
    </svg>
    <svg height="20" width="64" x="0" y="40">
      <defs/>
      <text dominant-baseline="central" fill="white" text-anchor="middle" x="50%" y="50%">Move</text>
    </svg>
    <svg height="20" width="64" x="0" y="60">
      <defs/>
      <text dominant-baseline="central" fill="white" text-anchor="middle" x="50%" y="50%">Alice</text>
    </svg>
  </svg>
  <rect fill="orange" height="102" width="72" x="493" y="124"/>
  <image height="100" width="70" x="494" xlink:href="/img/pieces/1.png" y="125"/>
  <image height="70" width="50" x="504" xlink:href="/img/pieces/clue-1.png" y="85"/>
  <svg height="80" width="64" x="497" y="220">
    <defs/>
    <rect fill="darkgreen" height="80" stroke="white" width="64" x="0" y="0"/>
    <svg height="20" width="64" x="0" y="0">
      <defs/>
      <text dominant-baseline="central" fill="white" text-anchor="middle" x="50%" y="50%">Double</text>
    </svg>
    <svg height="20" width="64" x="0" y="20">
      <defs/>
      <text dominant-baseline="central" fill="white" text-anchor="middle" x="50%" y="50%">Chop</text>
    </svg>
    <svg height="20" width="64" x="0" y="40">
      <defs/>
      <text dominant-baseline="central" fill="white" text-anchor="middle" x="50%" y="50%">Move</text>
    </svg>
    <svg height="20" width="64" x="0" y="60">
      <defs/>
      <text dominant-baseline="central" fill="white" text-anchor="middle" x="50%" y="50%">Cathy</text>
    </svg>
  </svg>
  <rect fill="orange" height="102" width="72" x="567" y="124"/>
  <image height="100" width="70" x="568" xlink:href="/img/pieces/1.png" y="125"/>
  <image height="70" width="50" x="578" xlink:href="/img/pieces/clue-1.png" y="85"/>
  <svg height="60" width="64" x="571" y="220">
    <defs/>
    <rect fill="maroon" height="60" stroke="white" width="64" x="0" y="0"/>
    <svg height="20" width="64" x="0" y="0">
      <defs/>
      <text dominant-baseline="central" fill="white" text-anchor="middle" x="50%" y="50%">Chop</text>
    </svg>
    <svg height="20" width="64" x="0" y="20">
      <defs/>
      <text dominant-baseline="central" fill="white" text-anchor="middle" x="50%" y="50%">Move</text>
    </svg>
    <svg height="20" width="64" x="0" y="40">
      <defs/>
      <text dominant-baseline="central" fill="white" text-anchor="middle" x="50%" y="50%">Alice</text>
    </svg>
  </svg>
  <rect fill="orange" height="102" width="72" x="641" y="124"/>
  <image height="100" width="70" x="642" xlink:href="/img/pieces/1.png" y="125"/>
  <image height="70" width="50" x="652" xlink:href="/img/pieces/clue-1.png" y="85"/>
  <svg height="60" width="64" x="645" y="220">
    <defs/>
    <rect fill="darkblue" height="60" stroke="white" width="64" x="0" y="0"/>
    <svg height="20" width="64" x="0" y="0">
      <defs/>
      <text dominant-baseline="central" fill="white" text-anchor="middle" x="50%" y="50%">Chop</text>
    </svg>
    <svg height="20" width="64" x="0" y="20">
      <defs/>
      <text dominant-baseline="central" fill="white" text-anchor="middle" x="50%" y="50%">Move</text>
    </svg>
    <svg height="20" width="64" x="0" y="40">
      <defs/>
      <text dominant-baseline="central" fill="white" text-anchor="middle" x="50%" y="50%">Cathy</text>
    </svg>
  </svg>
  <rect fill="orange" height="102" width="72" x="715" y="124"/>
  <image height="100" width="70" x="716" xlink:href="/img/pieces/1.png" y="125"/>
  <image height="70" width="50" x="726" xlink:href="/img/pieces/clue-1.png" y="85"/>
  <text dy="50" fill="#000001" x="360" y="325">Cathy</text>
  <image height="100" width="70" x="420" xlink:href="/img/pieces/back.png" y="335"/>
  <image height="100" width="70" x="494" xlink:href="/img/pieces/back.png" y="335"/>
  <image height="100" width="70" x="568" xlink:href="/img/pieces/back.png" y="335"/>
  <image height="100" width="70" x="642" xlink:href="/img/pieces/back.png" y="335"/>
  <svg height="40" width="64" x="645" y="325">
    <defs/>
    <rect fill="darkgreen" height="40" stroke="white" width="64" x="0" y="0"/>
    <svg height="20" width="64" x="0" y="0">
      <defs/>
      <text dominant-baseline="central" fill="white" text-anchor="middle" x="50%" y="50%">Chop</text>
    </svg>
    <svg height="20" width="64" x="0" y="20">
      <defs/>
      <text dominant-baseline="central" fill="white" text-anchor="middle" x="50%" y="50%">Move</text>
    </svg>
  </svg>
  <image height="100" width="70" x="716" xlink:href="/img/pieces/back.png" y="335"/>
  <svg height="40" width="64" x="719" y="325">
    <defs/>
    <rect fill="darkblue" height="40" stroke="white" width="64" x="0" y="0"/>
    <svg height="20" width="64" x="0" y="0">
      <defs/>
      <text dominant-baseline="central" fill="white" text-anchor="middle" x="50%" y="50%">Chop</text>
    </svg>
    <svg height="20" width="64" x="0" y="20">
      <defs/>
      <text dominant-baseline="central" fill="white" text-anchor="middle" x="50%" y="50%">Move</text>
    </svg>
  </svg>
</svg>

