<!-- generated via image_generator script in this repo -->
<?xml version="1.0" encoding="utf-8" ?>
<svg xmlns="http://www.w3.org/2000/svg"  xmlns:xlink="http://www.w3.org/1999/xlink" baseProfile="full" height="375" version="1.1" viewBox="0 0 862 375" width="862">
  <defs/>
  <text dy="30" fill="#000001" font-size="24" x="20">Hidden Finesse</text>
  <image height="100" width="70" x="0" xlink:href="/img/pieces/r1.png" y="50"/>
  <image height="100" width="70" x="72" xlink:href="/img/pieces/back-y.png" y="50"/>
  <image height="100" width="70" x="144" xlink:href="/img/pieces/back-g.png" y="50"/>
  <image height="100" width="70" x="216" xlink:href="/img/pieces/back-b.png" y="50"/>
  <image height="100" width="70" x="288" xlink:href="/img/pieces/back-p.png" y="50"/>
  <image height="100" width="70" x="360" xlink:href="/img/pieces/m2.png" y="50"/>
  <text dy="50" fill="#000001" x="432" y="0">Alice</text>
  <text dy="70" fill="#000001" x="432" y="0">(clue</text>
  <text dy="90" fill="#000001" x="432" y="0">giver)</text>
  <image height="100" width="70" x="492" xlink:href="/img/pieces/back.png" y="10"/>
  <image height="100" width="70" x="566" xlink:href="/img/pieces/back.png" y="10"/>
  <image height="100" width="70" x="640" xlink:href="/img/pieces/back.png" y="10"/>
  <image height="100" width="70" x="714" xlink:href="/img/pieces/back.png" y="10"/>
  <image height="100" width="70" x="788" xlink:href="/img/pieces/back.png" y="10"/>
  <text dy="50" fill="#000001" x="432" y="125">Bob</text>
  <image height="100" width="70" x="492" xlink:href="/img/pieces/back.png" y="135"/>
  <svg height="20" width="64" x="495" y="125">
    <defs/>
    <rect fill="red" height="20" stroke="white" width="64" x="0" y="0"/>
    <svg height="20" width="64" x="0" y="0">
      <defs/>
      <text dominant-baseline="central" fill="white" text-anchor="middle" x="50%" y="50%">Red 2</text>
    </svg>
  </svg>
  <image height="100" width="70" x="566" xlink:href="/img/pieces/back.png" y="135"/>
  <rect fill="orange" height="102" width="72" x="639" y="124"/>
  <image height="100" width="70" x="640" xlink:href="/img/pieces/rm.png" y="125"/>
  <svg height="20" width="85" x="630" y="125">
    <defs/>
    <rect fill="green" height="20" stroke="white" width="85" x="0" y="0"/>
    <svg height="20" width="85" x="0" y="0">
      <defs/>
      <text dominant-baseline="central" fill="white" text-anchor="middle" x="50%" y="50%">Rainbow 3</text>
    </svg>
  </svg>
  <image height="100" width="70" x="714" xlink:href="/img/pieces/back.png" y="135"/>
  <image height="100" width="70" x="788" xlink:href="/img/pieces/back.png" y="135"/>
  <text dy="50" fill="#000001" x="432" y="250">Cathy</text>
  <image height="100" width="70" x="492" xlink:href="/img/pieces/back.png" y="260"/>
  <image height="100" width="70" x="566" xlink:href="/img/pieces/back.png" y="260"/>
  <rect fill="orange" height="102" width="72" x="639" y="249"/>
  <image height="100" width="70" x="640" xlink:href="/img/pieces/r.png" y="250"/>
  <image height="70" width="50" x="650" xlink:href="/img/pieces/clue-r.png" y="210"/>
  <text dy="30" fill="black" stroke="black" x="670" y="250">(3)</text>
  <image height="100" width="70" x="714" xlink:href="/img/pieces/back.png" y="260"/>
  <image height="100" width="70" x="788" xlink:href="/img/pieces/back.png" y="260"/>
</svg>

