<!-- generated via image_generator script in this repo -->
<?xml version="1.0" encoding="utf-8" ?>
<svg xmlns="http://www.w3.org/2000/svg"  xmlns:xlink="http://www.w3.org/1999/xlink" baseProfile="full" height="405" version="1.1" viewBox="0 0 790 405" width="790">
  <defs/>
  <text dy="30" fill="#000001" font-size="24" x="20">Misplay Chop Move</text>
  <image height="100" width="70" x="0" xlink:href="/img/pieces/r2.png" y="50"/>
  <image height="100" width="70" x="72" xlink:href="/img/pieces/y2.png" y="50"/>
  <image height="100" width="70" x="144" xlink:href="/img/pieces/g2.png" y="50"/>
  <image height="100" width="70" x="216" xlink:href="/img/pieces/b2.png" y="50"/>
  <image height="100" width="70" x="288" xlink:href="/img/pieces/p2.png" y="50"/>
  <text dy="50" fill="#000001" x="360" y="0">Alice</text>
  <text dy="70" fill="#000001" x="360" y="0">(clue</text>
  <text dy="90" fill="#000001" x="360" y="0">giver)</text>
  <image height="100" width="70" x="420" xlink:href="/img/pieces/back.png" y="10"/>
  <image height="100" width="70" x="494" xlink:href="/img/pieces/back.png" y="10"/>
  <image height="100" width="70" x="568" xlink:href="/img/pieces/back.png" y="10"/>
  <image height="100" width="70" x="642" xlink:href="/img/pieces/back.png" y="10"/>
  <image height="100" width="70" x="716" xlink:href="/img/pieces/back.png" y="10"/>
  <text dy="50" fill="#000001" x="360" y="125">Bob</text>
  <rect fill="orange" height="102" width="72" x="419" y="124"/>
  <image height="100" width="70" x="420" xlink:href="/img/pieces/r.png" y="125"/>
  <image height="70" width="50" x="430" xlink:href="/img/pieces/clue-2.png" y="85"/>
  <text dy="30" fill="black" stroke="black" x="450" y="125">(4)</text>
  <image height="100" width="70" x="494" xlink:href="/img/pieces/back.png" y="135"/>
  <image height="100" width="70" x="568" xlink:href="/img/pieces/back.png" y="135"/>
  <image height="100" width="70" x="642" xlink:href="/img/pieces/back.png" y="135"/>
  <image height="100" width="70" x="716" xlink:href="/img/pieces/back.png" y="135"/>
  <text dy="20" fill="#000001" x="400" y="250">After Red 4 bombs</text>
  <text dy="50" fill="#000001" x="360" y="280">Bob</text>
  <image height="100" width="70" x="420" xlink:href="/img/pieces/back.png" y="290"/>
  <image height="100" width="70" x="494" xlink:href="/img/pieces/back.png" y="290"/>
  <svg height="40" width="64" x="497" y="280">
    <defs/>
    <rect fill="black" height="40" stroke="white" width="64" x="0" y="0"/>
    <svg height="20" width="64" x="0" y="0">
      <defs/>
      <text dominant-baseline="central" fill="white" text-anchor="middle" x="50%" y="50%">Chop</text>
    </svg>
    <svg height="20" width="64" x="0" y="20">
      <defs/>
      <text dominant-baseline="central" fill="white" text-anchor="middle" x="50%" y="50%">Move</text>
    </svg>
  </svg>
  <image height="100" width="70" x="568" xlink:href="/img/pieces/back.png" y="290"/>
  <svg height="40" width="64" x="571" y="280">
    <defs/>
    <rect fill="black" height="40" stroke="white" width="64" x="0" y="0"/>
    <svg height="20" width="64" x="0" y="0">
      <defs/>
      <text dominant-baseline="central" fill="white" text-anchor="middle" x="50%" y="50%">Chop</text>
    </svg>
    <svg height="20" width="64" x="0" y="20">
      <defs/>
      <text dominant-baseline="central" fill="white" text-anchor="middle" x="50%" y="50%">Move</text>
    </svg>
  </svg>
  <image height="100" width="70" x="642" xlink:href="/img/pieces/back.png" y="290"/>
  <svg height="40" width="64" x="645" y="280">
    <defs/>
    <rect fill="black" height="40" stroke="white" width="64" x="0" y="0"/>
    <svg height="20" width="64" x="0" y="0">
      <defs/>
      <text dominant-baseline="central" fill="white" text-anchor="middle" x="50%" y="50%">Chop</text>
    </svg>
    <svg height="20" width="64" x="0" y="20">
      <defs/>
      <text dominant-baseline="central" fill="white" text-anchor="middle" x="50%" y="50%">Move</text>
    </svg>
  </svg>
  <image height="100" width="70" x="716" xlink:href="/img/pieces/back.png" y="290"/>
  <svg height="40" width="64" x="719" y="280">
    <defs/>
    <rect fill="black" height="40" stroke="white" width="64" x="0" y="0"/>
    <svg height="20" width="64" x="0" y="0">
      <defs/>
      <text dominant-baseline="central" fill="white" text-anchor="middle" x="50%" y="50%">Chop</text>
    </svg>
    <svg height="20" width="64" x="0" y="20">
      <defs/>
      <text dominant-baseline="central" fill="white" text-anchor="middle" x="50%" y="50%">Move</text>
    </svg>
  </svg>
</svg>

