<!-- generated via image_generator script in this repo -->
<?xml version="1.0" encoding="utf-8" ?>
<svg xmlns="http://www.w3.org/2000/svg"  xmlns:xlink="http://www.w3.org/1999/xlink" baseProfile="full" height="420" version="1.1" viewBox="0 0 862 420" width="862">
  <defs/>
  <text dy="30" fill="#000001" font-size="24" x="20">Prompts in Multi-Color Variants (Do not use negative clues)</text>
  <image height="100" width="70" x="0" xlink:href="/img/pieces/r2.png" y="50"/>
  <image height="100" width="70" x="72" xlink:href="/img/pieces/back-y.png" y="50"/>
  <image height="100" width="70" x="144" xlink:href="/img/pieces/back-g.png" y="50"/>
  <image height="100" width="70" x="216" xlink:href="/img/pieces/back-b.png" y="50"/>
  <image height="100" width="70" x="288" xlink:href="/img/pieces/back-p.png" y="50"/>
  <image height="100" width="70" x="360" xlink:href="/img/pieces/back-m.png" y="50"/>
  <text dy="20" fill="#000001" x="472" y="0"/>
  <text dy="50" fill="#000001" x="432" y="30">Alice</text>
  <text dy="70" fill="#000001" x="432" y="30">(clue</text>
  <text dy="90" fill="#000001" x="432" y="30">giver)</text>
  <image height="100" width="70" x="492" xlink:href="/img/pieces/back.png" y="40"/>
  <image height="100" width="70" x="566" xlink:href="/img/pieces/back.png" y="40"/>
  <image height="100" width="70" x="640" xlink:href="/img/pieces/back.png" y="40"/>
  <image height="100" width="70" x="714" xlink:href="/img/pieces/back.png" y="40"/>
  <image height="100" width="70" x="788" xlink:href="/img/pieces/back.png" y="40"/>
  <text dy="50" fill="#000001" x="432" y="155">Bob</text>
  <rect fill="orange" height="102" width="72" x="491" y="154"/>
  <image height="100" width="70" x="492" xlink:href="/img/pieces/rm.png" y="155"/>
  <svg height="20" width="64" x="495" y="155">
    <defs/>
    <rect fill="red" height="20" stroke="white" width="64" x="0" y="0"/>
    <svg height="20" width="64" x="0" y="0">
      <defs/>
      <text dominant-baseline="central" fill="white" text-anchor="middle" x="50%" y="50%">Red 3</text>
    </svg>
  </svg>
  <svg height="20" width="64" x="495" y="250">
    <defs/>
    <rect fill="black" height="20" stroke="white" width="64" x="0" y="0"/>
    <svg height="20" width="64" x="0" y="0">
      <defs/>
      <text dominant-baseline="central" fill="white" text-anchor="middle" x="50%" y="50%">Prompt</text>
    </svg>
  </svg>
  <rect fill="orange" height="102" width="72" x="565" y="154"/>
  <image height="100" width="70" x="566" xlink:href="/img/pieces/r.png" y="155"/>
  <image height="100" width="70" x="640" xlink:href="/img/pieces/back.png" y="165"/>
  <image height="100" width="70" x="714" xlink:href="/img/pieces/back.png" y="165"/>
  <image height="100" width="70" x="788" xlink:href="/img/pieces/back.png" y="165"/>
  <text dy="50" fill="#000001" x="432" y="295">Cathy</text>
  <image height="100" width="70" x="492" xlink:href="/img/pieces/back.png" y="305"/>
  <image height="100" width="70" x="566" xlink:href="/img/pieces/back.png" y="305"/>
  <rect fill="orange" height="102" width="72" x="639" y="294"/>
  <image height="100" width="70" x="640" xlink:href="/img/pieces/r.png" y="295"/>
  <image height="70" width="50" x="650" xlink:href="/img/pieces/clue-r.png" y="255"/>
  <text dy="30" fill="black" stroke="black" x="670" y="295">(4)</text>
  <image height="100" width="70" x="714" xlink:href="/img/pieces/back.png" y="305"/>
  <image height="100" width="70" x="788" xlink:href="/img/pieces/back.png" y="305"/>
</svg>

