<!-- generated via image_generator script in this repo -->
<?xml version="1.0" encoding="utf-8" ?>
<svg xmlns="http://www.w3.org/2000/svg"  xmlns:xlink="http://www.w3.org/1999/xlink" baseProfile="full" height="280" version="1.1" viewBox="0 0 790 280" width="790">
  <defs/>
  <image height="100" width="70" x="0" xlink:href="/img/pieces/r1.png" y="50"/>
  <image height="100" width="70" x="72" xlink:href="/img/pieces/back-y.png" y="50"/>
  <image height="100" width="70" x="144" xlink:href="/img/pieces/back-g.png" y="50"/>
  <image height="100" width="70" x="216" xlink:href="/img/pieces/back-b.png" y="50"/>
  <image height="100" width="70" x="288" xlink:href="/img/pieces/back-p.png" y="50"/>
  <text dy="20" fill="#000001" x="400" y="0">Later...</text>
  <text dy="50" fill="#000001" x="360" y="30">Bob</text>
  <image height="100" width="70" x="420" xlink:href="/img/pieces/back.png" y="40"/>
  <rect fill="orange" height="102" width="72" x="493" y="29"/>
  <image height="100" width="70" x="494" xlink:href="/img/pieces/r2.png" y="30"/>
  <image height="70" width="50" x="504" xlink:href="/img/pieces/clue-2.png" y="-10"/>
  <image height="100" width="70" x="568" xlink:href="/img/pieces/back.png" y="40"/>
  <image height="100" width="70" x="642" xlink:href="/img/pieces/back.png" y="40"/>
  <image height="100" width="70" x="716" xlink:href="/img/pieces/back.png" y="40"/>
  <svg height="40" width="64" x="719" y="30">
    <defs/>
    <rect fill="black" height="40" stroke="white" width="64" x="0" y="0"/>
    <svg height="20" width="64" x="0" y="0">
      <defs/>
      <text dominant-baseline="central" fill="white" text-anchor="middle" x="50%" y="50%">Chop</text>
    </svg>
    <svg height="20" width="64" x="0" y="20">
      <defs/>
      <text dominant-baseline="central" fill="white" text-anchor="middle" x="50%" y="50%">Move</text>
    </svg>
  </svg>
  <text dy="50" fill="#000001" x="360" y="155">Cathy</text>
  <text dy="70" fill="#000001" x="360" y="155">(clue</text>
  <text dy="90" fill="#000001" x="360" y="155">giver)</text>
  <image height="100" width="70" x="420" xlink:href="/img/pieces/back.png" y="165"/>
  <image height="100" width="70" x="494" xlink:href="/img/pieces/back.png" y="165"/>
  <image height="100" width="70" x="568" xlink:href="/img/pieces/back.png" y="165"/>
  <image height="100" width="70" x="642" xlink:href="/img/pieces/back.png" y="165"/>
  <image height="100" width="70" x="716" xlink:href="/img/pieces/back.png" y="165"/>
</svg>

