<?xml version="1.0" encoding="utf-8" ?>
<svg xmlns="http://www.w3.org/2000/svg"  xmlns:xlink="http://www.w3.org/1999/xlink" baseProfile="full" height="280" version="1.1" viewBox="0 0 944 280" width="944">
  <defs>
        <filter id="shadow">
        <feOffset in="SourceAlpha" dx="2" dy="2" result="offsetblur"/>
        <feComponentTransfer result="shadow">
            <feFuncA type="linear" slope="0.5"/>
        </feComponentTransfer>
        <feMorphology in="SourceAlpha" operator="dilate" radius="1" result="border"/>
        <feMerge>
            <feMergeNode in="shadow"/>
            <feMergeNode in="border"/>
            <feMergeNode in="SourceGraphic"/>
        </feMerge>
        </filter>
    </defs>
  <image height="100" width="70" x="0" xlink:href="/img/pieces/cards/r0.svg" y="0"/>
  <image height="100" width="70" x="78" xlink:href="/img/pieces/cards/y0.svg" y="0"/>
  <image height="100" width="70" x="156" xlink:href="/img/pieces/cards/g0.svg" y="0"/>
  <image height="100" width="70" x="234" xlink:href="/img/pieces/cards/b0.svg" y="0"/>
  <image height="100" width="70" x="312" xlink:href="/img/pieces/cards/p0.svg" y="0"/>
  <text dy="57.0" fill="#000001" style="font-size: 1.4em;" x="464" y="0">Alice</text>
  <svg height="100" width="70" x="554" y="0">
    <defs/>
    <rect fill="gray" height="100" rx="5" ry="5" width="70" x="0" y="0"/>
    <svg height="100" viewBox="-35 -50 70 100" width="70" x="0" y="0">
      <defs/>
    </svg>
  </svg>
  <svg height="100" width="70" x="632" y="0">
    <defs/>
    <rect fill="gray" height="100" rx="5" ry="5" width="70" x="0" y="0"/>
    <svg height="100" viewBox="-35 -50 70 100" width="70" x="0" y="0">
      <defs/>
    </svg>
  </svg>
  <svg height="100" width="70" x="710" y="0">
    <defs/>
    <rect fill="gray" height="100" rx="5" ry="5" width="70" x="0" y="0"/>
    <svg height="100" viewBox="-35 -50 70 100" width="70" x="0" y="0">
      <defs/>
    </svg>
  </svg>
  <svg height="100" width="70" x="788" y="0">
    <defs/>
    <rect fill="gray" height="100" rx="5" ry="5" width="70" x="0" y="0"/>
    <svg height="100" viewBox="-35 -50 70 100" width="70" x="0" y="0">
      <defs/>
    </svg>
  </svg>
  <svg height="100" width="70" x="866" y="0">
    <defs/>
    <rect fill="gray" height="100" rx="5" ry="5" width="70" x="0" y="0"/>
    <svg height="100" viewBox="-35 -50 70 100" width="70" x="0" y="0">
      <defs/>
    </svg>
  </svg>
  <svg height="20" width="64" x="869" y="0">
    <defs/>
    <rect fill="red" height="20" stroke="white" width="64" x="0" y="0"/>
    <svg height="20" width="64" x="0" y="0">
      <defs/>
      <text dominant-baseline="central" fill="white" text-anchor="middle" x="50%" y="50%">Red 5</text>
    </svg>
  </svg>
  <svg height="20" width="64" x="869" y="105">
    <defs/>
    <rect fill="darkred" height="20" stroke="white" width="64" x="0" y="0"/>
    <svg height="20" width="64" x="0" y="0">
      <defs/>
      <text dominant-baseline="central" fill="white" text-anchor="middle" x="50%" y="50%">Chop</text>
    </svg>
  </svg>
  <text dy="57.0" fill="#000001" style="font-size: 1.4em;" x="464" y="140">Bob</text>
  <svg height="100" width="70" x="554" y="140">
    <defs/>
    <rect fill="gray" height="100" rx="5" ry="5" width="70" x="0" y="0"/>
    <svg height="100" viewBox="-35 -50 70 100" width="70" x="0" y="0">
      <defs/>
    </svg>
  </svg>
  <svg height="100" width="70" x="632" y="140">
    <defs/>
    <rect fill="gray" height="100" rx="5" ry="5" width="70" x="0" y="0"/>
    <svg height="100" viewBox="-35 -50 70 100" width="70" x="0" y="0">
      <defs/>
    </svg>
  </svg>
  <svg height="100" width="70" x="710" y="140">
    <defs/>
    <rect fill="gray" height="100" rx="5" ry="5" width="70" x="0" y="0"/>
    <svg height="100" viewBox="-35 -50 70 100" width="70" x="0" y="0">
      <defs/>
    </svg>
  </svg>
  <svg height="100" width="70" x="788" y="140">
    <defs/>
    <rect fill="gray" height="100" rx="5" ry="5" width="70" x="0" y="0"/>
    <svg height="100" viewBox="-35 -50 70 100" width="70" x="0" y="0">
      <defs/>
    </svg>
  </svg>
  <svg height="100" width="70" x="866" y="140">
    <defs/>
    <rect fill="gray" height="100" rx="5" ry="5" width="70" x="0" y="0"/>
    <svg height="100" viewBox="-35 -50 70 100" width="70" x="0" y="0">
      <defs/>
    </svg>
  </svg>
  <svg height="20" width="64" x="869" y="140">
    <defs/>
    <rect fill="red" height="20" stroke="white" width="64" x="0" y="0"/>
    <svg height="20" width="64" x="0" y="0">
      <defs/>
      <text dominant-baseline="central" fill="white" text-anchor="middle" x="50%" y="50%">Red 3</text>
    </svg>
  </svg>
  <svg height="20" width="64" x="869" y="245">
    <defs/>
    <rect fill="darkred" height="20" stroke="white" width="64" x="0" y="0"/>
    <svg height="20" width="64" x="0" y="0">
      <defs/>
      <text dominant-baseline="central" fill="white" text-anchor="middle" x="50%" y="50%">Chop</text>
    </svg>
  </svg>
</svg>

