<svg version="1.1" xmlns="http://www.w3.org/2000/svg" xmlns:xlink="http://www.w3.org/1999/xlink" width="286" height="406"><defs/><g><g><path fill="white" stroke="none" paint-order="stroke fill markers" d=" M 4 26.88 L 4 379.12 Q 0 406 26.88 402 L 259.12 402 Q 286 406 282 379.12 L 282 26.88 Q 286 0 259.12 4 L 26.88 4 Q 0 0 4 26.88"/></g><g><path fill="#111111" stroke="#111111" paint-order="fill stroke markers" d=" M 4 26.88 L 4 379.12 Q 0 406 26.88 402 L 259.12 402 Q 286 406 282 379.12 L 282 26.88 Q 286 0 259.12 4 L 26.88 4 Q 0 0 4 26.88" fill-opacity="0.3" stroke-miterlimit="10" stroke-width="8" stroke-opacity="0.7" stroke-dasharray=""/></g><g><g><text fill="none" stroke="black" font-family="Arial" font-size="96pt" font-style="normal" font-weight="bold" text-decoration="normal" x="19" y="110" text-anchor="start" dominant-baseline="alphabetic" stroke-linejoin="round" stroke-miterlimit="10" stroke-width="8" stroke-dasharray="">1</text><text fill="#111111" stroke="none" font-family="Arial" font-size="96pt" font-style="normal" font-weight="bold" text-decoration="normal" x="19" y="110" text-anchor="start" dominant-baseline="alphabetic">1</text></g></g><g transform="translate(286,406) rotate(180,0,0)"><g><text fill="none" stroke="black" font-family="Arial" font-size="96pt" font-style="normal" font-weight="bold" text-decoration="normal" x="19" y="110" text-anchor="start" dominant-baseline="alphabetic" stroke-linejoin="round" stroke-miterlimit="10" stroke-width="8" stroke-dasharray="">1</text><text fill="#111111" stroke="none" font-family="Arial" font-size="96pt" font-style="normal" font-weight="bold" text-decoration="normal" x="19" y="110" text-anchor="start" dominant-baseline="alphabetic">1</text></g></g><g transform="translate(143,203) scale(0.7200000000000001,0.7200000000000001)" fill="#111111" stroke="black" stroke-linejoin="round" stroke-miterlimit="10" stroke-width="3" stroke-dasharray=""><path fill="" stroke="" d=""/><g transform="scale(3,3) translate(-110.38902,-72.869975)"><path fill="" stroke="" d=" M 110.59125 92.432703 C 110.33553 91.719873 109.71435 89.303503 109.21172 87.062783 C 107.74218 80.511323 107.00827 78.670889 105.86531 78.670889 C 105.00555 78.670889 101.64335 81.653913 99.324992 84.473613 C 95.926692 88.606593 95.838462 88.675133 93.975532 88.631263 C 92.231172 88.590163 90.310202 87.941073 89.701562 87.187223 C 89.131002 86.480403 89.897362 85.251163 93.121472 81.703793 C 97.905302 76.439922 98.141182 75.093343 94.937532 71.340155 C 93.214542 69.321734 92.383512 67.945448 92.383512 67.110557 C 92.383512 66.280178 95.395062 62.434319 95.776182 62.77802 C 95.909182 62.89796 96.790542 63.776806 97.734912 64.731146 C 101.31956 68.353598 103.59082 69.302262 105.34504 67.909572 C 106.12138 67.293254 106.14437 67.193035 105.95291 65.255957 C 105.84317 64.148763 105.47496 61.96546 105.13401 60.404152 C 103.8133 54.355863 104.76123 52.011272 108.527 52.011272 C 109.62447 52.011272 109.88835 52.120274 110.3947 52.780938 C 111.12564 53.735243 111.16906 53.924532 112.10994 60.262548 C 112.74106 64.513842 112.9829 65.512454 113.47639 65.904165 C 114.76289 66.925529 116.96789 65.447542 121.17964 60.740508 C 125.20739 56.239247 126.42293 55.508035 128.49635 56.339188 C 129.87137 56.890453 131.25118 57.930871 131.2477 58.413843 C 131.2467 58.625498 129.86146 60.430251 128.17062 62.423316 C 124.78415 66.414798 123.95978 67.936204 123.98136 70.154646 C 123.99556 71.758322 124.41928 72.583018 126.59104 75.25064 C 128.10791 77.113707 128.20625 78.221674 127.02241 80.107833 C 126.09803 81.580483 125.33823 82.027523 124.42142 81.637993 C 124.08597 81.495103 122.83083 80.446963 121.63278 79.308273 C 119.01173 76.81696 118.07777 76.202402 116.91278 76.202402 C 115.31439 76.202402 114.91852 77.084076 114.97754 80.512803 C 115.00594 82.147213 115.25798 84.428633 115.53717 85.582623 C 116.42716 89.254553 116.49962 90.696633 115.82469 91.302373 C 115.19506 91.867403 111.73271 93.728673 111.31127 93.728673 C 111.17162 93.728673 110.84776 93.145433 110.59146 92.432703"/><g transform="scale(0.3333333333333333,0.3333333333333333)" fill="" stroke=""/></g></g></g></svg>