<svg version="1.1" xmlns="http://www.w3.org/2000/svg" xmlns:xlink="http://www.w3.org/1999/xlink" width="286" height="406"><defs/><g><g><path fill="white" stroke="none" paint-order="stroke fill markers" d=" M 4 38.32 L 4 367.68 Q 0 406 38.32 402 L 247.68 402 Q 286 406 282 367.68 L 282 38.32 Q 286 0 247.68 4 L 38.32 4 Q 0 0 4 38.32"/></g><g><path fill="#0037ff" stroke="#0037ff" paint-order="fill stroke markers" d=" M 4 38.32 L 4 367.68 Q 0 406 38.32 402 L 247.68 402 Q 286 406 282 367.68 L 282 38.32 Q 286 0 247.68 4 L 38.32 4 Q 0 0 4 38.32" fill-opacity="0.3" stroke-miterlimit="10" stroke-width="8" stroke-opacity="0.7" stroke-dasharray=""/></g><g><g><text fill="none" stroke="black" font-family="Arial" font-size="96pt" font-style="normal" font-weight="bold" text-decoration="normal" x="19" y="110" text-anchor="start" dominant-baseline="alphabetic" stroke-linejoin="round" stroke-miterlimit="10" stroke-width="8" stroke-dasharray="">5</text><text fill="#0037ff" stroke="none" font-family="Arial" font-size="96pt" font-style="normal" font-weight="bold" text-decoration="normal" x="19" y="110" text-anchor="start" dominant-baseline="alphabetic">5</text></g></g><g transform="translate(286,406) rotate(180,0,0)"><g><text fill="none" stroke="black" font-family="Arial" font-size="96pt" font-style="normal" font-weight="bold" text-decoration="normal" x="19" y="110" text-anchor="start" dominant-baseline="alphabetic" stroke-linejoin="round" stroke-miterlimit="10" stroke-width="8" stroke-dasharray="">5</text><text fill="#0037ff" stroke="none" font-family="Arial" font-size="96pt" font-style="normal" font-weight="bold" text-decoration="normal" x="19" y="110" text-anchor="start" dominant-baseline="alphabetic">5</text></g></g><g transform="translate(143,203) translate(0,-120) scale(0.4,0.4)" fill="#0037ff" stroke="black" stroke-linejoin="round" stroke-miterlimit="10" stroke-width="3" stroke-dasharray=""><path fill="" stroke="" d=""/><g transform="scale(3,3) translate(-99.694341,-76.779331)"><path fill="" stroke="" d=" M 56.910015 58.292302 M 115.29782 63.128745 C 115.50904 62.943572 115.73842 62.78373 115.9409 62.592635 C 116.13678 62.405678 117.7273 61.097621 118.49932 60.145425 C 118.99105 59.542738 118.50332 59.119802 118.07018 59.159833 C 85.907335 62.087565 79.611335 57.902868 79.611335 57.902868 C 76.59238 67.042068 83.408965 72.218957 83.408965 72.218957 C 83.423265 72.226057 83.506365 72.240367 83.548825 72.247497 C 81.513235 82.240997 82.770205 92.034227 83.053065 92.330067 C 83.053065 92.330067 88.939675 98.539287 97.700645 94.541477 C 97.700645 94.541477 94.483705 90.692697 92.968635 71.80037 C 97.351385 71.230615 102.62621 70.080615 107.50275 67.947093 C 103.98771 79.224239 105.57838 91.991907 105.9032 92.330067 C 105.9032 92.330067 111.79206 98.539287 120.54636 94.541477 C 120.54636 94.541477 116.38835 89.549157 115.29822 63.13056"/><g transform="scale(0.3333333333333333,0.3333333333333333)" fill="" stroke=""/></g></g><g transform="translate(143,203) translate(0,120) scale(0.4,0.4) rotate(180,0,0)" fill="#0037ff" stroke="black" stroke-linejoin="round" stroke-miterlimit="10" stroke-width="3" stroke-dasharray=""><path fill="" stroke="" d=""/><g transform="scale(3,3) translate(-99.694341,-76.779331)"><path fill="" stroke="" d=" M 56.910015 58.292302 M 115.29782 63.128745 C 115.50904 62.943572 115.73842 62.78373 115.9409 62.592635 C 116.13678 62.405678 117.7273 61.097621 118.49932 60.145425 C 118.99105 59.542738 118.50332 59.119802 118.07018 59.159833 C 85.907335 62.087565 79.611335 57.902868 79.611335 57.902868 C 76.59238 67.042068 83.408965 72.218957 83.408965 72.218957 C 83.423265 72.226057 83.506365 72.240367 83.548825 72.247497 C 81.513235 82.240997 82.770205 92.034227 83.053065 92.330067 C 83.053065 92.330067 88.939675 98.539287 97.700645 94.541477 C 97.700645 94.541477 94.483705 90.692697 92.968635 71.80037 C 97.351385 71.230615 102.62621 70.080615 107.50275 67.947093 C 103.98771 79.224239 105.57838 91.991907 105.9032 92.330067 C 105.9032 92.330067 111.79206 98.539287 120.54636 94.541477 C 120.54636 94.541477 116.38835 89.549157 115.29822 63.13056"/><g transform="scale(0.3333333333333333,0.3333333333333333)" fill="" stroke=""/></g></g><g transform="translate(143,203) translate(-90,0) scale(0.4,0.4)" fill="#0037ff" stroke="black" stroke-linejoin="round" stroke-miterlimit="10" stroke-width="3" stroke-dasharray=""><path fill="" stroke="" d=""/><g transform="scale(3,3) translate(-99.694341,-76.779331)"><path fill="" stroke="" d=" M 56.910015 58.292302 M 115.29782 63.128745 C 115.50904 62.943572 115.73842 62.78373 115.9409 62.592635 C 116.13678 62.405678 117.7273 61.097621 118.49932 60.145425 C 118.99105 59.542738 118.50332 59.119802 118.07018 59.159833 C 85.907335 62.087565 79.611335 57.902868 79.611335 57.902868 C 76.59238 67.042068 83.408965 72.218957 83.408965 72.218957 C 83.423265 72.226057 83.506365 72.240367 83.548825 72.247497 C 81.513235 82.240997 82.770205 92.034227 83.053065 92.330067 C 83.053065 92.330067 88.939675 98.539287 97.700645 94.541477 C 97.700645 94.541477 94.483705 90.692697 92.968635 71.80037 C 97.351385 71.230615 102.62621 70.080615 107.50275 67.947093 C 103.98771 79.224239 105.57838 91.991907 105.9032 92.330067 C 105.9032 92.330067 111.79206 98.539287 120.54636 94.541477 C 120.54636 94.541477 116.38835 89.549157 115.29822 63.13056"/><g transform="scale(0.3333333333333333,0.3333333333333333)" fill="" stroke=""/></g></g><g transform="translate(143,203) translate(90,0) scale(0.4,0.4) rotate(180,0,0)" fill="#0037ff" stroke="black" stroke-linejoin="round" stroke-miterlimit="10" stroke-width="3" stroke-dasharray=""><path fill="" stroke="" d=""/><g transform="scale(3,3) translate(-99.694341,-76.779331)"><path fill="" stroke="" d=" M 56.910015 58.292302 M 115.29782 63.128745 C 115.50904 62.943572 115.73842 62.78373 115.9409 62.592635 C 116.13678 62.405678 117.7273 61.097621 118.49932 60.145425 C 118.99105 59.542738 118.50332 59.119802 118.07018 59.159833 C 85.907335 62.087565 79.611335 57.902868 79.611335 57.902868 C 76.59238 67.042068 83.408965 72.218957 83.408965 72.218957 C 83.423265 72.226057 83.506365 72.240367 83.548825 72.247497 C 81.513235 82.240997 82.770205 92.034227 83.053065 92.330067 C 83.053065 92.330067 88.939675 98.539287 97.700645 94.541477 C 97.700645 94.541477 94.483705 90.692697 92.968635 71.80037 C 97.351385 71.230615 102.62621 70.080615 107.50275 67.947093 C 103.98771 79.224239 105.57838 91.991907 105.9032 92.330067 C 105.9032 92.330067 111.79206 98.539287 120.54636 94.541477 C 120.54636 94.541477 116.38835 89.549157 115.29822 63.13056"/><g transform="scale(0.3333333333333333,0.3333333333333333)" fill="" stroke=""/></g></g><g transform="translate(143,203) scale(0.48,0.48)" fill="#0037ff" stroke="black" stroke-linejoin="round" stroke-miterlimit="10" stroke-width="3" stroke-dasharray=""><path fill="" stroke="" d=""/><g transform="scale(3,3) translate(-99.694341,-76.779331)"><path fill="" stroke="" d=" M 56.910015 58.292302 M 115.29782 63.128745 C 115.50904 62.943572 115.73842 62.78373 115.9409 62.592635 C 116.13678 62.405678 117.7273 61.097621 118.49932 60.145425 C 118.99105 59.542738 118.50332 59.119802 118.07018 59.159833 C 85.907335 62.087565 79.611335 57.902868 79.611335 57.902868 C 76.59238 67.042068 83.408965 72.218957 83.408965 72.218957 C 83.423265 72.226057 83.506365 72.240367 83.548825 72.247497 C 81.513235 82.240997 82.770205 92.034227 83.053065 92.330067 C 83.053065 92.330067 88.939675 98.539287 97.700645 94.541477 C 97.700645 94.541477 94.483705 90.692697 92.968635 71.80037 C 97.351385 71.230615 102.62621 70.080615 107.50275 67.947093 C 103.98771 79.224239 105.57838 91.991907 105.9032 92.330067 C 105.9032 92.330067 111.79206 98.539287 120.54636 94.541477 C 120.54636 94.541477 116.38835 89.549157 115.29822 63.13056"/><g transform="scale(0.3333333333333333,0.3333333333333333)" fill="" stroke=""/></g></g></g></svg>