<svg version="1.1" xmlns="http://www.w3.org/2000/svg" xmlns:xlink="http://www.w3.org/1999/xlink" width="286" height="406"><defs/><g><g><path fill="white" stroke="none" paint-order="stroke fill markers" d=" M 4 38.32 L 4 367.68 Q 0 406 38.32 402 L 247.68 402 Q 286 406 282 367.68 L 282 38.32 Q 286 0 247.68 4 L 38.32 4 Q 0 0 4 38.32"/></g><g><path fill="#654321" stroke="#654321" paint-order="fill stroke markers" d=" M 4 38.32 L 4 367.68 Q 0 406 38.32 402 L 247.68 402 Q 286 406 282 367.68 L 282 38.32 Q 286 0 247.68 4 L 38.32 4 Q 0 0 4 38.32" fill-opacity="0.3" stroke-miterlimit="10" stroke-width="8" stroke-opacity="0.7" stroke-dasharray=""/></g><g><g><text fill="none" stroke="black" font-family="Arial" font-size="96pt" font-style="normal" font-weight="bold" text-decoration="normal" x="19" y="110" text-anchor="start" dominant-baseline="alphabetic" stroke-linejoin="round" stroke-miterlimit="10" stroke-width="8" stroke-dasharray="">1</text><text fill="#654321" stroke="none" font-family="Arial" font-size="96pt" font-style="normal" font-weight="bold" text-decoration="normal" x="19" y="110" text-anchor="start" dominant-baseline="alphabetic">1</text></g></g><g transform="translate(286,406) rotate(180,0,0)"><g><text fill="none" stroke="black" font-family="Arial" font-size="96pt" font-style="normal" font-weight="bold" text-decoration="normal" x="19" y="110" text-anchor="start" dominant-baseline="alphabetic" stroke-linejoin="round" stroke-miterlimit="10" stroke-width="8" stroke-dasharray="">1</text><text fill="#654321" stroke="none" font-family="Arial" font-size="96pt" font-style="normal" font-weight="bold" text-decoration="normal" x="19" y="110" text-anchor="start" dominant-baseline="alphabetic">1</text></g></g><g transform="translate(143,203) scale(0.7200000000000001,0.7200000000000001)" fill="#654321" stroke="black" stroke-linejoin="round" stroke-miterlimit="10" stroke-width="3" stroke-dasharray=""><path fill="" stroke="" d=""/><g transform="scale(3,3) matrix(1,0,0,1,-9.007581,-241.9803)"><path fill="" stroke="" d=" M -3 222 C -4.390911 222.14016 -5.018266 223.63299 -4.794479 225.27079 C -4.861259 227.06524 -4.975042 229.19011 -3.414768 230.26666 C -2.003446 230.94552 -0.143619 230.33956 1.429478 230.54164 C 5.248937 230.68794 9.134292 230.26105 12.919257 230.83865 C 11.667283 233.94539 10.089632 237.00552 8.064652 239.54602 C 6.861197 239.80496 5.560835 238.71351 4.315196 238.52916 C 2.330213 237.90147 -0.4248 236.80826 -1.8632 239.19195 C -2.867403 240.92251 -1.83852 243.28888 -0.177014 243.88349 C 0.849583 244.53751 2.22981 244.75112 3.100987 245.5579 C 1.258662 248.09531 -1.541109 249.56324 -3.965663 251.30318 C -6.163495 252.94583 -8.76801 253.7252 -10.961592 255.3244 C -12.754129 256.71576 -11.735929 259.80205 -9.850583 260.30943 C -7.236942 260.35313 -4.780344 258.87413 -2.32894 257.98896 C 2.09171 256.10039 6.117787 253.23949 9.95007 250.15175 C 11.712105 249.67187 12.937119 251.9695 14.342341 252.79864 C 17.772803 255.59709 20.523078 259.28147 23.634111 262.48744 C 25.397861 263.85397 26.99237 261.32574 28.235991 260.22052 C 29.376897 259.21826 30.641855 257.23842 29.403664 255.72135 C 25.636453 250.90643 20.847755 247.30673 16.123879 243.83466 C 16.865432 242.05993 18.472742 240.51866 19.439272 238.75624 C 22.45618 234.24125 24.232324 228.39921 23.381953 222.72677 C 22.866388 221.46851 21.778854 220.8183 20.555392 221.17473 C 12.638927 221.18673 4.707749 221.13103 -3.199645 221.20273"/><g transform="scale(0.3333333333333333,0.3333333333333333)" fill="" stroke=""/></g></g></g></svg>