<svg version="1.1" xmlns="http://www.w3.org/2000/svg" xmlns:xlink="http://www.w3.org/1999/xlink" width="286" height="406"><defs/><g><g><path fill="white" stroke="none" paint-order="stroke fill markers" d=" M 4 38.32 L 4 367.68 Q 0 406 38.32 402 L 247.68 402 Q 286 406 282 367.68 L 282 38.32 Q 286 0 247.68 4 L 38.32 4 Q 0 0 4 38.32"/></g><g><path fill="#02ec00" stroke="#02ec00" paint-order="fill stroke markers" d=" M 4 38.32 L 4 367.68 Q 0 406 38.32 402 L 247.68 402 Q 286 406 282 367.68 L 282 38.32 Q 286 0 247.68 4 L 38.32 4 Q 0 0 4 38.32" fill-opacity="0.3" stroke-miterlimit="10" stroke-width="8" stroke-opacity="0.7" stroke-dasharray=""/></g><g><g><text fill="none" stroke="black" font-family="Arial" font-size="96pt" font-style="normal" font-weight="bold" text-decoration="normal" x="19" y="110" text-anchor="start" dominant-baseline="alphabetic" stroke-linejoin="round" stroke-miterlimit="10" stroke-width="8" stroke-dasharray="">5</text><text fill="#02ec00" stroke="none" font-family="Arial" font-size="96pt" font-style="normal" font-weight="bold" text-decoration="normal" x="19" y="110" text-anchor="start" dominant-baseline="alphabetic">5</text></g></g><g transform="translate(286,406) rotate(180,0,0)"><g><text fill="none" stroke="black" font-family="Arial" font-size="96pt" font-style="normal" font-weight="bold" text-decoration="normal" x="19" y="110" text-anchor="start" dominant-baseline="alphabetic" stroke-linejoin="round" stroke-miterlimit="10" stroke-width="8" stroke-dasharray="">5</text><text fill="#02ec00" stroke="none" font-family="Arial" font-size="96pt" font-style="normal" font-weight="bold" text-decoration="normal" x="19" y="110" text-anchor="start" dominant-baseline="alphabetic">5</text></g></g><g transform="translate(143,203) translate(0,-120) scale(0.4,0.4)" fill="#02ec00" stroke="black" stroke-linejoin="round" stroke-miterlimit="10" stroke-width="3" stroke-dasharray=""><path fill="" stroke="" d=""/><g transform="scale(3,3) translate(-37.89188,-52.702171)"><path fill="" stroke="" d=" M 56.910015 58.292302 C 55.483093 57.138514 52.978323 54.51389 49.381539 52.702161 C 52.978323 50.88805 55.483093 48.26581 56.910015 47.112026 C 59.841692 44.740087 58.374671 43.555312 58.374671 43.555312 C 55.737819 38.372817 52.749542 35.352476 49.728244 32.591968 C 47.63857 30.684887 47.214037 32.868471 46.836666 34.568186 C 46.27771 37.083148 45.362573 39.512295 44.150277 41.779343 C 42.449773 44.964172 40.294055 47.336103 37.893058 49.669898 C 35.4897 47.336103 33.333993 44.964172 31.633476 41.779343 C 30.423545 39.512295 29.50607 37.083148 28.949451 34.568186 C 28.569708 32.868496 28.145185 30.684887 26.055515 32.591968 C 23.034217 35.352476 20.045939 38.372817 17.409083 43.555312 C 17.409083 43.555312 15.942073 44.740087 18.873743 47.112026 C 20.303023 48.26581 22.807798 50.88805 26.402219 52.702161 C 22.807798 54.51389 20.303023 57.138514 18.873743 58.292302 C 15.942073 60.661853 17.409083 61.846624 17.409083 61.846624 C 20.045939 67.031506 23.034217 70.051852 26.055515 72.812352 C 28.145185 74.719433 28.569729 72.535849 28.949451 70.836141 C 29.506055 68.321168 30.423545 65.892021 31.633476 63.622593 C 33.333993 60.440152 35.4897 58.065829 37.893058 55.734422 C 40.294055 58.065829 42.449773 60.440152 44.150277 63.622593 C 45.362573 65.892021 46.277689 68.321168 46.836666 70.836141 C 47.214058 72.53582 47.63857 74.719433 49.728244 72.812352 C 52.749542 70.051852 55.737819 67.031506 58.374671 61.846624 C 58.374671 61.846624 59.841692 60.661853 56.910015 58.292302"/><g transform="scale(0.3333333333333333,0.3333333333333333)" fill="" stroke=""/></g></g><g transform="translate(143,203) translate(0,120) scale(0.4,0.4) rotate(180,0,0)" fill="#02ec00" stroke="black" stroke-linejoin="round" stroke-miterlimit="10" stroke-width="3" stroke-dasharray=""><path fill="" stroke="" d=""/><g transform="scale(3,3) translate(-37.89188,-52.702171)"><path fill="" stroke="" d=" M 56.910015 58.292302 C 55.483093 57.138514 52.978323 54.51389 49.381539 52.702161 C 52.978323 50.88805 55.483093 48.26581 56.910015 47.112026 C 59.841692 44.740087 58.374671 43.555312 58.374671 43.555312 C 55.737819 38.372817 52.749542 35.352476 49.728244 32.591968 C 47.63857 30.684887 47.214037 32.868471 46.836666 34.568186 C 46.27771 37.083148 45.362573 39.512295 44.150277 41.779343 C 42.449773 44.964172 40.294055 47.336103 37.893058 49.669898 C 35.4897 47.336103 33.333993 44.964172 31.633476 41.779343 C 30.423545 39.512295 29.50607 37.083148 28.949451 34.568186 C 28.569708 32.868496 28.145185 30.684887 26.055515 32.591968 C 23.034217 35.352476 20.045939 38.372817 17.409083 43.555312 C 17.409083 43.555312 15.942073 44.740087 18.873743 47.112026 C 20.303023 48.26581 22.807798 50.88805 26.402219 52.702161 C 22.807798 54.51389 20.303023 57.138514 18.873743 58.292302 C 15.942073 60.661853 17.409083 61.846624 17.409083 61.846624 C 20.045939 67.031506 23.034217 70.051852 26.055515 72.812352 C 28.145185 74.719433 28.569729 72.535849 28.949451 70.836141 C 29.506055 68.321168 30.423545 65.892021 31.633476 63.622593 C 33.333993 60.440152 35.4897 58.065829 37.893058 55.734422 C 40.294055 58.065829 42.449773 60.440152 44.150277 63.622593 C 45.362573 65.892021 46.277689 68.321168 46.836666 70.836141 C 47.214058 72.53582 47.63857 74.719433 49.728244 72.812352 C 52.749542 70.051852 55.737819 67.031506 58.374671 61.846624 C 58.374671 61.846624 59.841692 60.661853 56.910015 58.292302"/><g transform="scale(0.3333333333333333,0.3333333333333333)" fill="" stroke=""/></g></g><g transform="translate(143,203) translate(-90,0) scale(0.4,0.4)" fill="#02ec00" stroke="black" stroke-linejoin="round" stroke-miterlimit="10" stroke-width="3" stroke-dasharray=""><path fill="" stroke="" d=""/><g transform="scale(3,3) translate(-37.89188,-52.702171)"><path fill="" stroke="" d=" M 56.910015 58.292302 C 55.483093 57.138514 52.978323 54.51389 49.381539 52.702161 C 52.978323 50.88805 55.483093 48.26581 56.910015 47.112026 C 59.841692 44.740087 58.374671 43.555312 58.374671 43.555312 C 55.737819 38.372817 52.749542 35.352476 49.728244 32.591968 C 47.63857 30.684887 47.214037 32.868471 46.836666 34.568186 C 46.27771 37.083148 45.362573 39.512295 44.150277 41.779343 C 42.449773 44.964172 40.294055 47.336103 37.893058 49.669898 C 35.4897 47.336103 33.333993 44.964172 31.633476 41.779343 C 30.423545 39.512295 29.50607 37.083148 28.949451 34.568186 C 28.569708 32.868496 28.145185 30.684887 26.055515 32.591968 C 23.034217 35.352476 20.045939 38.372817 17.409083 43.555312 C 17.409083 43.555312 15.942073 44.740087 18.873743 47.112026 C 20.303023 48.26581 22.807798 50.88805 26.402219 52.702161 C 22.807798 54.51389 20.303023 57.138514 18.873743 58.292302 C 15.942073 60.661853 17.409083 61.846624 17.409083 61.846624 C 20.045939 67.031506 23.034217 70.051852 26.055515 72.812352 C 28.145185 74.719433 28.569729 72.535849 28.949451 70.836141 C 29.506055 68.321168 30.423545 65.892021 31.633476 63.622593 C 33.333993 60.440152 35.4897 58.065829 37.893058 55.734422 C 40.294055 58.065829 42.449773 60.440152 44.150277 63.622593 C 45.362573 65.892021 46.277689 68.321168 46.836666 70.836141 C 47.214058 72.53582 47.63857 74.719433 49.728244 72.812352 C 52.749542 70.051852 55.737819 67.031506 58.374671 61.846624 C 58.374671 61.846624 59.841692 60.661853 56.910015 58.292302"/><g transform="scale(0.3333333333333333,0.3333333333333333)" fill="" stroke=""/></g></g><g transform="translate(143,203) translate(90,0) scale(0.4,0.4) rotate(180,0,0)" fill="#02ec00" stroke="black" stroke-linejoin="round" stroke-miterlimit="10" stroke-width="3" stroke-dasharray=""><path fill="" stroke="" d=""/><g transform="scale(3,3) translate(-37.89188,-52.702171)"><path fill="" stroke="" d=" M 56.910015 58.292302 C 55.483093 57.138514 52.978323 54.51389 49.381539 52.702161 C 52.978323 50.88805 55.483093 48.26581 56.910015 47.112026 C 59.841692 44.740087 58.374671 43.555312 58.374671 43.555312 C 55.737819 38.372817 52.749542 35.352476 49.728244 32.591968 C 47.63857 30.684887 47.214037 32.868471 46.836666 34.568186 C 46.27771 37.083148 45.362573 39.512295 44.150277 41.779343 C 42.449773 44.964172 40.294055 47.336103 37.893058 49.669898 C 35.4897 47.336103 33.333993 44.964172 31.633476 41.779343 C 30.423545 39.512295 29.50607 37.083148 28.949451 34.568186 C 28.569708 32.868496 28.145185 30.684887 26.055515 32.591968 C 23.034217 35.352476 20.045939 38.372817 17.409083 43.555312 C 17.409083 43.555312 15.942073 44.740087 18.873743 47.112026 C 20.303023 48.26581 22.807798 50.88805 26.402219 52.702161 C 22.807798 54.51389 20.303023 57.138514 18.873743 58.292302 C 15.942073 60.661853 17.409083 61.846624 17.409083 61.846624 C 20.045939 67.031506 23.034217 70.051852 26.055515 72.812352 C 28.145185 74.719433 28.569729 72.535849 28.949451 70.836141 C 29.506055 68.321168 30.423545 65.892021 31.633476 63.622593 C 33.333993 60.440152 35.4897 58.065829 37.893058 55.734422 C 40.294055 58.065829 42.449773 60.440152 44.150277 63.622593 C 45.362573 65.892021 46.277689 68.321168 46.836666 70.836141 C 47.214058 72.53582 47.63857 74.719433 49.728244 72.812352 C 52.749542 70.051852 55.737819 67.031506 58.374671 61.846624 C 58.374671 61.846624 59.841692 60.661853 56.910015 58.292302"/><g transform="scale(0.3333333333333333,0.3333333333333333)" fill="" stroke=""/></g></g><g transform="translate(143,203) scale(0.48,0.48)" fill="#02ec00" stroke="black" stroke-linejoin="round" stroke-miterlimit="10" stroke-width="3" stroke-dasharray=""><path fill="" stroke="" d=""/><g transform="scale(3,3) translate(-37.89188,-52.702171)"><path fill="" stroke="" d=" M 56.910015 58.292302 C 55.483093 57.138514 52.978323 54.51389 49.381539 52.702161 C 52.978323 50.88805 55.483093 48.26581 56.910015 47.112026 C 59.841692 44.740087 58.374671 43.555312 58.374671 43.555312 C 55.737819 38.372817 52.749542 35.352476 49.728244 32.591968 C 47.63857 30.684887 47.214037 32.868471 46.836666 34.568186 C 46.27771 37.083148 45.362573 39.512295 44.150277 41.779343 C 42.449773 44.964172 40.294055 47.336103 37.893058 49.669898 C 35.4897 47.336103 33.333993 44.964172 31.633476 41.779343 C 30.423545 39.512295 29.50607 37.083148 28.949451 34.568186 C 28.569708 32.868496 28.145185 30.684887 26.055515 32.591968 C 23.034217 35.352476 20.045939 38.372817 17.409083 43.555312 C 17.409083 43.555312 15.942073 44.740087 18.873743 47.112026 C 20.303023 48.26581 22.807798 50.88805 26.402219 52.702161 C 22.807798 54.51389 20.303023 57.138514 18.873743 58.292302 C 15.942073 60.661853 17.409083 61.846624 17.409083 61.846624 C 20.045939 67.031506 23.034217 70.051852 26.055515 72.812352 C 28.145185 74.719433 28.569729 72.535849 28.949451 70.836141 C 29.506055 68.321168 30.423545 65.892021 31.633476 63.622593 C 33.333993 60.440152 35.4897 58.065829 37.893058 55.734422 C 40.294055 58.065829 42.449773 60.440152 44.150277 63.622593 C 45.362573 65.892021 46.277689 68.321168 46.836666 70.836141 C 47.214058 72.53582 47.63857 74.719433 49.728244 72.812352 C 52.749542 70.051852 55.737819 67.031506 58.374671 61.846624 C 58.374671 61.846624 59.841692 60.661853 56.910015 58.292302"/><g transform="scale(0.3333333333333333,0.3333333333333333)" fill="" stroke=""/></g></g></g></svg>