<svg version="1.1" xmlns="http://www.w3.org/2000/svg" xmlns:xlink="http://www.w3.org/1999/xlink" width="286" height="406"><defs><linearGradient id="zyulRExvaWgW" x1="0px" x2="286px" y1="0px" y2="406px" gradientUnits="userSpaceOnUse"><stop offset="0" stop-color="#ff0000"/><stop offset="0.25" stop-color="#ffff00"/><stop offset="0.5" stop-color="#02ec00"/><stop offset="0.75" stop-color="#0037ff"/><stop offset="1" stop-color="#8000ff"/></linearGradient><linearGradient id="qrRLheoNDJiz" x1="0px" x2="286px" y1="0px" y2="406px" gradientUnits="userSpaceOnUse"><stop offset="0" stop-color="#ff0000"/><stop offset="0.25" stop-color="#ffff00"/><stop offset="0.5" stop-color="#02ec00"/><stop offset="0.75" stop-color="#0037ff"/><stop offset="1" stop-color="#8000ff"/></linearGradient><linearGradient id="NMEdGnAsOwhz" x1="0px" x2="0px" y1="14px" y2="110px" gradientUnits="userSpaceOnUse"><stop offset="0" stop-color="#ff0000"/><stop offset="0.25" stop-color="#ffff00"/><stop offset="0.5" stop-color="#02ec00"/><stop offset="0.75" stop-color="#0037ff"/><stop offset="1" stop-color="#8000ff"/></linearGradient></defs><g><g><path fill="white" stroke="none" paint-order="stroke fill markers" d=" M 4 38.32 L 4 367.68 Q 0 406 38.32 402 L 247.68 402 Q 286 406 282 367.68 L 282 38.32 Q 286 0 247.68 4 L 38.32 4 Q 0 0 4 38.32"/></g><g><path fill="url(#zyulRExvaWgW)" stroke="url(#qrRLheoNDJiz)" paint-order="fill stroke markers" d=" M 4 38.32 L 4 367.68 Q 0 406 38.32 402 L 247.68 402 Q 286 406 282 367.68 L 282 38.32 Q 286 0 247.68 4 L 38.32 4 Q 0 0 4 38.32" fill-opacity="0.3" stroke-miterlimit="10" stroke-width="8" stroke-opacity="0.7" stroke-dasharray=""/></g><g><g><text fill="url(#NMEdGnAsOwhz)" stroke="black" font-family="Arial" font-size="96pt" font-style="normal" font-weight="bold" text-decoration="normal" x="19" y="110" text-anchor="start" dominant-baseline="alphabetic" stroke-linejoin="round" stroke-miterlimit="10" stroke-width="8" stroke-dasharray="">1</text><text fill="url(#NMEdGnAsOwhz)" stroke="none" font-family="Arial" font-size="96pt" font-style="normal" font-weight="bold" text-decoration="normal" x="19" y="110" text-anchor="start" dominant-baseline="alphabetic">1</text></g></g><g transform="translate(286,406) rotate(180,0,0)"><g><text fill="url(#NMEdGnAsOwhz)" stroke="black" font-family="Arial" font-size="96pt" font-style="normal" font-weight="bold" text-decoration="normal" x="19" y="110" text-anchor="start" dominant-baseline="alphabetic" stroke-linejoin="round" stroke-miterlimit="10" stroke-width="8" stroke-dasharray="">1</text><text fill="url(#NMEdGnAsOwhz)" stroke="none" font-family="Arial" font-size="96pt" font-style="normal" font-weight="bold" text-decoration="normal" x="19" y="110" text-anchor="start" dominant-baseline="alphabetic">1</text></g></g><g transform="translate(143,203) scale(0.7200000000000001,0.7200000000000001) scale(3,3) translate(-122.26724,-111.17504)" stroke="black" stroke-linejoin="round" stroke-miterlimit="10" stroke-width="3" stroke-dasharray=""><path fill="#ffff00" stroke="none" paint-order="stroke fill markers" d=" M 120.7045 112.94754 L 121.46755 113.30924 L 121.3414 113.71376 C 121.15357 114.31589 121.10436 114.72115 121.10401 115.67675 C 121.10314 117.42485 121.50972 119.54968 122.31769 122.02233 C 122.80175 123.50396 123.08836 124.22301 123.72124 125.54595 C 124.65053 127.48862 125.14967 128.29914 126.10263 129.41337 C 126.37052 129.72631 126.74133 130.15983 126.92629 130.37631 C 127.41552 130.94749 127.4699 131.13459 127.20076 131.31424 C 126.71153 131.64058 123.8357 131.5418 120.8336 131.09514 C 116.44076 130.44157 112.91681 129.22299 112.43589 128.19137 C 112.27959 127.85585 112.35309 126.61321 112.62095 125.0753 C 113.30471 121.14378 115.38625 116.9963 118.04566 114.2666 C 118.60219 113.69541 119.83322 112.58433 119.90867 112.58532 C 119.92597 112.58556 120.28531 112.74866 120.70491 112.94779"/><path fill="#8000ff" stroke="none" paint-order="stroke fill markers" d=" M 118.98989 90.936255 C 119.30421 91.041735 119.36909 91.109475 119.80241 91.787675 C 121.38788 94.269495 122.408 97.267715 122.81846 100.65265 C 122.95257 101.75978 122.95292 104.33859 122.81943 105.34959 C 122.7068 106.20206 122.51516 107.14097 122.32632 107.77196 L 122.187 108.2371 L 121.93055 108.2896 C 121.178 108.45294 120.44393 108.57959 120.38456 108.55666 C 120.34576 108.54246 120.28686 108.39791 120.25045 108.23597 C 119.92573 106.80133 118.03706 104.64461 115.18827 102.45536 C 112.24736 100.19528 108.83667 98.496875 106.75657 98.256765 C 105.97851 98.167165 105.38761 97.957585 105.26741 97.729075 C 105.07404 97.360785 105.66928 96.739035 107.18893 95.723645 C 110.26111 93.670755 114.32517 91.716045 116.86379 91.070105 C 117.65079 90.869705 118.61307 90.808665 118.98964 90.934275"/><path fill="#ff0000" stroke="none" paint-order="stroke fill markers" d=" M 109.89501 106.20943 C 112.59828 106.44123 115.23204 107.15759 117.39617 108.24998 C 118.11217 108.6117 119.04574 109.16909 119.30826 109.39221 L 119.48119 109.53897 L 119.39629 110.41939 C 119.35089 110.90358 119.30059 111.31145 119.28782 111.32581 C 119.27392 111.34001 118.94299 111.37201 118.55093 111.39181 C 117.51581 111.44431 116.91173 111.63242 115.45747 112.34247 C 112.80601 113.63747 109.67307 116.01257 107.53951 118.34508 C 106.57178 119.40304 106.03965 120.15222 105.40936 121.34405 C 104.74276 122.60437 104.48537 122.82476 104.13106 122.43862 C 103.59847 121.85826 102.93822 119.46555 102.37867 116.08909 C 101.96058 113.56493 101.90042 112.89263 101.89782 110.69679 C 101.89582 108.89012 101.90082 108.74124 102.01496 108.2899 C 102.15843 107.70946 102.34384 107.32148 102.56827 107.12911 C 102.85556 106.88285 104.28019 106.52236 105.7631 106.32083 C 106.70617 106.19241 108.97362 106.13243 109.89577 106.21146"/><path fill="#0037ff" stroke="none" paint-order="stroke fill markers" d=" M 129.44717 90.861735 C 130.38835 91.250415 132.5268 93.071585 134.78309 95.405515 C 137.74753 98.471965 139.32158 100.77856 139.32158 102.0561 C 139.32158 102.33305 139.30428 102.37326 138.95077 102.83441 C 137.18025 105.15706 134.36365 107.32291 131.30942 108.71027 C 129.06072 109.73174 127.14008 110.2505 125.08442 110.39152 C 124.64113 110.42332 124.27344 110.43772 124.26768 110.43102 C 124.19008 110.3287 123.37773 108.85459 123.37877 108.8175 C 123.3795 108.7928 123.50561 108.67992 123.65878 108.57372 C 124.34067 108.1033 124.87797 107.45862 125.54474 106.31152 C 126.94677 103.89948 128.28038 99.923625 128.7263 96.826095 C 128.97998 95.063385 128.99176 94.014185 128.7779 92.039045 C 128.7131 91.440205 128.7391 90.948825 128.8361 90.824745 C 128.9228 90.718545 129.13172 90.730545 129.44442 90.856545"/><path fill="#02ec00" stroke="none" paint-order="stroke fill markers" d=" M 142.64793 111.57055 C 142.94736 112.03636 142.44589 113.71633 141.13421 116.63704 C 139.03609 121.30935 136.6023 124.82813 135.2139 125.19663 C 134.98482 125.25583 134.93491 125.24913 134.34906 125.02941 C 130.46684 123.58104 126.57173 120.23338 124.27971 116.37526 C 123.69597 115.39236 123.06292 114.00644 122.81596 113.16963 C 122.79166 113.08223 122.91819 112.91349 123.42168 112.37388 L 124.05975 111.6892 L 124.38067 111.94287 C 125.36956 112.72524 127.16357 113.22322 129.9172 113.47975 C 130.85605 113.56715 133.7227 113.56685 134.70058 113.479 C 137.55626 113.22287 139.34497 112.77865 141.09571 111.89104 C 141.77596 111.546 141.98005 111.46679 142.23903 111.44771 C 142.53222 111.43011 142.56064 111.43351 142.648 111.57048"/><path fill="#000000" stroke="none" paint-order="stroke fill markers" d=" M 121.05685 112.245 L 120.18283 111.84147 L 120.09893 111.68376 L 120.01503 111.52606 L 120.09513 110.65795 C 120.20082 109.51276 120.19143 109.56568 120.31103 109.42597 L 120.41291 109.30672 L 121.36619 109.11656 L 122.3195 108.9264 L 122.44044 108.9861 C 122.50694 109.0179 122.57941 109.0549 122.60124 109.0662 C 122.62204 109.0768 122.86775 109.47888 123.14495 109.95816 L 123.64874 110.82958 L 123.63144 110.98623 C 123.61414 111.1411 123.60714 111.15063 122.94546 111.86189 C 122.35967 112.49248 122.26365 112.58346 122.1645 112.60178 C 122.1025 112.61238 122.02449 112.62998 121.99156 112.63708 C 121.95656 112.64408 121.5644 112.48079 121.05746 112.24663"/><path fill="none" stroke="" d=" M 143.09454 111.19923 C 142.98122 111.04258 142.75596 110.85066 142.34553 110.85066 C 141.66493 110.85066 140.83018 111.39083 140.81091 111.40402 C 139.03665 112.40409 135.84982 112.99891 132.29274 112.99891 C 128.76134 112.99891 125.71147 112.38884 124.7056 111.48023 C 124.51707 111.31053 124.33932 111.16377 124.16847 111.04216 C 124.19967 111.04216 124.23327 111.04916 124.26687 111.04916 C 129.70523 111.04916 136.34857 107.52382 139.71307 102.85018 C 139.93382 102.545 140.00453 102.14428 139.92447 101.65834 C 139.43655 98.710385 133.15703 92.616215 130.63796 90.833955 C 129.50576 90.032105 128.73952 89.938435 128.33938 90.461075 C 127.87923 91.075735 128.18309 92.332695 128.21705 92.456845 C 129.08604 97.041095 125.74936 106.61927 123.318 108.07475 C 123.07853 108.21835 122.87476 108.35983 122.69548 108.50165 C 124.44195 103.27682 123.32902 95.751145 119.88318 90.883595 C 119.59657 90.480445 119.08274 90.278155 118.35504 90.278155 C 115.14681 90.278155 108.09685 94.224045 105.85817 95.960535 C 104.91211 96.690485 104.53117 97.304885 104.69169 97.840905 C 104.94191 98.686325 106.46811 98.801755 106.62652 98.808365 C 111.17454 99.381485 119.09563 105.56922 119.70554 108.37119 C 119.76374 108.63261 119.83376 108.84619 119.90689 109.05752 C 117.01328 106.8874 112.64079 105.53871 108.27249 105.53871 C 106.22853 105.53871 104.3152 105.82377 102.5837 106.3928 C 102.22838 106.51064 101.93914 106.79133 101.72549 107.23163 C 100.41988 109.90072 101.9861 118.58771 102.99888 121.54 C 103.39495 122.68827 103.85501 123.25042 104.41359 123.25042 C 105.2719 123.25042 105.84119 121.82327 105.89681 121.67731 C 107.78024 117.57456 115.66494 111.94878 118.67623 111.94878 C 118.74273 111.94878 118.80688 111.95178 118.86891 111.95578 C 119.10457 111.97338 119.31608 111.98758 119.50699 111.98758 C 119.55859 111.98758 119.58569 111.96998 119.63522 111.96998 C 115.18773 115.14022 111.72265 121.89679 111.69056 127.90597 C 111.68856 128.2762 111.85552 128.63807 112.19145 128.97577 C 114.24611 131.07841 122.71295 132.21358 125.71783 132.21358 L 125.96388 132.21158 C 127.15166 132.18688 127.81519 131.91981 127.99494 131.38799 C 128.27981 130.55351 127.1132 129.54905 126.99332 129.44669 C 123.64809 126.25902 120.82294 116.51098 121.95091 113.87678 C 122.06423 113.61711 122.15018 113.382 122.21429 113.15562 C 123.80876 118.43266 129.04812 123.86451 134.64916 125.74485 C 134.76664 125.78435 134.89521 125.80405 135.0258 125.80405 C 137.76321 125.80405 142.17424 116.27816 143.07743 113.24964 C 143.37269 112.25607 143.37928 111.58497 143.09473 111.19717 Z"/><g transform="scale(0.3333333333333333,0.3333333333333333)" stroke=""/></g></g></svg>