<svg version="1.1" xmlns="http://www.w3.org/2000/svg" xmlns:xlink="http://www.w3.org/1999/xlink" width="286" height="406"><defs/><g><g><path fill="#ffffff" stroke="#ffffff" paint-order="fill stroke markers" d=" M 4 26.88 L 4 379.12 Q 0 406 26.88 402 L 259.12 402 Q 286 406 282 379.12 L 282 26.88 Q 286 0 259.12 4 L 26.88 4 Q 0 0 4 26.88" fill-opacity="0.3" stroke-miterlimit="10" stroke-width="8" stroke-dasharray=""/></g><g transform="translate(143,203) scale(1,1) scale(0.2857142857142857,0.2857142857142857)" fill="#ffffff" stroke="black" stroke-linejoin="round" stroke-miterlimit="10" stroke-width="3" stroke-dasharray=""><path fill="" stroke="" d=""/><g transform="scale(3,3)"><path fill="" stroke="" d=" M 18.06696 -33.593032 C 17.937116 -34.945908 17.624489 -35.265144 15.303533 -36.414909 C 13.864187 -37.127948 10.308861 -38.313716 7.402817 -39.049953 C -6.425702 -42.553351 -19.453999 -39.314305 -29.359582 -29.910263 C -37.501128 -22.180935 -42.050267 -10.684 -41.347053 0.385397 C -41.013532 5.635746 -39.972946 9.549568 -37.152261 16.163069 L -34.942449 21.344279 L -8.364535 -5.361649 C 17.139857 -30.988877 18.207467 -32.12919 18.06696 -33.593032 M 5.603533 40.114884 C 18.443087 38.252884 30.195076 29.803314 35.721066 18.460658 C 38.275666 13.217072 38.869516 10.218417 38.842216 2.700461 C 38.812316 -5.501334 37.619886 -11.694394 34.983536 -17.338568 L 33.192096 -21.173866 L 19.886003 -7.94957 C 5.092643 6.752854 -12.4197 24.558808 -16.754248 29.304984 C -18.576124 31.299864 -19.583283 32.791904 -19.583283 33.495994 C -19.583283 34.804184 -18.010991 36.027254 -14.540973 37.418404 C -7.406745 40.278564 -1.228098 41.105614 5.603533 40.114884 M -70.961668 72.098354 C -72.007521 71.215564 -72.848172 69.767224 -73.254683 68.147744 C -74.310054 63.943354 -73.110785 62.108514 -61.628224 50.359954 C -56.064325 44.667154 -51.512034 39.823104 -51.512034 39.595414 C -51.512034 39.367754 -52.884405 36.746844 -54.561735 33.771244 C -58.102513 27.489874 -61.680206 17.244693 -63.009578 9.579806 C -65.363319 -3.991429 -61.413282 -22.264582 -53.589285 -33.99913 C -50.286636 -38.952503 -42.060615 -47.482443 -36.981141 -51.220879 C -21.607703 -62.535576 0.53445 -65.806397 19.745235 -59.600455 C 22.204314 -58.806068 27.589996 -56.396781 31.713436 -54.246479 L 39.210586 -50.336856 L 44.284316 -55.795686 C 50.534776 -62.520561 59.178086 -70.298349 62.013226 -71.749269 C 63.178396 -72.345549 64.837846 -72.833439 65.700876 -72.833439 C 69.748316 -72.833439 73.929256 -67.197129 72.560576 -63.585937 C 71.640246 -61.157693 66.840296 -55.429127 58.367846 -46.647432 L 50.817656 -38.821666 L 54.663266 -30.728187 C 59.200806 -21.178501 61.029016 -15.9635 62.199266 -9.231772 C 64.012526 1.198819 62.785926 11.912655 58.527336 22.841222 C 48.469396 48.652304 26.793386 63.400694 -1.083752 63.400694 C -12.913562 63.400694 -21.748215 61.004524 -33.291158 54.665244 C -36.333509 52.994414 -39.085355 51.627384 -39.406377 51.627384 C -39.727406 51.627384 -44.405839 56.008504 -49.802924 61.363214 C -55.311645 66.828704 -60.647873 71.623884 -61.968783 72.295584 C -65.257998 73.968204 -68.839478 73.889654 -70.961668 72.098364"/><g transform="scale(0.3333333333333333,0.3333333333333333) scale(3.5,3.5)" fill="" stroke=""/></g></g></g></svg>