<svg version="1.1" xmlns="http://www.w3.org/2000/svg" xmlns:xlink="http://www.w3.org/1999/xlink" width="286" height="406"><defs><linearGradient id="BMkDTOziexfX" x1="0px" x2="0px" y1="-30px" y2="436px" gradientUnits="userSpaceOnUse"><stop offset="0" stop-color="#ffffff"/><stop offset="0.16666666666666666" stop-color="#8000ff"/><stop offset="0.3333333333333333" stop-color="#0037ff"/><stop offset="0.5" stop-color="#02ec00"/><stop offset="0.6666666666666666" stop-color="#ffff00"/><stop offset="0.8333333333333334" stop-color="#ff0000"/><stop offset="1" stop-color="#ffffff"/></linearGradient><linearGradient id="ZskrIPReeRTp" x1="0px" x2="0px" y1="-30px" y2="436px" gradientUnits="userSpaceOnUse"><stop offset="0" stop-color="#ffffff"/><stop offset="0.16666666666666666" stop-color="#8000ff"/><stop offset="0.3333333333333333" stop-color="#0037ff"/><stop offset="0.5" stop-color="#02ec00"/><stop offset="0.6666666666666666" stop-color="#ffff00"/><stop offset="0.8333333333333334" stop-color="#ff0000"/><stop offset="1" stop-color="#ffffff"/></linearGradient><linearGradient id="oaJpyDIDWEGI" x1="0px" x2="0px" y1="14px" y2="110px" gradientUnits="userSpaceOnUse"><stop offset="0" stop-color="#ffffff"/><stop offset="0.16666666666666666" stop-color="#8000ff"/><stop offset="0.3333333333333333" stop-color="#0037ff"/><stop offset="0.5" stop-color="#02ec00"/><stop offset="0.6666666666666666" stop-color="#ffff00"/><stop offset="0.8333333333333334" stop-color="#ff0000"/><stop offset="1" stop-color="#ffffff"/></linearGradient><linearGradient id="oobmHebVZhvV" x1="500px" x2="700px" y1="0px" y2="0px" gradientUnits="userSpaceOnUse"><stop offset="0" stop-color="#ffffff"/><stop offset="0.16666666666666666" stop-color="#8000ff"/><stop offset="0.3333333333333333" stop-color="#0037ff"/><stop offset="0.5" stop-color="#02ec00"/><stop offset="0.6666666666666666" stop-color="#ffff00"/><stop offset="0.8333333333333334" stop-color="#ff0000"/><stop offset="1" stop-color="#ffffff"/></linearGradient><linearGradient id="vKAcuTcVqsxU" x1="500px" x2="700px" y1="0px" y2="0px" gradientUnits="userSpaceOnUse"><stop offset="0" stop-color="#ffffff"/><stop offset="0.16666666666666666" stop-color="#8000ff"/><stop offset="0.3333333333333333" stop-color="#0037ff"/><stop offset="0.5" stop-color="#02ec00"/><stop offset="0.6666666666666666" stop-color="#ffff00"/><stop offset="0.8333333333333334" stop-color="#ff0000"/><stop offset="1" stop-color="#ffffff"/></linearGradient><linearGradient id="ImQqDrUZKSlt" x1="500px" x2="700px" y1="0px" y2="0px" gradientUnits="userSpaceOnUse"><stop offset="0" stop-color="#ffffff"/><stop offset="0.16666666666666666" stop-color="#8000ff"/><stop offset="0.3333333333333333" stop-color="#0037ff"/><stop offset="0.5" stop-color="#02ec00"/><stop offset="0.6666666666666666" stop-color="#ffff00"/><stop offset="0.8333333333333334" stop-color="#ff0000"/><stop offset="1" stop-color="#ffffff"/></linearGradient><linearGradient id="GUqoxpZXVwFZ" x1="500px" x2="700px" y1="0px" y2="0px" gradientUnits="userSpaceOnUse"><stop offset="0" stop-color="#ffffff"/><stop offset="0.16666666666666666" stop-color="#8000ff"/><stop offset="0.3333333333333333" stop-color="#0037ff"/><stop offset="0.5" stop-color="#02ec00"/><stop offset="0.6666666666666666" stop-color="#ffff00"/><stop offset="0.8333333333333334" stop-color="#ff0000"/><stop offset="1" stop-color="#ffffff"/></linearGradient></defs><g><g><path fill="white" stroke="none" paint-order="stroke fill markers" d=" M 4 26.88 L 4 379.12 Q 0 406 26.88 402 L 259.12 402 Q 286 406 282 379.12 L 282 26.88 Q 286 0 259.12 4 L 26.88 4 Q 0 0 4 26.88"/></g><g><path fill="url(#BMkDTOziexfX)" stroke="url(#ZskrIPReeRTp)" paint-order="fill stroke markers" d=" M 4 26.88 L 4 379.12 Q 0 406 26.88 402 L 259.12 402 Q 286 406 282 379.12 L 282 26.88 Q 286 0 259.12 4 L 26.88 4 Q 0 0 4 26.88" fill-opacity="0.3" stroke-miterlimit="10" stroke-width="8" stroke-opacity="0.7" stroke-dasharray=""/></g><g><g><text fill="url(#oaJpyDIDWEGI)" stroke="black" font-family="Arial" font-size="96pt" font-style="normal" font-weight="bold" text-decoration="normal" x="19" y="110" text-anchor="start" dominant-baseline="alphabetic" stroke-linejoin="round" stroke-miterlimit="10" stroke-width="8" stroke-dasharray="">4</text><text fill="url(#oaJpyDIDWEGI)" stroke="none" font-family="Arial" font-size="96pt" font-style="normal" font-weight="bold" text-decoration="normal" x="19" y="110" text-anchor="start" dominant-baseline="alphabetic">4</text></g></g><g transform="translate(286,406) rotate(180,0,0)"><g><text fill="url(#oaJpyDIDWEGI)" stroke="black" font-family="Arial" font-size="96pt" font-style="normal" font-weight="bold" text-decoration="normal" x="19" y="110" text-anchor="start" dominant-baseline="alphabetic" stroke-linejoin="round" stroke-miterlimit="10" stroke-width="8" stroke-dasharray="">4</text><text fill="url(#oaJpyDIDWEGI)" stroke="none" font-family="Arial" font-size="96pt" font-style="normal" font-weight="bold" text-decoration="normal" x="19" y="110" text-anchor="start" dominant-baseline="alphabetic">4</text></g></g><g transform="translate(143,203) translate(0,-120) scale(0.4,0.4) scale(1.2,1.2)" fill="url(#oobmHebVZhvV)" stroke="black" stroke-linejoin="round" stroke-miterlimit="10" stroke-width="3" stroke-dasharray=""><path fill="" stroke="" d=""/><g transform="scale(3,3) translate(-91.082135,-80.110718) matrix(2.128652,0,0,2.476848,-78.229708,-213.11753)"><path fill="" stroke="" d=" M 84.443554 124.56058 C 86.91878 124.46438 89.392846 122.02023 89.39211 117.58985 C 89.39211 117.08288 88.432933 116.69102 87.515841 116.42929 C 86.129485 111.08571 80.894815 111.01425 78.815855 115.1772 C 76.486172 109.95316 69.685595 111.83718 69.686815 119.18105 C 69.686815 119.68813 70.646062 120.08125 71.562529 120.34224 C 72.949924 125.68647 78.184271 125.75792 80.26307 121.59434 C 81.188027 123.66736 82.815125 124.62369 84.443554 124.56058 M 83.404271 120.90682 C 82.731479 120.87512 82.029116 120.63801 81.439628 120.35281 C 80.979448 115.09115 84.019975 115.51567 85.906337 116.42929 C 86.222708 120.04669 84.884415 120.97585 83.404271 120.90682 M 75.136667 120.89622 C 74.463876 120.86452 73.761523 120.62741 73.172033 120.34221 C 72.711854 115.08055 75.75237 115.50443 77.638733 116.41806 C 77.955104 120.03545 76.616822 120.96525 75.136667 120.89622"/><g transform="matrix(0.4697808754084744,0,0,0.4037389456276687,0,0) scale(0.3333333333333333,0.3333333333333333) scale(0.8333333333333334,0.8333333333333334)" fill="" stroke=""/></g></g><g transform="translate(143,203) translate(0,120) scale(0.4,0.4) rotate(180,0,0) scale(1.2,1.2)" fill="url(#vKAcuTcVqsxU)" stroke="black" stroke-linejoin="round" stroke-miterlimit="10" stroke-width="3" stroke-dasharray=""><path fill="" stroke="" d=""/><g transform="scale(3,3) translate(-91.082135,-80.110718) matrix(2.128652,0,0,2.476848,-78.229708,-213.11753)"><path fill="" stroke="" d=" M 84.443554 124.56058 C 86.91878 124.46438 89.392846 122.02023 89.39211 117.58985 C 89.39211 117.08288 88.432933 116.69102 87.515841 116.42929 C 86.129485 111.08571 80.894815 111.01425 78.815855 115.1772 C 76.486172 109.95316 69.685595 111.83718 69.686815 119.18105 C 69.686815 119.68813 70.646062 120.08125 71.562529 120.34224 C 72.949924 125.68647 78.184271 125.75792 80.26307 121.59434 C 81.188027 123.66736 82.815125 124.62369 84.443554 124.56058 M 83.404271 120.90682 C 82.731479 120.87512 82.029116 120.63801 81.439628 120.35281 C 80.979448 115.09115 84.019975 115.51567 85.906337 116.42929 C 86.222708 120.04669 84.884415 120.97585 83.404271 120.90682 M 75.136667 120.89622 C 74.463876 120.86452 73.761523 120.62741 73.172033 120.34221 C 72.711854 115.08055 75.75237 115.50443 77.638733 116.41806 C 77.955104 120.03545 76.616822 120.96525 75.136667 120.89622"/><g transform="matrix(0.4697808754084744,0,0,0.4037389456276687,0,0) scale(0.3333333333333333,0.3333333333333333) scale(0.8333333333333334,0.8333333333333334)" fill="" stroke=""/></g></g><g transform="translate(143,203) translate(-90,0) scale(0.4,0.4) scale(1.2,1.2)" fill="url(#ImQqDrUZKSlt)" stroke="black" stroke-linejoin="round" stroke-miterlimit="10" stroke-width="3" stroke-dasharray=""><path fill="" stroke="" d=""/><g transform="scale(3,3) translate(-91.082135,-80.110718) matrix(2.128652,0,0,2.476848,-78.229708,-213.11753)"><path fill="" stroke="" d=" M 84.443554 124.56058 C 86.91878 124.46438 89.392846 122.02023 89.39211 117.58985 C 89.39211 117.08288 88.432933 116.69102 87.515841 116.42929 C 86.129485 111.08571 80.894815 111.01425 78.815855 115.1772 C 76.486172 109.95316 69.685595 111.83718 69.686815 119.18105 C 69.686815 119.68813 70.646062 120.08125 71.562529 120.34224 C 72.949924 125.68647 78.184271 125.75792 80.26307 121.59434 C 81.188027 123.66736 82.815125 124.62369 84.443554 124.56058 M 83.404271 120.90682 C 82.731479 120.87512 82.029116 120.63801 81.439628 120.35281 C 80.979448 115.09115 84.019975 115.51567 85.906337 116.42929 C 86.222708 120.04669 84.884415 120.97585 83.404271 120.90682 M 75.136667 120.89622 C 74.463876 120.86452 73.761523 120.62741 73.172033 120.34221 C 72.711854 115.08055 75.75237 115.50443 77.638733 116.41806 C 77.955104 120.03545 76.616822 120.96525 75.136667 120.89622"/><g transform="matrix(0.4697808754084744,0,0,0.4037389456276687,0,0) scale(0.3333333333333333,0.3333333333333333) scale(0.8333333333333334,0.8333333333333334)" fill="" stroke=""/></g></g><g transform="translate(143,203) translate(90,0) scale(0.4,0.4) rotate(180,0,0) scale(1.2,1.2)" fill="url(#GUqoxpZXVwFZ)" stroke="black" stroke-linejoin="round" stroke-miterlimit="10" stroke-width="3" stroke-dasharray=""><path fill="" stroke="" d=""/><g transform="scale(3,3) translate(-91.082135,-80.110718) matrix(2.128652,0,0,2.476848,-78.229708,-213.11753)"><path fill="" stroke="" d=" M 84.443554 124.56058 C 86.91878 124.46438 89.392846 122.02023 89.39211 117.58985 C 89.39211 117.08288 88.432933 116.69102 87.515841 116.42929 C 86.129485 111.08571 80.894815 111.01425 78.815855 115.1772 C 76.486172 109.95316 69.685595 111.83718 69.686815 119.18105 C 69.686815 119.68813 70.646062 120.08125 71.562529 120.34224 C 72.949924 125.68647 78.184271 125.75792 80.26307 121.59434 C 81.188027 123.66736 82.815125 124.62369 84.443554 124.56058 M 83.404271 120.90682 C 82.731479 120.87512 82.029116 120.63801 81.439628 120.35281 C 80.979448 115.09115 84.019975 115.51567 85.906337 116.42929 C 86.222708 120.04669 84.884415 120.97585 83.404271 120.90682 M 75.136667 120.89622 C 74.463876 120.86452 73.761523 120.62741 73.172033 120.34221 C 72.711854 115.08055 75.75237 115.50443 77.638733 116.41806 C 77.955104 120.03545 76.616822 120.96525 75.136667 120.89622"/><g transform="matrix(0.4697808754084744,0,0,0.4037389456276687,0,0) scale(0.3333333333333333,0.3333333333333333) scale(0.8333333333333334,0.8333333333333334)" fill="" stroke=""/></g></g></g></svg>