<svg version="1.1" xmlns="http://www.w3.org/2000/svg" xmlns:xlink="http://www.w3.org/1999/xlink" width="286" height="406"><defs/><g><g><path fill="white" stroke="none" paint-order="stroke fill markers" d=" M 4 38.32 L 4 367.68 Q 0 406 38.32 402 L 247.68 402 Q 286 406 282 367.68 L 282 38.32 Q 286 0 247.68 4 L 38.32 4 Q 0 0 4 38.32"/></g><g><path fill="#ff8800" stroke="#ff8800" paint-order="fill stroke markers" d=" M 4 38.32 L 4 367.68 Q 0 406 38.32 402 L 247.68 402 Q 286 406 282 367.68 L 282 38.32 Q 286 0 247.68 4 L 38.32 4 Q 0 0 4 38.32" fill-opacity="0.3" stroke-miterlimit="10" stroke-width="8" stroke-opacity="0.7" stroke-dasharray=""/></g><g><g><text fill="none" stroke="black" font-family="Arial" font-size="96pt" font-style="normal" font-weight="bold" text-decoration="normal" x="19" y="110" text-anchor="start" dominant-baseline="alphabetic" stroke-linejoin="round" stroke-miterlimit="10" stroke-width="8" stroke-dasharray="">2</text><text fill="#ff8800" stroke="none" font-family="Arial" font-size="96pt" font-style="normal" font-weight="bold" text-decoration="normal" x="19" y="110" text-anchor="start" dominant-baseline="alphabetic">2</text></g></g><g transform="translate(286,406) rotate(180,0,0)"><g><text fill="none" stroke="black" font-family="Arial" font-size="96pt" font-style="normal" font-weight="bold" text-decoration="normal" x="19" y="110" text-anchor="start" dominant-baseline="alphabetic" stroke-linejoin="round" stroke-miterlimit="10" stroke-width="8" stroke-dasharray="">2</text><text fill="#ff8800" stroke="none" font-family="Arial" font-size="96pt" font-style="normal" font-weight="bold" text-decoration="normal" x="19" y="110" text-anchor="start" dominant-baseline="alphabetic">2</text></g></g><g transform="translate(143,203) translate(0,-90) scale(4.3,4.3)" fill="#ff8800" stroke="black" stroke-linejoin="round" stroke-miterlimit="10" stroke-width="0.7" stroke-dasharray=""><path d="M 0 -8.125 L 1.25 -6.875 L -3.75 -1.875 C -5 -0.625 -5 1.875 -3.75 3.125 L -1.25 0.625 L 3.75 -4.375 L 5 -3.125 L 5 -8.125 Z M 0 8.125 L -1.25 6.875 L 3.75 1.875 C 5 0.625 5 -1.875 3.75 -3.125 L 1.25 -0.625 L -3.75 4.375 L -5 3.125 L -5 8.125 Z"/></g><g transform="translate(143,203) translate(0,90) scale(4.3,4.3) rotate(180,0,0)" fill="#ff8800" stroke="black" stroke-linejoin="round" stroke-miterlimit="10" stroke-width="0.7" stroke-dasharray=""><path d="M 0 -8.125 L 1.25 -6.875 L -3.75 -1.875 C -5 -0.625 -5 1.875 -3.75 3.125 L -1.25 0.625 L 3.75 -4.375 L 5 -3.125 L 5 -8.125 Z M 0 8.125 L -1.25 6.875 L 3.75 1.875 C 5 0.625 5 -1.875 3.75 -3.125 L 1.25 -0.625 L -3.75 4.375 L -5 3.125 L -5 8.125 Z"/></g></g></svg>
