<svg version="1.1" xmlns="http://www.w3.org/2000/svg" xmlns:xlink="http://www.w3.org/1999/xlink" width="286" height="406"><defs/><g><g><path fill="white" stroke="none" paint-order="stroke fill markers" d=" M 4 38.32 L 4 367.68 Q 0 406 38.32 402 L 247.68 402 Q 286 406 282 367.68 L 282 38.32 Q 286 0 247.68 4 L 38.32 4 Q 0 0 4 38.32"/></g><g><path fill="#6600cc" stroke="#6600cc" paint-order="fill stroke markers" d=" M 4 38.32 L 4 367.68 Q 0 406 38.32 402 L 247.68 402 Q 286 406 282 367.68 L 282 38.32 Q 286 0 247.68 4 L 38.32 4 Q 0 0 4 38.32" fill-opacity="0.3" stroke-miterlimit="10" stroke-width="8" stroke-opacity="0.7" stroke-dasharray=""/></g><g><g><text fill="none" stroke="black" font-family="Arial" font-size="96pt" font-style="normal" font-weight="bold" text-decoration="normal" x="19" y="110" text-anchor="start" dominant-baseline="alphabetic" stroke-linejoin="round" stroke-miterlimit="10" stroke-width="8" stroke-dasharray="">3</text><text fill="#6600cc" stroke="none" font-family="Arial" font-size="96pt" font-style="normal" font-weight="bold" text-decoration="normal" x="19" y="110" text-anchor="start" dominant-baseline="alphabetic">3</text></g></g><g transform="translate(286,406) rotate(180,0,0)"><g><text fill="none" stroke="black" font-family="Arial" font-size="96pt" font-style="normal" font-weight="bold" text-decoration="normal" x="19" y="110" text-anchor="start" dominant-baseline="alphabetic" stroke-linejoin="round" stroke-miterlimit="10" stroke-width="8" stroke-dasharray="">3</text><text fill="#6600cc" stroke="none" font-family="Arial" font-size="96pt" font-style="normal" font-weight="bold" text-decoration="normal" x="19" y="110" text-anchor="start" dominant-baseline="alphabetic">3</text></g></g><g transform="translate(143,203) translate(0,-120) scale(0.4,0.4) scale(0.25,0.25)" fill="#6600cc" stroke="black" stroke-linejoin="round" stroke-miterlimit="10" stroke-width="3" stroke-dasharray=""><path fill="" stroke="" d=""/><g transform="scale(3,3) translate(-240.36951,-310.42858)"><path fill="" stroke="" d=" M 209.32783 329.84636 C 216.84946 315.63443 219.83968 297.64058 220.32548 276.66186 C 234.19607 285.09913 251.98661 288.63517 272.94328 289.37289 C 264.65944 303.39826 261.20017 321.38368 260.47986 342.5574 C 246.93591 334.28974 229.66468 330.70283 209.32783 329.84636 M 304.8808 333.66226 C 303.08838 316.81313 302.35966 300.01488 303.78357 283.12336 C 305.86082 280.55403 307.97994 276.98406 309.91479 271.95565 C 317.41964 252.5287 313.29028 242.40397 311.55646 240.0805 C 309.82262 237.7486 307.92129 235.50997 303.20562 237.01935 C 290.6752 241.03873 277.24853 243.00603 264.20713 244.42212 C 247.48872 246.23679 230.80381 246.98295 214.01839 245.50752 C 212.56097 245.37999 211.01979 245.18546 209.47862 244.97296 C 207.65264 243.92995 205.54189 242.9039 203.05425 241.92028 C 183.86491 234.33097 173.86402 238.51145 171.56901 240.26675 C 169.26559 242.02204 167.05435 243.94694 168.54527 248.71252 C 172.51548 261.39808 174.4587 274.99949 175.8575 288.18538 C 177.54105 304.08479 178.21952 319.95026 177.10549 335.87509 C 174.97802 338.45291 172.80864 342.06526 170.82355 347.21242 C 163.31866 366.63936 167.44803 376.77261 169.1902 379.09604 C 170.92406 381.42791 172.81702 383.66655 177.53268 382.14868 C 190.06314 378.13781 203.48978 376.16204 216.52277 374.74595 C 233.20769 372.9398 249.85072 372.20204 266.57753 373.66055 C 269.12382 375.78047 272.66688 377.9428 277.67567 379.92701 C 296.86502 387.51635 306.87431 383.33586 309.16092 381.58054 C 311.47271 379.82528 313.67559 377.90038 312.19302 373.1348 C 308.21445 360.44921 306.27123 346.8478 304.8808 333.6619"/><g transform="scale(0.3333333333333333,0.3333333333333333) scale(4,4)" fill="" stroke=""/></g></g><g transform="translate(143,203) translate(0,120) scale(0.4,0.4) rotate(180,0,0) scale(0.25,0.25)" fill="#6600cc" stroke="black" stroke-linejoin="round" stroke-miterlimit="10" stroke-width="3" stroke-dasharray=""><path fill="" stroke="" d=""/><g transform="scale(3,3) translate(-240.36951,-310.42858)"><path fill="" stroke="" d=" M 209.32783 329.84636 C 216.84946 315.63443 219.83968 297.64058 220.32548 276.66186 C 234.19607 285.09913 251.98661 288.63517 272.94328 289.37289 C 264.65944 303.39826 261.20017 321.38368 260.47986 342.5574 C 246.93591 334.28974 229.66468 330.70283 209.32783 329.84636 M 304.8808 333.66226 C 303.08838 316.81313 302.35966 300.01488 303.78357 283.12336 C 305.86082 280.55403 307.97994 276.98406 309.91479 271.95565 C 317.41964 252.5287 313.29028 242.40397 311.55646 240.0805 C 309.82262 237.7486 307.92129 235.50997 303.20562 237.01935 C 290.6752 241.03873 277.24853 243.00603 264.20713 244.42212 C 247.48872 246.23679 230.80381 246.98295 214.01839 245.50752 C 212.56097 245.37999 211.01979 245.18546 209.47862 244.97296 C 207.65264 243.92995 205.54189 242.9039 203.05425 241.92028 C 183.86491 234.33097 173.86402 238.51145 171.56901 240.26675 C 169.26559 242.02204 167.05435 243.94694 168.54527 248.71252 C 172.51548 261.39808 174.4587 274.99949 175.8575 288.18538 C 177.54105 304.08479 178.21952 319.95026 177.10549 335.87509 C 174.97802 338.45291 172.80864 342.06526 170.82355 347.21242 C 163.31866 366.63936 167.44803 376.77261 169.1902 379.09604 C 170.92406 381.42791 172.81702 383.66655 177.53268 382.14868 C 190.06314 378.13781 203.48978 376.16204 216.52277 374.74595 C 233.20769 372.9398 249.85072 372.20204 266.57753 373.66055 C 269.12382 375.78047 272.66688 377.9428 277.67567 379.92701 C 296.86502 387.51635 306.87431 383.33586 309.16092 381.58054 C 311.47271 379.82528 313.67559 377.90038 312.19302 373.1348 C 308.21445 360.44921 306.27123 346.8478 304.8808 333.6619"/><g transform="scale(0.3333333333333333,0.3333333333333333) scale(4,4)" fill="" stroke=""/></g></g><g transform="translate(143,203) scale(0.48,0.48) scale(0.25,0.25)" fill="#6600cc" stroke="black" stroke-linejoin="round" stroke-miterlimit="10" stroke-width="3" stroke-dasharray=""><path fill="" stroke="" d=""/><g transform="scale(3,3) translate(-240.36951,-310.42858)"><path fill="" stroke="" d=" M 209.32783 329.84636 C 216.84946 315.63443 219.83968 297.64058 220.32548 276.66186 C 234.19607 285.09913 251.98661 288.63517 272.94328 289.37289 C 264.65944 303.39826 261.20017 321.38368 260.47986 342.5574 C 246.93591 334.28974 229.66468 330.70283 209.32783 329.84636 M 304.8808 333.66226 C 303.08838 316.81313 302.35966 300.01488 303.78357 283.12336 C 305.86082 280.55403 307.97994 276.98406 309.91479 271.95565 C 317.41964 252.5287 313.29028 242.40397 311.55646 240.0805 C 309.82262 237.7486 307.92129 235.50997 303.20562 237.01935 C 290.6752 241.03873 277.24853 243.00603 264.20713 244.42212 C 247.48872 246.23679 230.80381 246.98295 214.01839 245.50752 C 212.56097 245.37999 211.01979 245.18546 209.47862 244.97296 C 207.65264 243.92995 205.54189 242.9039 203.05425 241.92028 C 183.86491 234.33097 173.86402 238.51145 171.56901 240.26675 C 169.26559 242.02204 167.05435 243.94694 168.54527 248.71252 C 172.51548 261.39808 174.4587 274.99949 175.8575 288.18538 C 177.54105 304.08479 178.21952 319.95026 177.10549 335.87509 C 174.97802 338.45291 172.80864 342.06526 170.82355 347.21242 C 163.31866 366.63936 167.44803 376.77261 169.1902 379.09604 C 170.92406 381.42791 172.81702 383.66655 177.53268 382.14868 C 190.06314 378.13781 203.48978 376.16204 216.52277 374.74595 C 233.20769 372.9398 249.85072 372.20204 266.57753 373.66055 C 269.12382 375.78047 272.66688 377.9428 277.67567 379.92701 C 296.86502 387.51635 306.87431 383.33586 309.16092 381.58054 C 311.47271 379.82528 313.67559 377.90038 312.19302 373.1348 C 308.21445 360.44921 306.27123 346.8478 304.8808 333.6619"/><g transform="scale(0.3333333333333333,0.3333333333333333) scale(4,4)" fill="" stroke=""/></g></g></g></svg>