<svg version="1.1" xmlns="http://www.w3.org/2000/svg" xmlns:xlink="http://www.w3.org/1999/xlink" width="286" height="406"><defs/><g><g><path fill="white" stroke="none" paint-order="stroke fill markers" d=" M 4 26.88 L 4 379.12 Q 0 406 26.88 402 L 259.12 402 Q 286 406 282 379.12 L 282 26.88 Q 286 0 259.12 4 L 26.88 4 Q 0 0 4 26.88"/></g><g><path fill="#ff69b4" stroke="#ff69b4" paint-order="fill stroke markers" d=" M 4 26.88 L 4 379.12 Q 0 406 26.88 402 L 259.12 402 Q 286 406 282 379.12 L 282 26.88 Q 286 0 259.12 4 L 26.88 4 Q 0 0 4 26.88" fill-opacity="0.3" stroke-miterlimit="10" stroke-width="8" stroke-opacity="0.7" stroke-dasharray=""/></g><g><g><text fill="none" stroke="black" font-family="Arial" font-size="96pt" font-style="normal" font-weight="bold" text-decoration="normal" x="19" y="110" text-anchor="start" dominant-baseline="alphabetic" stroke-linejoin="round" stroke-miterlimit="10" stroke-width="8" stroke-dasharray="">4</text><text fill="#ff69b4" stroke="none" font-family="Arial" font-size="96pt" font-style="normal" font-weight="bold" text-decoration="normal" x="19" y="110" text-anchor="start" dominant-baseline="alphabetic">4</text></g></g><g transform="translate(286,406) rotate(180,0,0)"><g><text fill="none" stroke="black" font-family="Arial" font-size="96pt" font-style="normal" font-weight="bold" text-decoration="normal" x="19" y="110" text-anchor="start" dominant-baseline="alphabetic" stroke-linejoin="round" stroke-miterlimit="10" stroke-width="8" stroke-dasharray="">4</text><text fill="#ff69b4" stroke="none" font-family="Arial" font-size="96pt" font-style="normal" font-weight="bold" text-decoration="normal" x="19" y="110" text-anchor="start" dominant-baseline="alphabetic">4</text></g></g><g transform="translate(143,203) translate(0,-120) scale(0.4,0.4) scale(0.3333333333333333,0.3333333333333333)" fill="#ff69b4" stroke="black" stroke-linejoin="round" stroke-miterlimit="10" stroke-width="3" stroke-dasharray=""><path fill="" stroke="" d=""/><g transform="scale(3,3)"><path fill="" stroke="" d=" M 66.660601 59.539431 M -15.043961 -67.114874 C -18.3138 -67.114874 -21.483707 -65.817675 -23.969688 -63.46165 C -26.452065 -61.108377 -27.975591 -57.961284 -28.261528 -54.598326 L -29.398805 -41.194753 L -42.391592 -41.194753 C -45.661435 -41.194753 -48.831339 -39.896779 -51.317317 -37.540754 C -53.799696 -35.187516 -55.324118 -32.040034 -55.609163 -28.677076 C -55.905037 -25.1886 -54.844965 -21.891788 -52.62598 -19.395357 C -50.414209 -16.908205 -47.338299 -15.538687 -43.96292 -15.538687 L -31.577379 -15.538687 L -32.857175 -0.460797 L -45.849236 -0.460797 C -49.119082 -0.460797 -52.288623 0.836437 -54.774604 3.192462 C -57.256979 5.545735 -58.780506 8.69297 -59.066446 12.05501 C -59.362321 15.544475 -58.303512 18.840299 -56.083624 21.33673 C -53.87276 23.823847 -50.795943 25.193435 -47.420567 25.193435 L -35.033943 25.193435 L -36.1189 37.975907 C -36.414775 41.464418 -35.355966 44.760628 -33.136078 47.257978 C -30.925217 49.745098 -27.848401 51.114648 -24.473021 51.114648 C -21.203175 51.114648 -18.033454 49.817448 -15.548373 47.461388 C -13.065097 45.108148 -11.540491 41.960878 -11.255451 38.598842 C -11.253651 38.581202 -11.252051 38.563562 -11.251251 38.545922 L -10.118306 25.193326 L 4.482971 25.194526 L 3.398737 37.975093 C 3.10198 41.464598 4.161855 44.760418 6.380836 47.256848 C 8.5917 49.744888 11.668513 51.114648 15.0439 51.114648 C 18.313735 51.114648 21.483283 49.817448 23.969264 47.461388 C 26.451636 45.108158 27.976242 41.961058 28.262186 38.598098 C 28.263107 38.587518 28.263886 38.576928 28.264686 38.566348 L 29.399434 25.195514 L 42.392238 25.195514 C 42.420438 25.195514 42.446238 25.195338 42.473338 25.194314 C 45.714308 25.173144 48.852658 23.877925 51.317898 21.541408 C 53.800258 19.18817 55.324708 16.0409 55.609758 12.678859 C 55.905738 9.190383 54.846418 5.894135 52.626558 3.396752 C 50.415668 0.909635 47.338888 -0.459918 43.956318 -0.459918 L 31.576863 -0.459918 L 32.857019 -15.537773 L 45.848718 -15.537773 C 49.118578 -15.537773 52.288498 -16.835783 54.774448 -19.191772 C 57.256808 -21.544128 58.781228 -24.69228 59.066308 -28.054321 C 59.362288 -31.542868 58.303178 -34.838904 56.084168 -37.335334 C 53.872428 -39.823369 50.795438 -41.192745 47.412828 -41.192745 L 35.034535 -41.192745 L 36.118762 -53.974477 C 36.415448 -57.463941 35.356551 -60.759765 33.136659 -63.256196 C 30.925798 -65.743313 27.848985 -67.113995 24.473602 -67.113995 C 21.203756 -67.113995 18.033859 -65.81602 15.547875 -63.459995 C 13.065499 -61.107674 11.541073 -57.960405 11.256032 -54.597447 L 10.117675 -41.192745 L -4.483245 -41.192745 L -3.398285 -53.975218 C -3.10241 -57.463729 -4.161402 -60.759942 -6.380384 -63.257289 C -8.592148 -65.744442 -11.668788 -67.113995 -15.044167 -67.113995 M -9.834935 -22.679328 L 11.719884 -22.679328 C 12.691359 -22.679328 13.617742 -22.259064 14.27442 -21.520842 C 14.930188 -20.782585 15.255823 -19.794984 15.171032 -18.797364 L 13.285793 3.420074 C 13.128842 5.264713 11.630578 6.679104 9.834647 6.679104 L -11.720175 6.679104 C -12.691654 6.679104 -13.618037 6.259581 -14.274712 5.521358 C -14.930483 4.783101 -15.256114 3.795888 -15.171328 2.798268 L -13.285008 -19.420263 C -13.128058 -21.264055 -11.62997 -22.679328 -9.834935 -22.679328"/><g transform="scale(0.3333333333333333,0.3333333333333333) scale(3,3)" fill="" stroke=""/></g></g><g transform="translate(143,203) translate(0,120) scale(0.4,0.4) rotate(180,0,0) scale(0.3333333333333333,0.3333333333333333)" fill="#ff69b4" stroke="black" stroke-linejoin="round" stroke-miterlimit="10" stroke-width="3" stroke-dasharray=""><path fill="" stroke="" d=""/><g transform="scale(3,3)"><path fill="" stroke="" d=" M 66.660601 59.539431 M -15.043961 -67.114874 C -18.3138 -67.114874 -21.483707 -65.817675 -23.969688 -63.46165 C -26.452065 -61.108377 -27.975591 -57.961284 -28.261528 -54.598326 L -29.398805 -41.194753 L -42.391592 -41.194753 C -45.661435 -41.194753 -48.831339 -39.896779 -51.317317 -37.540754 C -53.799696 -35.187516 -55.324118 -32.040034 -55.609163 -28.677076 C -55.905037 -25.1886 -54.844965 -21.891788 -52.62598 -19.395357 C -50.414209 -16.908205 -47.338299 -15.538687 -43.96292 -15.538687 L -31.577379 -15.538687 L -32.857175 -0.460797 L -45.849236 -0.460797 C -49.119082 -0.460797 -52.288623 0.836437 -54.774604 3.192462 C -57.256979 5.545735 -58.780506 8.69297 -59.066446 12.05501 C -59.362321 15.544475 -58.303512 18.840299 -56.083624 21.33673 C -53.87276 23.823847 -50.795943 25.193435 -47.420567 25.193435 L -35.033943 25.193435 L -36.1189 37.975907 C -36.414775 41.464418 -35.355966 44.760628 -33.136078 47.257978 C -30.925217 49.745098 -27.848401 51.114648 -24.473021 51.114648 C -21.203175 51.114648 -18.033454 49.817448 -15.548373 47.461388 C -13.065097 45.108148 -11.540491 41.960878 -11.255451 38.598842 C -11.253651 38.581202 -11.252051 38.563562 -11.251251 38.545922 L -10.118306 25.193326 L 4.482971 25.194526 L 3.398737 37.975093 C 3.10198 41.464598 4.161855 44.760418 6.380836 47.256848 C 8.5917 49.744888 11.668513 51.114648 15.0439 51.114648 C 18.313735 51.114648 21.483283 49.817448 23.969264 47.461388 C 26.451636 45.108158 27.976242 41.961058 28.262186 38.598098 C 28.263107 38.587518 28.263886 38.576928 28.264686 38.566348 L 29.399434 25.195514 L 42.392238 25.195514 C 42.420438 25.195514 42.446238 25.195338 42.473338 25.194314 C 45.714308 25.173144 48.852658 23.877925 51.317898 21.541408 C 53.800258 19.18817 55.324708 16.0409 55.609758 12.678859 C 55.905738 9.190383 54.846418 5.894135 52.626558 3.396752 C 50.415668 0.909635 47.338888 -0.459918 43.956318 -0.459918 L 31.576863 -0.459918 L 32.857019 -15.537773 L 45.848718 -15.537773 C 49.118578 -15.537773 52.288498 -16.835783 54.774448 -19.191772 C 57.256808 -21.544128 58.781228 -24.69228 59.066308 -28.054321 C 59.362288 -31.542868 58.303178 -34.838904 56.084168 -37.335334 C 53.872428 -39.823369 50.795438 -41.192745 47.412828 -41.192745 L 35.034535 -41.192745 L 36.118762 -53.974477 C 36.415448 -57.463941 35.356551 -60.759765 33.136659 -63.256196 C 30.925798 -65.743313 27.848985 -67.113995 24.473602 -67.113995 C 21.203756 -67.113995 18.033859 -65.81602 15.547875 -63.459995 C 13.065499 -61.107674 11.541073 -57.960405 11.256032 -54.597447 L 10.117675 -41.192745 L -4.483245 -41.192745 L -3.398285 -53.975218 C -3.10241 -57.463729 -4.161402 -60.759942 -6.380384 -63.257289 C -8.592148 -65.744442 -11.668788 -67.113995 -15.044167 -67.113995 M -9.834935 -22.679328 L 11.719884 -22.679328 C 12.691359 -22.679328 13.617742 -22.259064 14.27442 -21.520842 C 14.930188 -20.782585 15.255823 -19.794984 15.171032 -18.797364 L 13.285793 3.420074 C 13.128842 5.264713 11.630578 6.679104 9.834647 6.679104 L -11.720175 6.679104 C -12.691654 6.679104 -13.618037 6.259581 -14.274712 5.521358 C -14.930483 4.783101 -15.256114 3.795888 -15.171328 2.798268 L -13.285008 -19.420263 C -13.128058 -21.264055 -11.62997 -22.679328 -9.834935 -22.679328"/><g transform="scale(0.3333333333333333,0.3333333333333333) scale(3,3)" fill="" stroke=""/></g></g><g transform="translate(143,203) translate(-90,0) scale(0.4,0.4) scale(0.3333333333333333,0.3333333333333333)" fill="#ff69b4" stroke="black" stroke-linejoin="round" stroke-miterlimit="10" stroke-width="3" stroke-dasharray=""><path fill="" stroke="" d=""/><g transform="scale(3,3)"><path fill="" stroke="" d=" M 66.660601 59.539431 M -15.043961 -67.114874 C -18.3138 -67.114874 -21.483707 -65.817675 -23.969688 -63.46165 C -26.452065 -61.108377 -27.975591 -57.961284 -28.261528 -54.598326 L -29.398805 -41.194753 L -42.391592 -41.194753 C -45.661435 -41.194753 -48.831339 -39.896779 -51.317317 -37.540754 C -53.799696 -35.187516 -55.324118 -32.040034 -55.609163 -28.677076 C -55.905037 -25.1886 -54.844965 -21.891788 -52.62598 -19.395357 C -50.414209 -16.908205 -47.338299 -15.538687 -43.96292 -15.538687 L -31.577379 -15.538687 L -32.857175 -0.460797 L -45.849236 -0.460797 C -49.119082 -0.460797 -52.288623 0.836437 -54.774604 3.192462 C -57.256979 5.545735 -58.780506 8.69297 -59.066446 12.05501 C -59.362321 15.544475 -58.303512 18.840299 -56.083624 21.33673 C -53.87276 23.823847 -50.795943 25.193435 -47.420567 25.193435 L -35.033943 25.193435 L -36.1189 37.975907 C -36.414775 41.464418 -35.355966 44.760628 -33.136078 47.257978 C -30.925217 49.745098 -27.848401 51.114648 -24.473021 51.114648 C -21.203175 51.114648 -18.033454 49.817448 -15.548373 47.461388 C -13.065097 45.108148 -11.540491 41.960878 -11.255451 38.598842 C -11.253651 38.581202 -11.252051 38.563562 -11.251251 38.545922 L -10.118306 25.193326 L 4.482971 25.194526 L 3.398737 37.975093 C 3.10198 41.464598 4.161855 44.760418 6.380836 47.256848 C 8.5917 49.744888 11.668513 51.114648 15.0439 51.114648 C 18.313735 51.114648 21.483283 49.817448 23.969264 47.461388 C 26.451636 45.108158 27.976242 41.961058 28.262186 38.598098 C 28.263107 38.587518 28.263886 38.576928 28.264686 38.566348 L 29.399434 25.195514 L 42.392238 25.195514 C 42.420438 25.195514 42.446238 25.195338 42.473338 25.194314 C 45.714308 25.173144 48.852658 23.877925 51.317898 21.541408 C 53.800258 19.18817 55.324708 16.0409 55.609758 12.678859 C 55.905738 9.190383 54.846418 5.894135 52.626558 3.396752 C 50.415668 0.909635 47.338888 -0.459918 43.956318 -0.459918 L 31.576863 -0.459918 L 32.857019 -15.537773 L 45.848718 -15.537773 C 49.118578 -15.537773 52.288498 -16.835783 54.774448 -19.191772 C 57.256808 -21.544128 58.781228 -24.69228 59.066308 -28.054321 C 59.362288 -31.542868 58.303178 -34.838904 56.084168 -37.335334 C 53.872428 -39.823369 50.795438 -41.192745 47.412828 -41.192745 L 35.034535 -41.192745 L 36.118762 -53.974477 C 36.415448 -57.463941 35.356551 -60.759765 33.136659 -63.256196 C 30.925798 -65.743313 27.848985 -67.113995 24.473602 -67.113995 C 21.203756 -67.113995 18.033859 -65.81602 15.547875 -63.459995 C 13.065499 -61.107674 11.541073 -57.960405 11.256032 -54.597447 L 10.117675 -41.192745 L -4.483245 -41.192745 L -3.398285 -53.975218 C -3.10241 -57.463729 -4.161402 -60.759942 -6.380384 -63.257289 C -8.592148 -65.744442 -11.668788 -67.113995 -15.044167 -67.113995 M -9.834935 -22.679328 L 11.719884 -22.679328 C 12.691359 -22.679328 13.617742 -22.259064 14.27442 -21.520842 C 14.930188 -20.782585 15.255823 -19.794984 15.171032 -18.797364 L 13.285793 3.420074 C 13.128842 5.264713 11.630578 6.679104 9.834647 6.679104 L -11.720175 6.679104 C -12.691654 6.679104 -13.618037 6.259581 -14.274712 5.521358 C -14.930483 4.783101 -15.256114 3.795888 -15.171328 2.798268 L -13.285008 -19.420263 C -13.128058 -21.264055 -11.62997 -22.679328 -9.834935 -22.679328"/><g transform="scale(0.3333333333333333,0.3333333333333333) scale(3,3)" fill="" stroke=""/></g></g><g transform="translate(143,203) translate(90,0) scale(0.4,0.4) rotate(180,0,0) scale(0.3333333333333333,0.3333333333333333)" fill="#ff69b4" stroke="black" stroke-linejoin="round" stroke-miterlimit="10" stroke-width="3" stroke-dasharray=""><path fill="" stroke="" d=""/><g transform="scale(3,3)"><path fill="" stroke="" d=" M 66.660601 59.539431 M -15.043961 -67.114874 C -18.3138 -67.114874 -21.483707 -65.817675 -23.969688 -63.46165 C -26.452065 -61.108377 -27.975591 -57.961284 -28.261528 -54.598326 L -29.398805 -41.194753 L -42.391592 -41.194753 C -45.661435 -41.194753 -48.831339 -39.896779 -51.317317 -37.540754 C -53.799696 -35.187516 -55.324118 -32.040034 -55.609163 -28.677076 C -55.905037 -25.1886 -54.844965 -21.891788 -52.62598 -19.395357 C -50.414209 -16.908205 -47.338299 -15.538687 -43.96292 -15.538687 L -31.577379 -15.538687 L -32.857175 -0.460797 L -45.849236 -0.460797 C -49.119082 -0.460797 -52.288623 0.836437 -54.774604 3.192462 C -57.256979 5.545735 -58.780506 8.69297 -59.066446 12.05501 C -59.362321 15.544475 -58.303512 18.840299 -56.083624 21.33673 C -53.87276 23.823847 -50.795943 25.193435 -47.420567 25.193435 L -35.033943 25.193435 L -36.1189 37.975907 C -36.414775 41.464418 -35.355966 44.760628 -33.136078 47.257978 C -30.925217 49.745098 -27.848401 51.114648 -24.473021 51.114648 C -21.203175 51.114648 -18.033454 49.817448 -15.548373 47.461388 C -13.065097 45.108148 -11.540491 41.960878 -11.255451 38.598842 C -11.253651 38.581202 -11.252051 38.563562 -11.251251 38.545922 L -10.118306 25.193326 L 4.482971 25.194526 L 3.398737 37.975093 C 3.10198 41.464598 4.161855 44.760418 6.380836 47.256848 C 8.5917 49.744888 11.668513 51.114648 15.0439 51.114648 C 18.313735 51.114648 21.483283 49.817448 23.969264 47.461388 C 26.451636 45.108158 27.976242 41.961058 28.262186 38.598098 C 28.263107 38.587518 28.263886 38.576928 28.264686 38.566348 L 29.399434 25.195514 L 42.392238 25.195514 C 42.420438 25.195514 42.446238 25.195338 42.473338 25.194314 C 45.714308 25.173144 48.852658 23.877925 51.317898 21.541408 C 53.800258 19.18817 55.324708 16.0409 55.609758 12.678859 C 55.905738 9.190383 54.846418 5.894135 52.626558 3.396752 C 50.415668 0.909635 47.338888 -0.459918 43.956318 -0.459918 L 31.576863 -0.459918 L 32.857019 -15.537773 L 45.848718 -15.537773 C 49.118578 -15.537773 52.288498 -16.835783 54.774448 -19.191772 C 57.256808 -21.544128 58.781228 -24.69228 59.066308 -28.054321 C 59.362288 -31.542868 58.303178 -34.838904 56.084168 -37.335334 C 53.872428 -39.823369 50.795438 -41.192745 47.412828 -41.192745 L 35.034535 -41.192745 L 36.118762 -53.974477 C 36.415448 -57.463941 35.356551 -60.759765 33.136659 -63.256196 C 30.925798 -65.743313 27.848985 -67.113995 24.473602 -67.113995 C 21.203756 -67.113995 18.033859 -65.81602 15.547875 -63.459995 C 13.065499 -61.107674 11.541073 -57.960405 11.256032 -54.597447 L 10.117675 -41.192745 L -4.483245 -41.192745 L -3.398285 -53.975218 C -3.10241 -57.463729 -4.161402 -60.759942 -6.380384 -63.257289 C -8.592148 -65.744442 -11.668788 -67.113995 -15.044167 -67.113995 M -9.834935 -22.679328 L 11.719884 -22.679328 C 12.691359 -22.679328 13.617742 -22.259064 14.27442 -21.520842 C 14.930188 -20.782585 15.255823 -19.794984 15.171032 -18.797364 L 13.285793 3.420074 C 13.128842 5.264713 11.630578 6.679104 9.834647 6.679104 L -11.720175 6.679104 C -12.691654 6.679104 -13.618037 6.259581 -14.274712 5.521358 C -14.930483 4.783101 -15.256114 3.795888 -15.171328 2.798268 L -13.285008 -19.420263 C -13.128058 -21.264055 -11.62997 -22.679328 -9.834935 -22.679328"/><g transform="scale(0.3333333333333333,0.3333333333333333) scale(3,3)" fill="" stroke=""/></g></g></g></svg>