<svg version="1.1" xmlns="http://www.w3.org/2000/svg" xmlns:xlink="http://www.w3.org/1999/xlink" width="286" height="406"><defs/><g><g><path fill="#e60000" stroke="#e60000" paint-order="fill stroke markers" d=" M 4 49.76 L 4 356.24 Q 0 406 49.76 402 L 236.24 402 Q 286 406 282 356.24 L 282 49.76 Q 286 0 236.24 4 L 49.76 4 Q 0 0 4 49.76" fill-opacity="0.3" stroke-miterlimit="10" stroke-width="8" stroke-dasharray=""/></g><g transform="translate(143,203) scale(1,1)" fill="#e60000" stroke="black" stroke-linejoin="round" stroke-miterlimit="10" stroke-width="3" stroke-dasharray=""><path fill="" stroke="" d=""/><g transform="scale(3,3) translate(-40.903844,-80.253155)"><path fill="" stroke="" d=" M 47.530531 88.39269 C 29.757962 90.07021 31.193616 78.98785 34.277276 72.11126 C 52.049847 70.433711 50.616495 81.5161 47.530531 88.39269 M 38.201088 59.405974 C 36.488459 59.405974 35.161286 62.901259 34.279579 66.24217 C 11.602243 72.595989 17.005567 101.10507 43.609027 101.10033 C 45.321658 101.10033 46.646522 97.60497 47.530531 94.26178 C 70.20557 87.91267 64.799917 59.401233 38.201088 59.405974"/><g transform="scale(0.3333333333333333,0.3333333333333333)" fill="" stroke=""/></g></g></g></svg>