<svg version="1.1" xmlns="http://www.w3.org/2000/svg" xmlns:xlink="http://www.w3.org/1999/xlink" width="286" height="406"><defs/><g><g><path fill="white" stroke="none" paint-order="stroke fill markers" d=" M 4 26.88 L 4 379.12 Q 0 406 26.88 402 L 259.12 402 Q 286 406 282 379.12 L 282 26.88 Q 286 0 259.12 4 L 26.88 4 Q 0 0 4 26.88"/></g><g><path fill="#00cccc" stroke="#00cccc" paint-order="fill stroke markers" d=" M 4 26.88 L 4 379.12 Q 0 406 26.88 402 L 259.12 402 Q 286 406 282 379.12 L 282 26.88 Q 286 0 259.12 4 L 26.88 4 Q 0 0 4 26.88" fill-opacity="0.3" stroke-miterlimit="10" stroke-width="8" stroke-opacity="0.7" stroke-dasharray=""/></g><g><g><text fill="none" stroke="black" font-family="Arial" font-size="96pt" font-style="normal" font-weight="bold" text-decoration="normal" x="19" y="110" text-anchor="start" dominant-baseline="alphabetic" stroke-linejoin="round" stroke-miterlimit="10" stroke-width="8" stroke-dasharray="">5</text><text fill="#00cccc" stroke="none" font-family="Arial" font-size="96pt" font-style="normal" font-weight="bold" text-decoration="normal" x="19" y="110" text-anchor="start" dominant-baseline="alphabetic">5</text></g></g><g transform="translate(286,406) rotate(180,0,0)"><g><text fill="none" stroke="black" font-family="Arial" font-size="96pt" font-style="normal" font-weight="bold" text-decoration="normal" x="19" y="110" text-anchor="start" dominant-baseline="alphabetic" stroke-linejoin="round" stroke-miterlimit="10" stroke-width="8" stroke-dasharray="">5</text><text fill="#00cccc" stroke="none" font-family="Arial" font-size="96pt" font-style="normal" font-weight="bold" text-decoration="normal" x="19" y="110" text-anchor="start" dominant-baseline="alphabetic">5</text></g></g><g transform="translate(143,203) translate(0,-120) scale(0.4,0.4)" fill="#00cccc" stroke="black" stroke-linejoin="round" stroke-miterlimit="10" stroke-width="3" stroke-dasharray=""><path fill="" stroke="" d=""/><g transform="scale(3,3) translate(-74.15539,-82.208377) matrix(-3.299668,1.133672,-1.200981,-3.114738,480.92254,360.60904) matrix(0.282222,0,0,0.282222,74.155397,112.54177)"><path fill="" stroke="" d=" M 28.347656 0.3125 C 27.66615 0.315561 26.899434 0.557678 26.056641 1.035156 C 24.331812 2.012365 22.721615 3.689235 20.039062 7.302734 C 16.394722 12.211809 16.585492 12.102236 9.349609 13.371094 C 3.625216 14.374948 1.072572 15.300497 0.476563 16.585938 C -0.119634 17.871768 0.743099 19.083487 5.179688 23.181641 C 8.308318 26.071597 9.246576 27.098502 9.529297 27.947266 C 9.727531 28.542435 10.004965 31.05807 10.146484 33.537109 C 10.434059 38.574062 10.889828 40.396472 12.142578 41.515625 L 12.142578 41.517625 C 13.038688 42.318129 14.019224 42.435651 15.210938 41.882859 C 16.474513 41.296867 19.547233 38.243507 22.160156 34.978563 C 24.800264 31.679638 26.328861 30.274372 27.921875 29.679735 C 28.475513 29.473089 30.77206 28.951228 33.025391 28.521531 C 38.227387 27.529583 39.684318 27.140709 40.884766 26.418016 C 43.257594 24.989461 42.659074 23.724034 37.429688 19.119188 C 35.287418 17.23272 33.308731 15.289797 33.033203 14.802734 C 32.651245 14.127522 32.480019 12.921518 32.308594 9.722656 C 32.011232 4.173873 31.555509 2.353547 30.128906 1.017578 C 29.626019 0.545574 29.029163 0.309439 28.347656 0.3125 M 23.660156 14.164062 C 23.891052 14.162862 24.093294 14.243072 24.263672 14.402344 C 24.747004 14.85493 24.901206 15.47159 25.001953 17.351562 C 25.060063 18.435318 25.118645 18.84351 25.248047 19.072266 C 25.341377 19.237384 26.012481 19.89605 26.738281 20.535156 C 28.510006 22.095274 28.712119 22.523797 27.908203 23.007812 C 27.501492 23.252655 27.008535 23.38462 25.246094 23.720703 C 24.482663 23.866333 23.703201 24.043407 23.515625 24.113281 C 22.975912 24.314541 22.458926 24.790538 21.564453 25.908203 C 20.679193 27.014388 19.63904 28.04948 19.210938 28.248047 C 18.807185 28.435488 18.473523 28.394464 18.169922 28.123047 C 17.746338 27.743791 17.591485 27.126937 17.494141 25.421875 C 17.446201 24.582005 17.352337 23.728993 17.285156 23.527344 C 17.189386 23.239982 16.870531 22.891231 15.810547 21.912109 C 14.307426 20.523665 14.014804 20.113384 14.216797 19.677734 C 14.41873 19.242227 15.285177 18.92993 17.224609 18.589844 C 19.676131 18.159934 19.610992 18.196431 20.845703 16.533203 C 21.754551 15.308955 22.300389 14.73929 22.884766 14.408203 C 23.170303 14.246451 23.429261 14.165214 23.660156 14.164062"/><g transform="scale(0.3333333333333333,0.3333333333333333)" fill="" stroke=""/></g></g><g transform="translate(143,203) translate(0,120) scale(0.4,0.4) rotate(180,0,0)" fill="#00cccc" stroke="black" stroke-linejoin="round" stroke-miterlimit="10" stroke-width="3" stroke-dasharray=""><path fill="" stroke="" d=""/><g transform="scale(3,3) translate(-74.15539,-82.208377) matrix(-3.299668,1.133672,-1.200981,-3.114738,480.92254,360.60904) matrix(0.282222,0,0,0.282222,74.155397,112.54177)"><path fill="" stroke="" d=" M 28.347656 0.3125 C 27.66615 0.315561 26.899434 0.557678 26.056641 1.035156 C 24.331812 2.012365 22.721615 3.689235 20.039062 7.302734 C 16.394722 12.211809 16.585492 12.102236 9.349609 13.371094 C 3.625216 14.374948 1.072572 15.300497 0.476563 16.585938 C -0.119634 17.871768 0.743099 19.083487 5.179688 23.181641 C 8.308318 26.071597 9.246576 27.098502 9.529297 27.947266 C 9.727531 28.542435 10.004965 31.05807 10.146484 33.537109 C 10.434059 38.574062 10.889828 40.396472 12.142578 41.515625 L 12.142578 41.517625 C 13.038688 42.318129 14.019224 42.435651 15.210938 41.882859 C 16.474513 41.296867 19.547233 38.243507 22.160156 34.978563 C 24.800264 31.679638 26.328861 30.274372 27.921875 29.679735 C 28.475513 29.473089 30.77206 28.951228 33.025391 28.521531 C 38.227387 27.529583 39.684318 27.140709 40.884766 26.418016 C 43.257594 24.989461 42.659074 23.724034 37.429688 19.119188 C 35.287418 17.23272 33.308731 15.289797 33.033203 14.802734 C 32.651245 14.127522 32.480019 12.921518 32.308594 9.722656 C 32.011232 4.173873 31.555509 2.353547 30.128906 1.017578 C 29.626019 0.545574 29.029163 0.309439 28.347656 0.3125 M 23.660156 14.164062 C 23.891052 14.162862 24.093294 14.243072 24.263672 14.402344 C 24.747004 14.85493 24.901206 15.47159 25.001953 17.351562 C 25.060063 18.435318 25.118645 18.84351 25.248047 19.072266 C 25.341377 19.237384 26.012481 19.89605 26.738281 20.535156 C 28.510006 22.095274 28.712119 22.523797 27.908203 23.007812 C 27.501492 23.252655 27.008535 23.38462 25.246094 23.720703 C 24.482663 23.866333 23.703201 24.043407 23.515625 24.113281 C 22.975912 24.314541 22.458926 24.790538 21.564453 25.908203 C 20.679193 27.014388 19.63904 28.04948 19.210938 28.248047 C 18.807185 28.435488 18.473523 28.394464 18.169922 28.123047 C 17.746338 27.743791 17.591485 27.126937 17.494141 25.421875 C 17.446201 24.582005 17.352337 23.728993 17.285156 23.527344 C 17.189386 23.239982 16.870531 22.891231 15.810547 21.912109 C 14.307426 20.523665 14.014804 20.113384 14.216797 19.677734 C 14.41873 19.242227 15.285177 18.92993 17.224609 18.589844 C 19.676131 18.159934 19.610992 18.196431 20.845703 16.533203 C 21.754551 15.308955 22.300389 14.73929 22.884766 14.408203 C 23.170303 14.246451 23.429261 14.165214 23.660156 14.164062"/><g transform="scale(0.3333333333333333,0.3333333333333333)" fill="" stroke=""/></g></g><g transform="translate(143,203) translate(-90,0) scale(0.4,0.4)" fill="#00cccc" stroke="black" stroke-linejoin="round" stroke-miterlimit="10" stroke-width="3" stroke-dasharray=""><path fill="" stroke="" d=""/><g transform="scale(3,3) translate(-74.15539,-82.208377) matrix(-3.299668,1.133672,-1.200981,-3.114738,480.92254,360.60904) matrix(0.282222,0,0,0.282222,74.155397,112.54177)"><path fill="" stroke="" d=" M 28.347656 0.3125 C 27.66615 0.315561 26.899434 0.557678 26.056641 1.035156 C 24.331812 2.012365 22.721615 3.689235 20.039062 7.302734 C 16.394722 12.211809 16.585492 12.102236 9.349609 13.371094 C 3.625216 14.374948 1.072572 15.300497 0.476563 16.585938 C -0.119634 17.871768 0.743099 19.083487 5.179688 23.181641 C 8.308318 26.071597 9.246576 27.098502 9.529297 27.947266 C 9.727531 28.542435 10.004965 31.05807 10.146484 33.537109 C 10.434059 38.574062 10.889828 40.396472 12.142578 41.515625 L 12.142578 41.517625 C 13.038688 42.318129 14.019224 42.435651 15.210938 41.882859 C 16.474513 41.296867 19.547233 38.243507 22.160156 34.978563 C 24.800264 31.679638 26.328861 30.274372 27.921875 29.679735 C 28.475513 29.473089 30.77206 28.951228 33.025391 28.521531 C 38.227387 27.529583 39.684318 27.140709 40.884766 26.418016 C 43.257594 24.989461 42.659074 23.724034 37.429688 19.119188 C 35.287418 17.23272 33.308731 15.289797 33.033203 14.802734 C 32.651245 14.127522 32.480019 12.921518 32.308594 9.722656 C 32.011232 4.173873 31.555509 2.353547 30.128906 1.017578 C 29.626019 0.545574 29.029163 0.309439 28.347656 0.3125 M 23.660156 14.164062 C 23.891052 14.162862 24.093294 14.243072 24.263672 14.402344 C 24.747004 14.85493 24.901206 15.47159 25.001953 17.351562 C 25.060063 18.435318 25.118645 18.84351 25.248047 19.072266 C 25.341377 19.237384 26.012481 19.89605 26.738281 20.535156 C 28.510006 22.095274 28.712119 22.523797 27.908203 23.007812 C 27.501492 23.252655 27.008535 23.38462 25.246094 23.720703 C 24.482663 23.866333 23.703201 24.043407 23.515625 24.113281 C 22.975912 24.314541 22.458926 24.790538 21.564453 25.908203 C 20.679193 27.014388 19.63904 28.04948 19.210938 28.248047 C 18.807185 28.435488 18.473523 28.394464 18.169922 28.123047 C 17.746338 27.743791 17.591485 27.126937 17.494141 25.421875 C 17.446201 24.582005 17.352337 23.728993 17.285156 23.527344 C 17.189386 23.239982 16.870531 22.891231 15.810547 21.912109 C 14.307426 20.523665 14.014804 20.113384 14.216797 19.677734 C 14.41873 19.242227 15.285177 18.92993 17.224609 18.589844 C 19.676131 18.159934 19.610992 18.196431 20.845703 16.533203 C 21.754551 15.308955 22.300389 14.73929 22.884766 14.408203 C 23.170303 14.246451 23.429261 14.165214 23.660156 14.164062"/><g transform="scale(0.3333333333333333,0.3333333333333333)" fill="" stroke=""/></g></g><g transform="translate(143,203) translate(90,0) scale(0.4,0.4) rotate(180,0,0)" fill="#00cccc" stroke="black" stroke-linejoin="round" stroke-miterlimit="10" stroke-width="3" stroke-dasharray=""><path fill="" stroke="" d=""/><g transform="scale(3,3) translate(-74.15539,-82.208377) matrix(-3.299668,1.133672,-1.200981,-3.114738,480.92254,360.60904) matrix(0.282222,0,0,0.282222,74.155397,112.54177)"><path fill="" stroke="" d=" M 28.347656 0.3125 C 27.66615 0.315561 26.899434 0.557678 26.056641 1.035156 C 24.331812 2.012365 22.721615 3.689235 20.039062 7.302734 C 16.394722 12.211809 16.585492 12.102236 9.349609 13.371094 C 3.625216 14.374948 1.072572 15.300497 0.476563 16.585938 C -0.119634 17.871768 0.743099 19.083487 5.179688 23.181641 C 8.308318 26.071597 9.246576 27.098502 9.529297 27.947266 C 9.727531 28.542435 10.004965 31.05807 10.146484 33.537109 C 10.434059 38.574062 10.889828 40.396472 12.142578 41.515625 L 12.142578 41.517625 C 13.038688 42.318129 14.019224 42.435651 15.210938 41.882859 C 16.474513 41.296867 19.547233 38.243507 22.160156 34.978563 C 24.800264 31.679638 26.328861 30.274372 27.921875 29.679735 C 28.475513 29.473089 30.77206 28.951228 33.025391 28.521531 C 38.227387 27.529583 39.684318 27.140709 40.884766 26.418016 C 43.257594 24.989461 42.659074 23.724034 37.429688 19.119188 C 35.287418 17.23272 33.308731 15.289797 33.033203 14.802734 C 32.651245 14.127522 32.480019 12.921518 32.308594 9.722656 C 32.011232 4.173873 31.555509 2.353547 30.128906 1.017578 C 29.626019 0.545574 29.029163 0.309439 28.347656 0.3125 M 23.660156 14.164062 C 23.891052 14.162862 24.093294 14.243072 24.263672 14.402344 C 24.747004 14.85493 24.901206 15.47159 25.001953 17.351562 C 25.060063 18.435318 25.118645 18.84351 25.248047 19.072266 C 25.341377 19.237384 26.012481 19.89605 26.738281 20.535156 C 28.510006 22.095274 28.712119 22.523797 27.908203 23.007812 C 27.501492 23.252655 27.008535 23.38462 25.246094 23.720703 C 24.482663 23.866333 23.703201 24.043407 23.515625 24.113281 C 22.975912 24.314541 22.458926 24.790538 21.564453 25.908203 C 20.679193 27.014388 19.63904 28.04948 19.210938 28.248047 C 18.807185 28.435488 18.473523 28.394464 18.169922 28.123047 C 17.746338 27.743791 17.591485 27.126937 17.494141 25.421875 C 17.446201 24.582005 17.352337 23.728993 17.285156 23.527344 C 17.189386 23.239982 16.870531 22.891231 15.810547 21.912109 C 14.307426 20.523665 14.014804 20.113384 14.216797 19.677734 C 14.41873 19.242227 15.285177 18.92993 17.224609 18.589844 C 19.676131 18.159934 19.610992 18.196431 20.845703 16.533203 C 21.754551 15.308955 22.300389 14.73929 22.884766 14.408203 C 23.170303 14.246451 23.429261 14.165214 23.660156 14.164062"/><g transform="scale(0.3333333333333333,0.3333333333333333)" fill="" stroke=""/></g></g><g transform="translate(143,203) scale(0.48,0.48)" fill="#00cccc" stroke="black" stroke-linejoin="round" stroke-miterlimit="10" stroke-width="3" stroke-dasharray=""><path fill="" stroke="" d=""/><g transform="scale(3,3) translate(-74.15539,-82.208377) matrix(-3.299668,1.133672,-1.200981,-3.114738,480.92254,360.60904) matrix(0.282222,0,0,0.282222,74.155397,112.54177)"><path fill="" stroke="" d=" M 28.347656 0.3125 C 27.66615 0.315561 26.899434 0.557678 26.056641 1.035156 C 24.331812 2.012365 22.721615 3.689235 20.039062 7.302734 C 16.394722 12.211809 16.585492 12.102236 9.349609 13.371094 C 3.625216 14.374948 1.072572 15.300497 0.476563 16.585938 C -0.119634 17.871768 0.743099 19.083487 5.179688 23.181641 C 8.308318 26.071597 9.246576 27.098502 9.529297 27.947266 C 9.727531 28.542435 10.004965 31.05807 10.146484 33.537109 C 10.434059 38.574062 10.889828 40.396472 12.142578 41.515625 L 12.142578 41.517625 C 13.038688 42.318129 14.019224 42.435651 15.210938 41.882859 C 16.474513 41.296867 19.547233 38.243507 22.160156 34.978563 C 24.800264 31.679638 26.328861 30.274372 27.921875 29.679735 C 28.475513 29.473089 30.77206 28.951228 33.025391 28.521531 C 38.227387 27.529583 39.684318 27.140709 40.884766 26.418016 C 43.257594 24.989461 42.659074 23.724034 37.429688 19.119188 C 35.287418 17.23272 33.308731 15.289797 33.033203 14.802734 C 32.651245 14.127522 32.480019 12.921518 32.308594 9.722656 C 32.011232 4.173873 31.555509 2.353547 30.128906 1.017578 C 29.626019 0.545574 29.029163 0.309439 28.347656 0.3125 M 23.660156 14.164062 C 23.891052 14.162862 24.093294 14.243072 24.263672 14.402344 C 24.747004 14.85493 24.901206 15.47159 25.001953 17.351562 C 25.060063 18.435318 25.118645 18.84351 25.248047 19.072266 C 25.341377 19.237384 26.012481 19.89605 26.738281 20.535156 C 28.510006 22.095274 28.712119 22.523797 27.908203 23.007812 C 27.501492 23.252655 27.008535 23.38462 25.246094 23.720703 C 24.482663 23.866333 23.703201 24.043407 23.515625 24.113281 C 22.975912 24.314541 22.458926 24.790538 21.564453 25.908203 C 20.679193 27.014388 19.63904 28.04948 19.210938 28.248047 C 18.807185 28.435488 18.473523 28.394464 18.169922 28.123047 C 17.746338 27.743791 17.591485 27.126937 17.494141 25.421875 C 17.446201 24.582005 17.352337 23.728993 17.285156 23.527344 C 17.189386 23.239982 16.870531 22.891231 15.810547 21.912109 C 14.307426 20.523665 14.014804 20.113384 14.216797 19.677734 C 14.41873 19.242227 15.285177 18.92993 17.224609 18.589844 C 19.676131 18.159934 19.610992 18.196431 20.845703 16.533203 C 21.754551 15.308955 22.300389 14.73929 22.884766 14.408203 C 23.170303 14.246451 23.429261 14.165214 23.660156 14.164062"/><g transform="scale(0.3333333333333333,0.3333333333333333)" fill="" stroke=""/></g></g></g></svg>