<svg version="1.1" xmlns="http://www.w3.org/2000/svg" xmlns:xlink="http://www.w3.org/1999/xlink" width="286" height="406"><defs/><g><g><path fill="white" stroke="none" paint-order="stroke fill markers" d=" M 4 26.88 L 4 379.12 Q 0 406 26.88 402 L 259.12 402 Q 286 406 282 379.12 L 282 26.88 Q 286 0 259.12 4 L 26.88 4 Q 0 0 4 26.88"/></g><g><path fill="#d9d9d9" stroke="#d9d9d9" paint-order="fill stroke markers" d=" M 4 26.88 L 4 379.12 Q 0 406 26.88 402 L 259.12 402 Q 286 406 282 379.12 L 282 26.88 Q 286 0 259.12 4 L 26.88 4 Q 0 0 4 26.88" fill-opacity="0.3" stroke-miterlimit="10" stroke-width="8" stroke-opacity="0.7" stroke-dasharray=""/></g><g transform="translate(143,203) scale(1.2000000000000002,1.2000000000000002) scale(0.25,0.25)" fill="#d9d9d9" fill-opacity="0.1" stroke="black" stroke-linejoin="round" stroke-miterlimit="10" stroke-width="3" stroke-opacity="0.1" stroke-dasharray=""><path fill="" stroke="" d=""/><g transform="scale(3,3) translate(-414.89382,-203.53619)"><path fill="" stroke="" d=" M 374.94629 141.08653 C 340.46447 163.1565 330.40413 209.01371 352.47655 243.48828 C 374.54945 277.96545 420.41039 288.02439 454.89222 265.95519 C 477.02572 251.7884 489.04288 227.83433 489.01138 203.37139 C 485.2623 214.50946 477.9108 224.51267 467.2415 231.3414 C 442.36279 247.26542 409.21842 239.99458 393.29388 215.11947 C 377.36761 190.24411 384.68348 157.17502 409.56219 141.24994 C 418.14155 135.75865 427.65037 133.06436 437.13906 132.85839 C 416.92967 126.51122 394.18138 128.77283 374.94362 141.0852"/><g transform="scale(0.3333333333333333,0.3333333333333333) scale(4,4)" fill="" stroke=""/></g></g></g></svg>