<svg version="1.1" xmlns="http://www.w3.org/2000/svg" xmlns:xlink="http://www.w3.org/1999/xlink" width="286" height="406"><defs/><g><g><path fill="white" stroke="none" paint-order="stroke fill markers" d=" M 4 38.32 L 4 367.68 Q 0 406 38.32 402 L 247.68 402 Q 286 406 282 367.68 L 282 38.32 Q 286 0 247.68 4 L 38.32 4 Q 0 0 4 38.32"/></g><g><path fill="#e6e600" stroke="#e6e600" paint-order="fill stroke markers" d=" M 4 38.32 L 4 367.68 Q 0 406 38.32 402 L 247.68 402 Q 286 406 282 367.68 L 282 38.32 Q 286 0 247.68 4 L 38.32 4 Q 0 0 4 38.32" fill-opacity="0.3" stroke-miterlimit="10" stroke-width="8" stroke-opacity="0.7" stroke-dasharray=""/></g><g><g><text fill="none" stroke="black" font-family="Arial" font-size="96pt" font-style="normal" font-weight="bold" text-decoration="normal" x="19" y="110" text-anchor="start" dominant-baseline="alphabetic" stroke-linejoin="round" stroke-miterlimit="10" stroke-width="8" stroke-dasharray="">5</text><text fill="#e6e600" stroke="none" font-family="Arial" font-size="96pt" font-style="normal" font-weight="bold" text-decoration="normal" x="19" y="110" text-anchor="start" dominant-baseline="alphabetic">5</text></g></g><g transform="translate(286,406) rotate(180,0,0)"><g><text fill="none" stroke="black" font-family="Arial" font-size="96pt" font-style="normal" font-weight="bold" text-decoration="normal" x="19" y="110" text-anchor="start" dominant-baseline="alphabetic" stroke-linejoin="round" stroke-miterlimit="10" stroke-width="8" stroke-dasharray="">5</text><text fill="#e6e600" stroke="none" font-family="Arial" font-size="96pt" font-style="normal" font-weight="bold" text-decoration="normal" x="19" y="110" text-anchor="start" dominant-baseline="alphabetic">5</text></g></g><g transform="translate(143,203) translate(0,-120) scale(0.4,0.4)" fill="#e6e600" stroke="black" stroke-linejoin="round" stroke-miterlimit="10" stroke-width="3" stroke-dasharray=""><path fill="" stroke="" d=""/><g transform="scale(3,3) translate(-58.029065,-70.265748)"><path fill="" stroke="" d=" M 48.471374 76.245007 C 52.478308 74.048764 57.340783 70.758733 60.960015 66.9381 C 60.918765 71.616441 61.423545 77.451433 63.024126 82.374519 C 59.019361 79.96819 53.639232 77.395132 48.471374 76.245007 M 78.213664 83.015659 C 74.748208 79.849062 67.217334 70.373217 64.219708 62.72108 C 64.353955 62.49395 64.505635 62.265928 64.629079 62.034484 C 64.629079 62.034484 66.385639 60.000655 63.054465 55.839957 C 59.727624 51.679247 56.955259 51.30884 56.214513 51.402032 C 55.473773 51.495022 54.735194 51.633868 54.460129 52.881296 C 53.420489 57.587859 48.768108 69.322751 43.468126 75.640741 C 43.271019 75.640741 43.069626 75.626481 42.876825 75.633641 C 42.876825 75.633641 40.236578 75.126788 38.300255 80.091092 C 36.359599 85.053189 37.4274 87.641479 37.875753 88.234939 C 38.324091 88.830219 38.815757 89.402319 40.032999 89.016809 C 44.609566 87.567769 57.020243 85.739789 65.144575 87.138969 C 65.166335 87.171069 65.183225 87.212469 65.205475 87.244869 C 65.205475 87.244869 66.084837 89.785519 71.354499 88.984149 C 76.622002 88.180599 78.326561 85.962679 78.618964 85.278249 C 78.90703 84.591659 79.16044 83.876899 78.213916 83.017049"/><g transform="scale(0.3333333333333333,0.3333333333333333)" fill="" stroke=""/></g></g><g transform="translate(143,203) translate(0,120) scale(0.4,0.4) rotate(180,0,0)" fill="#e6e600" stroke="black" stroke-linejoin="round" stroke-miterlimit="10" stroke-width="3" stroke-dasharray=""><path fill="" stroke="" d=""/><g transform="scale(3,3) translate(-58.029065,-70.265748)"><path fill="" stroke="" d=" M 48.471374 76.245007 C 52.478308 74.048764 57.340783 70.758733 60.960015 66.9381 C 60.918765 71.616441 61.423545 77.451433 63.024126 82.374519 C 59.019361 79.96819 53.639232 77.395132 48.471374 76.245007 M 78.213664 83.015659 C 74.748208 79.849062 67.217334 70.373217 64.219708 62.72108 C 64.353955 62.49395 64.505635 62.265928 64.629079 62.034484 C 64.629079 62.034484 66.385639 60.000655 63.054465 55.839957 C 59.727624 51.679247 56.955259 51.30884 56.214513 51.402032 C 55.473773 51.495022 54.735194 51.633868 54.460129 52.881296 C 53.420489 57.587859 48.768108 69.322751 43.468126 75.640741 C 43.271019 75.640741 43.069626 75.626481 42.876825 75.633641 C 42.876825 75.633641 40.236578 75.126788 38.300255 80.091092 C 36.359599 85.053189 37.4274 87.641479 37.875753 88.234939 C 38.324091 88.830219 38.815757 89.402319 40.032999 89.016809 C 44.609566 87.567769 57.020243 85.739789 65.144575 87.138969 C 65.166335 87.171069 65.183225 87.212469 65.205475 87.244869 C 65.205475 87.244869 66.084837 89.785519 71.354499 88.984149 C 76.622002 88.180599 78.326561 85.962679 78.618964 85.278249 C 78.90703 84.591659 79.16044 83.876899 78.213916 83.017049"/><g transform="scale(0.3333333333333333,0.3333333333333333)" fill="" stroke=""/></g></g><g transform="translate(143,203) translate(-90,0) scale(0.4,0.4)" fill="#e6e600" stroke="black" stroke-linejoin="round" stroke-miterlimit="10" stroke-width="3" stroke-dasharray=""><path fill="" stroke="" d=""/><g transform="scale(3,3) translate(-58.029065,-70.265748)"><path fill="" stroke="" d=" M 48.471374 76.245007 C 52.478308 74.048764 57.340783 70.758733 60.960015 66.9381 C 60.918765 71.616441 61.423545 77.451433 63.024126 82.374519 C 59.019361 79.96819 53.639232 77.395132 48.471374 76.245007 M 78.213664 83.015659 C 74.748208 79.849062 67.217334 70.373217 64.219708 62.72108 C 64.353955 62.49395 64.505635 62.265928 64.629079 62.034484 C 64.629079 62.034484 66.385639 60.000655 63.054465 55.839957 C 59.727624 51.679247 56.955259 51.30884 56.214513 51.402032 C 55.473773 51.495022 54.735194 51.633868 54.460129 52.881296 C 53.420489 57.587859 48.768108 69.322751 43.468126 75.640741 C 43.271019 75.640741 43.069626 75.626481 42.876825 75.633641 C 42.876825 75.633641 40.236578 75.126788 38.300255 80.091092 C 36.359599 85.053189 37.4274 87.641479 37.875753 88.234939 C 38.324091 88.830219 38.815757 89.402319 40.032999 89.016809 C 44.609566 87.567769 57.020243 85.739789 65.144575 87.138969 C 65.166335 87.171069 65.183225 87.212469 65.205475 87.244869 C 65.205475 87.244869 66.084837 89.785519 71.354499 88.984149 C 76.622002 88.180599 78.326561 85.962679 78.618964 85.278249 C 78.90703 84.591659 79.16044 83.876899 78.213916 83.017049"/><g transform="scale(0.3333333333333333,0.3333333333333333)" fill="" stroke=""/></g></g><g transform="translate(143,203) translate(90,0) scale(0.4,0.4) rotate(180,0,0)" fill="#e6e600" stroke="black" stroke-linejoin="round" stroke-miterlimit="10" stroke-width="3" stroke-dasharray=""><path fill="" stroke="" d=""/><g transform="scale(3,3) translate(-58.029065,-70.265748)"><path fill="" stroke="" d=" M 48.471374 76.245007 C 52.478308 74.048764 57.340783 70.758733 60.960015 66.9381 C 60.918765 71.616441 61.423545 77.451433 63.024126 82.374519 C 59.019361 79.96819 53.639232 77.395132 48.471374 76.245007 M 78.213664 83.015659 C 74.748208 79.849062 67.217334 70.373217 64.219708 62.72108 C 64.353955 62.49395 64.505635 62.265928 64.629079 62.034484 C 64.629079 62.034484 66.385639 60.000655 63.054465 55.839957 C 59.727624 51.679247 56.955259 51.30884 56.214513 51.402032 C 55.473773 51.495022 54.735194 51.633868 54.460129 52.881296 C 53.420489 57.587859 48.768108 69.322751 43.468126 75.640741 C 43.271019 75.640741 43.069626 75.626481 42.876825 75.633641 C 42.876825 75.633641 40.236578 75.126788 38.300255 80.091092 C 36.359599 85.053189 37.4274 87.641479 37.875753 88.234939 C 38.324091 88.830219 38.815757 89.402319 40.032999 89.016809 C 44.609566 87.567769 57.020243 85.739789 65.144575 87.138969 C 65.166335 87.171069 65.183225 87.212469 65.205475 87.244869 C 65.205475 87.244869 66.084837 89.785519 71.354499 88.984149 C 76.622002 88.180599 78.326561 85.962679 78.618964 85.278249 C 78.90703 84.591659 79.16044 83.876899 78.213916 83.017049"/><g transform="scale(0.3333333333333333,0.3333333333333333)" fill="" stroke=""/></g></g><g transform="translate(143,203) scale(0.48,0.48)" fill="#e6e600" stroke="black" stroke-linejoin="round" stroke-miterlimit="10" stroke-width="3" stroke-dasharray=""><path fill="" stroke="" d=""/><g transform="scale(3,3) translate(-58.029065,-70.265748)"><path fill="" stroke="" d=" M 48.471374 76.245007 C 52.478308 74.048764 57.340783 70.758733 60.960015 66.9381 C 60.918765 71.616441 61.423545 77.451433 63.024126 82.374519 C 59.019361 79.96819 53.639232 77.395132 48.471374 76.245007 M 78.213664 83.015659 C 74.748208 79.849062 67.217334 70.373217 64.219708 62.72108 C 64.353955 62.49395 64.505635 62.265928 64.629079 62.034484 C 64.629079 62.034484 66.385639 60.000655 63.054465 55.839957 C 59.727624 51.679247 56.955259 51.30884 56.214513 51.402032 C 55.473773 51.495022 54.735194 51.633868 54.460129 52.881296 C 53.420489 57.587859 48.768108 69.322751 43.468126 75.640741 C 43.271019 75.640741 43.069626 75.626481 42.876825 75.633641 C 42.876825 75.633641 40.236578 75.126788 38.300255 80.091092 C 36.359599 85.053189 37.4274 87.641479 37.875753 88.234939 C 38.324091 88.830219 38.815757 89.402319 40.032999 89.016809 C 44.609566 87.567769 57.020243 85.739789 65.144575 87.138969 C 65.166335 87.171069 65.183225 87.212469 65.205475 87.244869 C 65.205475 87.244869 66.084837 89.785519 71.354499 88.984149 C 76.622002 88.180599 78.326561 85.962679 78.618964 85.278249 C 78.90703 84.591659 79.16044 83.876899 78.213916 83.017049"/><g transform="scale(0.3333333333333333,0.3333333333333333)" fill="" stroke=""/></g></g></g></svg>