<!-- generated via image_generator script in this repo -->
<?xml version="1.0" encoding="utf-8" ?>
<svg xmlns="http://www.w3.org/2000/svg"  xmlns:xlink="http://www.w3.org/1999/xlink" baseProfile="full" height="450" version="1.1" viewBox="0 0 790 450" width="790">
  <defs>
    <filter id="shadow">
      <feOffset in="SourceAlpha" dx="2" dy="2" result="offsetblur"/>
      <feComponentTransfer result="shadow">
        <feFuncA type="linear" slope="0.5"/>
      </feComponentTransfer>
      <feMorphology in="SourceAlpha" operator="dilate" radius="1" result="border"/>
      <feMerge> 
        <feMergeNode in="shadow"/>
        <feMergeNode in="border"/>
        <feMergeNode in="SourceGraphic"/>
      </feMerge>
    </filter>
  </defs>
  <text dy="30" fill="#000001" font-size="24" x="20">Double Order Chop Move</text>
  <image height="100" width="70" x="0" xlink:href="/img/pieces/back-r.png" y="50"/>
  <image height="100" width="70" x="72" xlink:href="/img/pieces/back-y.png" y="50"/>
  <image height="100" width="70" x="144" xlink:href="/img/pieces/back-g.png" y="50"/>
  <image height="100" width="70" x="216" xlink:href="/img/pieces/back-b.png" y="50"/>
  <image height="100" width="70" x="288" xlink:href="/img/pieces/back-p.png" y="50"/>
  <text dy="50" fill="#000001" x="360" y="0">Alice</text>
  <svg height="100" width="70" x="420" y="10">
    <defs/>
    <rect fill="gray" height="100" width="70" x="0" y="0"/>
    <svg height="20" width="14.0" x="0.0" y="80">
      <defs/>
      <text dominant-baseline="central" fill="white" style="filter: url(#shadow)" text-anchor="middle" x="50%" y="50%">1</text>
    </svg>
    <svg height="20" width="14.0" x="14.0" y="80">
      <defs/>
      <text dominant-baseline="central" fill="white" style="filter: url(#shadow)" text-anchor="middle" x="50%" y="50%">2</text>
    </svg>
    <svg height="20" width="14.0" x="28.0" y="80">
      <defs/>
      <text dominant-baseline="central" fill="white" style="filter: url(#shadow)" text-anchor="middle" x="50%" y="50%">3</text>
    </svg>
    <svg height="20" width="14.0" x="42.0" y="80">
      <defs/>
      <text dominant-baseline="central" fill="white" style="filter: url(#shadow)" text-anchor="middle" x="50%" y="50%">4</text>
    </svg>
    <svg height="20" width="14.0" x="56.0" y="80">
      <defs/>
      <text dominant-baseline="central" fill="white" style="filter: url(#shadow)" text-anchor="middle" x="50%" y="50%">5</text>
    </svg>
    <svg height="100" viewBox="-35 -50 70 100" width="70" x="0" y="0">
      <defs/>
      <image height="12" style="filter: url(#shadow)" transform="translate(-0.0, -20.0)" width="12" x="-6" xlink:href="/img/pieces/pip-r.svg" y="-6"/>
      <image height="12" style="filter: url(#shadow)" transform="translate(-19.02113032590307, -6.180339887498949)" width="12" x="-6" xlink:href="/img/pieces/pip-y.svg" y="-6"/>
      <image height="12" style="filter: url(#shadow)" transform="translate(-11.755705045849465, 16.180339887498945)" width="12" x="-6" xlink:href="/img/pieces/pip-g.svg" y="-6"/>
      <image height="12" style="filter: url(#shadow)" transform="translate(11.75570504584946, 16.180339887498953)" width="12" x="-6" xlink:href="/img/pieces/pip-b.svg" y="-6"/>
      <image height="12" style="filter: url(#shadow)" transform="translate(19.021130325903073, -6.180339887498945)" width="12" x="-6" xlink:href="/img/pieces/pip-p.svg" y="-6"/>
    </svg>
  </svg>
  <svg height="100" width="70" x="494" y="10">
    <defs/>
    <rect fill="gray" height="100" width="70" x="0" y="0"/>
    <svg height="20" width="14.0" x="0.0" y="80">
      <defs/>
      <text dominant-baseline="central" fill="white" style="filter: url(#shadow)" text-anchor="middle" x="50%" y="50%">1</text>
    </svg>
    <svg height="20" width="14.0" x="14.0" y="80">
      <defs/>
      <text dominant-baseline="central" fill="white" style="filter: url(#shadow)" text-anchor="middle" x="50%" y="50%">2</text>
    </svg>
    <svg height="20" width="14.0" x="28.0" y="80">
      <defs/>
      <text dominant-baseline="central" fill="white" style="filter: url(#shadow)" text-anchor="middle" x="50%" y="50%">3</text>
    </svg>
    <svg height="20" width="14.0" x="42.0" y="80">
      <defs/>
      <text dominant-baseline="central" fill="white" style="filter: url(#shadow)" text-anchor="middle" x="50%" y="50%">4</text>
    </svg>
    <svg height="20" width="14.0" x="56.0" y="80">
      <defs/>
      <text dominant-baseline="central" fill="white" style="filter: url(#shadow)" text-anchor="middle" x="50%" y="50%">5</text>
    </svg>
    <svg height="100" viewBox="-35 -50 70 100" width="70" x="0" y="0">
      <defs/>
      <image height="12" style="filter: url(#shadow)" transform="translate(-0.0, -20.0)" width="12" x="-6" xlink:href="/img/pieces/pip-r.svg" y="-6"/>
      <image height="12" style="filter: url(#shadow)" transform="translate(-19.02113032590307, -6.180339887498949)" width="12" x="-6" xlink:href="/img/pieces/pip-y.svg" y="-6"/>
      <image height="12" style="filter: url(#shadow)" transform="translate(-11.755705045849465, 16.180339887498945)" width="12" x="-6" xlink:href="/img/pieces/pip-g.svg" y="-6"/>
      <image height="12" style="filter: url(#shadow)" transform="translate(11.75570504584946, 16.180339887498953)" width="12" x="-6" xlink:href="/img/pieces/pip-b.svg" y="-6"/>
      <image height="12" style="filter: url(#shadow)" transform="translate(19.021130325903073, -6.180339887498945)" width="12" x="-6" xlink:href="/img/pieces/pip-p.svg" y="-6"/>
    </svg>
  </svg>
  <svg height="100" width="70" x="568" y="10">
    <defs/>
    <rect fill="gray" height="100" width="70" x="0" y="0"/>
    <svg height="20" width="14.0" x="0.0" y="80">
      <defs/>
      <text dominant-baseline="central" fill="white" style="filter: url(#shadow)" text-anchor="middle" x="50%" y="50%">1</text>
    </svg>
    <svg height="20" width="14.0" x="14.0" y="80">
      <defs/>
      <text dominant-baseline="central" fill="white" style="filter: url(#shadow)" text-anchor="middle" x="50%" y="50%">2</text>
    </svg>
    <svg height="20" width="14.0" x="28.0" y="80">
      <defs/>
      <text dominant-baseline="central" fill="white" style="filter: url(#shadow)" text-anchor="middle" x="50%" y="50%">3</text>
    </svg>
    <svg height="20" width="14.0" x="42.0" y="80">
      <defs/>
      <text dominant-baseline="central" fill="white" style="filter: url(#shadow)" text-anchor="middle" x="50%" y="50%">4</text>
    </svg>
    <svg height="20" width="14.0" x="56.0" y="80">
      <defs/>
      <text dominant-baseline="central" fill="white" style="filter: url(#shadow)" text-anchor="middle" x="50%" y="50%">5</text>
    </svg>
    <svg height="100" viewBox="-35 -50 70 100" width="70" x="0" y="0">
      <defs/>
      <image height="12" style="filter: url(#shadow)" transform="translate(-0.0, -20.0)" width="12" x="-6" xlink:href="/img/pieces/pip-r.svg" y="-6"/>
      <image height="12" style="filter: url(#shadow)" transform="translate(-19.02113032590307, -6.180339887498949)" width="12" x="-6" xlink:href="/img/pieces/pip-y.svg" y="-6"/>
      <image height="12" style="filter: url(#shadow)" transform="translate(-11.755705045849465, 16.180339887498945)" width="12" x="-6" xlink:href="/img/pieces/pip-g.svg" y="-6"/>
      <image height="12" style="filter: url(#shadow)" transform="translate(11.75570504584946, 16.180339887498953)" width="12" x="-6" xlink:href="/img/pieces/pip-b.svg" y="-6"/>
      <image height="12" style="filter: url(#shadow)" transform="translate(19.021130325903073, -6.180339887498945)" width="12" x="-6" xlink:href="/img/pieces/pip-p.svg" y="-6"/>
    </svg>
  </svg>
  <svg height="100" width="70" x="642" y="10">
    <defs/>
    <rect fill="gray" height="100" width="70" x="0" y="0"/>
    <svg height="20" width="14.0" x="0.0" y="80">
      <defs/>
      <text dominant-baseline="central" fill="white" style="filter: url(#shadow)" text-anchor="middle" x="50%" y="50%">1</text>
    </svg>
    <svg height="20" width="14.0" x="14.0" y="80">
      <defs/>
      <text dominant-baseline="central" fill="white" style="filter: url(#shadow)" text-anchor="middle" x="50%" y="50%">2</text>
    </svg>
    <svg height="20" width="14.0" x="28.0" y="80">
      <defs/>
      <text dominant-baseline="central" fill="white" style="filter: url(#shadow)" text-anchor="middle" x="50%" y="50%">3</text>
    </svg>
    <svg height="20" width="14.0" x="42.0" y="80">
      <defs/>
      <text dominant-baseline="central" fill="white" style="filter: url(#shadow)" text-anchor="middle" x="50%" y="50%">4</text>
    </svg>
    <svg height="20" width="14.0" x="56.0" y="80">
      <defs/>
      <text dominant-baseline="central" fill="white" style="filter: url(#shadow)" text-anchor="middle" x="50%" y="50%">5</text>
    </svg>
    <svg height="100" viewBox="-35 -50 70 100" width="70" x="0" y="0">
      <defs/>
      <image height="12" style="filter: url(#shadow)" transform="translate(-0.0, -20.0)" width="12" x="-6" xlink:href="/img/pieces/pip-r.svg" y="-6"/>
      <image height="12" style="filter: url(#shadow)" transform="translate(-19.02113032590307, -6.180339887498949)" width="12" x="-6" xlink:href="/img/pieces/pip-y.svg" y="-6"/>
      <image height="12" style="filter: url(#shadow)" transform="translate(-11.755705045849465, 16.180339887498945)" width="12" x="-6" xlink:href="/img/pieces/pip-g.svg" y="-6"/>
      <image height="12" style="filter: url(#shadow)" transform="translate(11.75570504584946, 16.180339887498953)" width="12" x="-6" xlink:href="/img/pieces/pip-b.svg" y="-6"/>
      <image height="12" style="filter: url(#shadow)" transform="translate(19.021130325903073, -6.180339887498945)" width="12" x="-6" xlink:href="/img/pieces/pip-p.svg" y="-6"/>
    </svg>
  </svg>
  <svg height="40" width="64" x="645" y="0">
    <defs/>
    <rect fill="purple" height="40" stroke="white" width="64" x="0" y="0"/>
    <svg height="20" width="64" x="0" y="0">
      <defs/>
      <text dominant-baseline="central" fill="white" text-anchor="middle" x="50%" y="50%">Chop</text>
    </svg>
    <svg height="20" width="64" x="0" y="20">
      <defs/>
      <text dominant-baseline="central" fill="white" text-anchor="middle" x="50%" y="50%">Move</text>
    </svg>
  </svg>
  <svg height="100" width="70" x="716" y="10">
    <defs/>
    <rect fill="gray" height="100" width="70" x="0" y="0"/>
    <svg height="20" width="14.0" x="0.0" y="80">
      <defs/>
      <text dominant-baseline="central" fill="white" style="filter: url(#shadow)" text-anchor="middle" x="50%" y="50%">1</text>
    </svg>
    <svg height="20" width="14.0" x="14.0" y="80">
      <defs/>
      <text dominant-baseline="central" fill="white" style="filter: url(#shadow)" text-anchor="middle" x="50%" y="50%">2</text>
    </svg>
    <svg height="20" width="14.0" x="28.0" y="80">
      <defs/>
      <text dominant-baseline="central" fill="white" style="filter: url(#shadow)" text-anchor="middle" x="50%" y="50%">3</text>
    </svg>
    <svg height="20" width="14.0" x="42.0" y="80">
      <defs/>
      <text dominant-baseline="central" fill="white" style="filter: url(#shadow)" text-anchor="middle" x="50%" y="50%">4</text>
    </svg>
    <svg height="20" width="14.0" x="56.0" y="80">
      <defs/>
      <text dominant-baseline="central" fill="white" style="filter: url(#shadow)" text-anchor="middle" x="50%" y="50%">5</text>
    </svg>
    <svg height="100" viewBox="-35 -50 70 100" width="70" x="0" y="0">
      <defs/>
      <image height="12" style="filter: url(#shadow)" transform="translate(-0.0, -20.0)" width="12" x="-6" xlink:href="/img/pieces/pip-r.svg" y="-6"/>
      <image height="12" style="filter: url(#shadow)" transform="translate(-19.02113032590307, -6.180339887498949)" width="12" x="-6" xlink:href="/img/pieces/pip-y.svg" y="-6"/>
      <image height="12" style="filter: url(#shadow)" transform="translate(-11.755705045849465, 16.180339887498945)" width="12" x="-6" xlink:href="/img/pieces/pip-g.svg" y="-6"/>
      <image height="12" style="filter: url(#shadow)" transform="translate(11.75570504584946, 16.180339887498953)" width="12" x="-6" xlink:href="/img/pieces/pip-b.svg" y="-6"/>
      <image height="12" style="filter: url(#shadow)" transform="translate(19.021130325903073, -6.180339887498945)" width="12" x="-6" xlink:href="/img/pieces/pip-p.svg" y="-6"/>
    </svg>
  </svg>
  <svg height="40" width="64" x="719" y="0">
    <defs/>
    <rect fill="maroon" height="40" stroke="white" width="64" x="0" y="0"/>
    <svg height="20" width="64" x="0" y="0">
      <defs/>
      <text dominant-baseline="central" fill="white" text-anchor="middle" x="50%" y="50%">Chop</text>
    </svg>
    <svg height="20" width="64" x="0" y="20">
      <defs/>
      <text dominant-baseline="central" fill="white" text-anchor="middle" x="50%" y="50%">Move</text>
    </svg>
  </svg>
  <text dy="50" fill="#000001" x="360" y="125">Bob</text>
  <text dy="70" fill="#000001" x="360" y="125">(clue</text>
  <text dy="90" fill="#000001" x="360" y="125">giver)</text>
  <rect fill="orange" height="102" rx="2" ry="2" width="72" x="419" y="124"/>
  <image height="100" width="70" x="420" xlink:href="/img/pieces/1.png" y="125"/>
  <image height="70" width="50" x="430" xlink:href="/img/pieces/clue-1.png" y="85"/>
  <svg height="80" width="64" x="423" y="230">
    <defs/>
    <rect fill="purple" height="80" stroke="white" width="64" x="0" y="0"/>
    <svg height="20" width="64" x="0" y="0">
      <defs/>
      <text dominant-baseline="central" fill="white" text-anchor="middle" x="50%" y="50%">Double</text>
    </svg>
    <svg height="20" width="64" x="0" y="20">
      <defs/>
      <text dominant-baseline="central" fill="white" text-anchor="middle" x="50%" y="50%">Chop</text>
    </svg>
    <svg height="20" width="64" x="0" y="40">
      <defs/>
      <text dominant-baseline="central" fill="white" text-anchor="middle" x="50%" y="50%">Move</text>
    </svg>
    <svg height="20" width="64" x="0" y="60">
      <defs/>
      <text dominant-baseline="central" fill="white" text-anchor="middle" x="50%" y="50%">Alice</text>
    </svg>
  </svg>
  <rect fill="orange" height="102" rx="2" ry="2" width="72" x="493" y="124"/>
  <image height="100" width="70" x="494" xlink:href="/img/pieces/1.png" y="125"/>
  <image height="70" width="50" x="504" xlink:href="/img/pieces/clue-1.png" y="85"/>
  <svg height="80" width="64" x="497" y="230">
    <defs/>
    <rect fill="darkgreen" height="80" stroke="white" width="64" x="0" y="0"/>
    <svg height="20" width="64" x="0" y="0">
      <defs/>
      <text dominant-baseline="central" fill="white" text-anchor="middle" x="50%" y="50%">Double</text>
    </svg>
    <svg height="20" width="64" x="0" y="20">
      <defs/>
      <text dominant-baseline="central" fill="white" text-anchor="middle" x="50%" y="50%">Chop</text>
    </svg>
    <svg height="20" width="64" x="0" y="40">
      <defs/>
      <text dominant-baseline="central" fill="white" text-anchor="middle" x="50%" y="50%">Move</text>
    </svg>
    <svg height="20" width="64" x="0" y="60">
      <defs/>
      <text dominant-baseline="central" fill="white" text-anchor="middle" x="50%" y="50%">Cathy</text>
    </svg>
  </svg>
  <rect fill="orange" height="102" rx="2" ry="2" width="72" x="567" y="124"/>
  <image height="100" width="70" x="568" xlink:href="/img/pieces/1.png" y="125"/>
  <image height="70" width="50" x="578" xlink:href="/img/pieces/clue-1.png" y="85"/>
  <svg height="60" width="64" x="571" y="230">
    <defs/>
    <rect fill="maroon" height="60" stroke="white" width="64" x="0" y="0"/>
    <svg height="20" width="64" x="0" y="0">
      <defs/>
      <text dominant-baseline="central" fill="white" text-anchor="middle" x="50%" y="50%">Chop</text>
    </svg>
    <svg height="20" width="64" x="0" y="20">
      <defs/>
      <text dominant-baseline="central" fill="white" text-anchor="middle" x="50%" y="50%">Move</text>
    </svg>
    <svg height="20" width="64" x="0" y="40">
      <defs/>
      <text dominant-baseline="central" fill="white" text-anchor="middle" x="50%" y="50%">Alice</text>
    </svg>
  </svg>
  <rect fill="orange" height="102" rx="2" ry="2" width="72" x="641" y="124"/>
  <image height="100" width="70" x="642" xlink:href="/img/pieces/1.png" y="125"/>
  <image height="70" width="50" x="652" xlink:href="/img/pieces/clue-1.png" y="85"/>
  <svg height="60" width="64" x="645" y="230">
    <defs/>
    <rect fill="darkblue" height="60" stroke="white" width="64" x="0" y="0"/>
    <svg height="20" width="64" x="0" y="0">
      <defs/>
      <text dominant-baseline="central" fill="white" text-anchor="middle" x="50%" y="50%">Chop</text>
    </svg>
    <svg height="20" width="64" x="0" y="20">
      <defs/>
      <text dominant-baseline="central" fill="white" text-anchor="middle" x="50%" y="50%">Move</text>
    </svg>
    <svg height="20" width="64" x="0" y="40">
      <defs/>
      <text dominant-baseline="central" fill="white" text-anchor="middle" x="50%" y="50%">Cathy</text>
    </svg>
  </svg>
  <rect fill="orange" height="102" rx="2" ry="2" width="72" x="715" y="124"/>
  <image height="100" width="70" x="716" xlink:href="/img/pieces/1.png" y="125"/>
  <image height="70" width="50" x="726" xlink:href="/img/pieces/clue-1.png" y="85"/>
  <text dy="50" fill="#000001" x="360" y="325">Cathy</text>
  <svg height="100" width="70" x="420" y="335">
    <defs/>
    <rect fill="gray" height="100" width="70" x="0" y="0"/>
    <svg height="20" width="14.0" x="0.0" y="80">
      <defs/>
      <text dominant-baseline="central" fill="white" style="filter: url(#shadow)" text-anchor="middle" x="50%" y="50%">1</text>
    </svg>
    <svg height="20" width="14.0" x="14.0" y="80">
      <defs/>
      <text dominant-baseline="central" fill="white" style="filter: url(#shadow)" text-anchor="middle" x="50%" y="50%">2</text>
    </svg>
    <svg height="20" width="14.0" x="28.0" y="80">
      <defs/>
      <text dominant-baseline="central" fill="white" style="filter: url(#shadow)" text-anchor="middle" x="50%" y="50%">3</text>
    </svg>
    <svg height="20" width="14.0" x="42.0" y="80">
      <defs/>
      <text dominant-baseline="central" fill="white" style="filter: url(#shadow)" text-anchor="middle" x="50%" y="50%">4</text>
    </svg>
    <svg height="20" width="14.0" x="56.0" y="80">
      <defs/>
      <text dominant-baseline="central" fill="white" style="filter: url(#shadow)" text-anchor="middle" x="50%" y="50%">5</text>
    </svg>
    <svg height="100" viewBox="-35 -50 70 100" width="70" x="0" y="0">
      <defs/>
      <image height="12" style="filter: url(#shadow)" transform="translate(-0.0, -20.0)" width="12" x="-6" xlink:href="/img/pieces/pip-r.svg" y="-6"/>
      <image height="12" style="filter: url(#shadow)" transform="translate(-19.02113032590307, -6.180339887498949)" width="12" x="-6" xlink:href="/img/pieces/pip-y.svg" y="-6"/>
      <image height="12" style="filter: url(#shadow)" transform="translate(-11.755705045849465, 16.180339887498945)" width="12" x="-6" xlink:href="/img/pieces/pip-g.svg" y="-6"/>
      <image height="12" style="filter: url(#shadow)" transform="translate(11.75570504584946, 16.180339887498953)" width="12" x="-6" xlink:href="/img/pieces/pip-b.svg" y="-6"/>
      <image height="12" style="filter: url(#shadow)" transform="translate(19.021130325903073, -6.180339887498945)" width="12" x="-6" xlink:href="/img/pieces/pip-p.svg" y="-6"/>
    </svg>
  </svg>
  <svg height="100" width="70" x="494" y="335">
    <defs/>
    <rect fill="gray" height="100" width="70" x="0" y="0"/>
    <svg height="20" width="14.0" x="0.0" y="80">
      <defs/>
      <text dominant-baseline="central" fill="white" style="filter: url(#shadow)" text-anchor="middle" x="50%" y="50%">1</text>
    </svg>
    <svg height="20" width="14.0" x="14.0" y="80">
      <defs/>
      <text dominant-baseline="central" fill="white" style="filter: url(#shadow)" text-anchor="middle" x="50%" y="50%">2</text>
    </svg>
    <svg height="20" width="14.0" x="28.0" y="80">
      <defs/>
      <text dominant-baseline="central" fill="white" style="filter: url(#shadow)" text-anchor="middle" x="50%" y="50%">3</text>
    </svg>
    <svg height="20" width="14.0" x="42.0" y="80">
      <defs/>
      <text dominant-baseline="central" fill="white" style="filter: url(#shadow)" text-anchor="middle" x="50%" y="50%">4</text>
    </svg>
    <svg height="20" width="14.0" x="56.0" y="80">
      <defs/>
      <text dominant-baseline="central" fill="white" style="filter: url(#shadow)" text-anchor="middle" x="50%" y="50%">5</text>
    </svg>
    <svg height="100" viewBox="-35 -50 70 100" width="70" x="0" y="0">
      <defs/>
      <image height="12" style="filter: url(#shadow)" transform="translate(-0.0, -20.0)" width="12" x="-6" xlink:href="/img/pieces/pip-r.svg" y="-6"/>
      <image height="12" style="filter: url(#shadow)" transform="translate(-19.02113032590307, -6.180339887498949)" width="12" x="-6" xlink:href="/img/pieces/pip-y.svg" y="-6"/>
      <image height="12" style="filter: url(#shadow)" transform="translate(-11.755705045849465, 16.180339887498945)" width="12" x="-6" xlink:href="/img/pieces/pip-g.svg" y="-6"/>
      <image height="12" style="filter: url(#shadow)" transform="translate(11.75570504584946, 16.180339887498953)" width="12" x="-6" xlink:href="/img/pieces/pip-b.svg" y="-6"/>
      <image height="12" style="filter: url(#shadow)" transform="translate(19.021130325903073, -6.180339887498945)" width="12" x="-6" xlink:href="/img/pieces/pip-p.svg" y="-6"/>
    </svg>
  </svg>
  <svg height="100" width="70" x="568" y="335">
    <defs/>
    <rect fill="gray" height="100" width="70" x="0" y="0"/>
    <svg height="20" width="14.0" x="0.0" y="80">
      <defs/>
      <text dominant-baseline="central" fill="white" style="filter: url(#shadow)" text-anchor="middle" x="50%" y="50%">1</text>
    </svg>
    <svg height="20" width="14.0" x="14.0" y="80">
      <defs/>
      <text dominant-baseline="central" fill="white" style="filter: url(#shadow)" text-anchor="middle" x="50%" y="50%">2</text>
    </svg>
    <svg height="20" width="14.0" x="28.0" y="80">
      <defs/>
      <text dominant-baseline="central" fill="white" style="filter: url(#shadow)" text-anchor="middle" x="50%" y="50%">3</text>
    </svg>
    <svg height="20" width="14.0" x="42.0" y="80">
      <defs/>
      <text dominant-baseline="central" fill="white" style="filter: url(#shadow)" text-anchor="middle" x="50%" y="50%">4</text>
    </svg>
    <svg height="20" width="14.0" x="56.0" y="80">
      <defs/>
      <text dominant-baseline="central" fill="white" style="filter: url(#shadow)" text-anchor="middle" x="50%" y="50%">5</text>
    </svg>
    <svg height="100" viewBox="-35 -50 70 100" width="70" x="0" y="0">
      <defs/>
      <image height="12" style="filter: url(#shadow)" transform="translate(-0.0, -20.0)" width="12" x="-6" xlink:href="/img/pieces/pip-r.svg" y="-6"/>
      <image height="12" style="filter: url(#shadow)" transform="translate(-19.02113032590307, -6.180339887498949)" width="12" x="-6" xlink:href="/img/pieces/pip-y.svg" y="-6"/>
      <image height="12" style="filter: url(#shadow)" transform="translate(-11.755705045849465, 16.180339887498945)" width="12" x="-6" xlink:href="/img/pieces/pip-g.svg" y="-6"/>
      <image height="12" style="filter: url(#shadow)" transform="translate(11.75570504584946, 16.180339887498953)" width="12" x="-6" xlink:href="/img/pieces/pip-b.svg" y="-6"/>
      <image height="12" style="filter: url(#shadow)" transform="translate(19.021130325903073, -6.180339887498945)" width="12" x="-6" xlink:href="/img/pieces/pip-p.svg" y="-6"/>
    </svg>
  </svg>
  <svg height="100" width="70" x="642" y="335">
    <defs/>
    <rect fill="gray" height="100" width="70" x="0" y="0"/>
    <svg height="20" width="14.0" x="0.0" y="80">
      <defs/>
      <text dominant-baseline="central" fill="white" style="filter: url(#shadow)" text-anchor="middle" x="50%" y="50%">1</text>
    </svg>
    <svg height="20" width="14.0" x="14.0" y="80">
      <defs/>
      <text dominant-baseline="central" fill="white" style="filter: url(#shadow)" text-anchor="middle" x="50%" y="50%">2</text>
    </svg>
    <svg height="20" width="14.0" x="28.0" y="80">
      <defs/>
      <text dominant-baseline="central" fill="white" style="filter: url(#shadow)" text-anchor="middle" x="50%" y="50%">3</text>
    </svg>
    <svg height="20" width="14.0" x="42.0" y="80">
      <defs/>
      <text dominant-baseline="central" fill="white" style="filter: url(#shadow)" text-anchor="middle" x="50%" y="50%">4</text>
    </svg>
    <svg height="20" width="14.0" x="56.0" y="80">
      <defs/>
      <text dominant-baseline="central" fill="white" style="filter: url(#shadow)" text-anchor="middle" x="50%" y="50%">5</text>
    </svg>
    <svg height="100" viewBox="-35 -50 70 100" width="70" x="0" y="0">
      <defs/>
      <image height="12" style="filter: url(#shadow)" transform="translate(-0.0, -20.0)" width="12" x="-6" xlink:href="/img/pieces/pip-r.svg" y="-6"/>
      <image height="12" style="filter: url(#shadow)" transform="translate(-19.02113032590307, -6.180339887498949)" width="12" x="-6" xlink:href="/img/pieces/pip-y.svg" y="-6"/>
      <image height="12" style="filter: url(#shadow)" transform="translate(-11.755705045849465, 16.180339887498945)" width="12" x="-6" xlink:href="/img/pieces/pip-g.svg" y="-6"/>
      <image height="12" style="filter: url(#shadow)" transform="translate(11.75570504584946, 16.180339887498953)" width="12" x="-6" xlink:href="/img/pieces/pip-b.svg" y="-6"/>
      <image height="12" style="filter: url(#shadow)" transform="translate(19.021130325903073, -6.180339887498945)" width="12" x="-6" xlink:href="/img/pieces/pip-p.svg" y="-6"/>
    </svg>
  </svg>
  <svg height="40" width="64" x="645" y="325">
    <defs/>
    <rect fill="darkgreen" height="40" stroke="white" width="64" x="0" y="0"/>
    <svg height="20" width="64" x="0" y="0">
      <defs/>
      <text dominant-baseline="central" fill="white" text-anchor="middle" x="50%" y="50%">Chop</text>
    </svg>
    <svg height="20" width="64" x="0" y="20">
      <defs/>
      <text dominant-baseline="central" fill="white" text-anchor="middle" x="50%" y="50%">Move</text>
    </svg>
  </svg>
  <svg height="100" width="70" x="716" y="335">
    <defs/>
    <rect fill="gray" height="100" width="70" x="0" y="0"/>
    <svg height="20" width="14.0" x="0.0" y="80">
      <defs/>
      <text dominant-baseline="central" fill="white" style="filter: url(#shadow)" text-anchor="middle" x="50%" y="50%">1</text>
    </svg>
    <svg height="20" width="14.0" x="14.0" y="80">
      <defs/>
      <text dominant-baseline="central" fill="white" style="filter: url(#shadow)" text-anchor="middle" x="50%" y="50%">2</text>
    </svg>
    <svg height="20" width="14.0" x="28.0" y="80">
      <defs/>
      <text dominant-baseline="central" fill="white" style="filter: url(#shadow)" text-anchor="middle" x="50%" y="50%">3</text>
    </svg>
    <svg height="20" width="14.0" x="42.0" y="80">
      <defs/>
      <text dominant-baseline="central" fill="white" style="filter: url(#shadow)" text-anchor="middle" x="50%" y="50%">4</text>
    </svg>
    <svg height="20" width="14.0" x="56.0" y="80">
      <defs/>
      <text dominant-baseline="central" fill="white" style="filter: url(#shadow)" text-anchor="middle" x="50%" y="50%">5</text>
    </svg>
    <svg height="100" viewBox="-35 -50 70 100" width="70" x="0" y="0">
      <defs/>
      <image height="12" style="filter: url(#shadow)" transform="translate(-0.0, -20.0)" width="12" x="-6" xlink:href="/img/pieces/pip-r.svg" y="-6"/>
      <image height="12" style="filter: url(#shadow)" transform="translate(-19.02113032590307, -6.180339887498949)" width="12" x="-6" xlink:href="/img/pieces/pip-y.svg" y="-6"/>
      <image height="12" style="filter: url(#shadow)" transform="translate(-11.755705045849465, 16.180339887498945)" width="12" x="-6" xlink:href="/img/pieces/pip-g.svg" y="-6"/>
      <image height="12" style="filter: url(#shadow)" transform="translate(11.75570504584946, 16.180339887498953)" width="12" x="-6" xlink:href="/img/pieces/pip-b.svg" y="-6"/>
      <image height="12" style="filter: url(#shadow)" transform="translate(19.021130325903073, -6.180339887498945)" width="12" x="-6" xlink:href="/img/pieces/pip-p.svg" y="-6"/>
    </svg>
  </svg>
  <svg height="40" width="64" x="719" y="325">
    <defs/>
    <rect fill="darkblue" height="40" stroke="white" width="64" x="0" y="0"/>
    <svg height="20" width="64" x="0" y="0">
      <defs/>
      <text dominant-baseline="central" fill="white" text-anchor="middle" x="50%" y="50%">Chop</text>
    </svg>
    <svg height="20" width="64" x="0" y="20">
      <defs/>
      <text dominant-baseline="central" fill="white" text-anchor="middle" x="50%" y="50%">Move</text>
    </svg>
  </svg>
</svg>

