<?xml version="1.0" encoding="utf-8" ?>
<svg xmlns="http://www.w3.org/2000/svg"  xmlns:xlink="http://www.w3.org/1999/xlink" baseProfile="full" height="390" version="1.1" viewBox="0 0 1022 390" width="1022">
  <defs>
        <filter id="shadow">
        <feOffset in="SourceAlpha" dx="2" dy="2" result="offsetblur"/>
        <feComponentTransfer result="shadow">
            <feFuncA type="linear" slope="0.5"/>
        </feComponentTransfer>
        <feMorphology in="SourceAlpha" operator="dilate" radius="1" result="border"/>
        <feMerge>
            <feMergeNode in="shadow"/>
            <feMergeNode in="border"/>
            <feMergeNode in="SourceGraphic"/>
        </feMerge>
        </filter>
    </defs>
  <image height="100" width="70" x="0" xlink:href="/img/pieces/cards/r2.svg" y="0"/>
  <image height="100" width="70" x="78" xlink:href="/img/pieces/cards/y0.svg" y="0"/>
  <image height="100" width="70" x="156" xlink:href="/img/pieces/cards/g0.svg" y="0"/>
  <image height="100" width="70" x="234" xlink:href="/img/pieces/cards/b0.svg" y="0"/>
  <image height="100" width="70" x="312" xlink:href="/img/pieces/cards/p0.svg" y="0"/>
  <image height="100" width="70" x="390" xlink:href="/img/pieces/cards/m0.svg" y="0"/>
  <text dy="57.0" fill="#000001" style="font-size: 1.4em;" x="542" y="0">Alice</text>
  <svg height="100" width="70" x="632" y="0">
    <defs/>
    <rect fill="gray" height="100" rx="5" ry="5" width="70" x="0" y="0"/>
    <svg height="100" viewBox="-35 -50 70 100" width="70" x="0" y="0">
      <defs/>
    </svg>
  </svg>
  <svg height="100" width="70" x="710" y="0">
    <defs/>
    <rect fill="gray" height="100" rx="5" ry="5" width="70" x="0" y="0"/>
    <svg height="100" viewBox="-35 -50 70 100" width="70" x="0" y="0">
      <defs/>
    </svg>
  </svg>
  <svg height="100" width="70" x="788" y="0">
    <defs/>
    <rect fill="gray" height="100" rx="5" ry="5" width="70" x="0" y="0"/>
    <svg height="100" viewBox="-35 -50 70 100" width="70" x="0" y="0">
      <defs/>
    </svg>
  </svg>
  <svg height="100" width="70" x="866" y="0">
    <defs/>
    <rect fill="gray" height="100" rx="5" ry="5" width="70" x="0" y="0"/>
    <svg height="100" viewBox="-35 -50 70 100" width="70" x="0" y="0">
      <defs/>
    </svg>
  </svg>
  <svg height="100" width="70" x="944" y="0">
    <defs/>
    <rect fill="gray" height="100" rx="5" ry="5" width="70" x="0" y="0"/>
    <svg height="100" viewBox="-35 -50 70 100" width="70" x="0" y="0">
      <defs/>
    </svg>
  </svg>
  <text dy="57.0" fill="#000001" style="font-size: 1.4em;" x="542" y="125">Bob</text>
  <rect fill="orange" height="104" rx="5" ry="5" width="74" x="630.0" y="123.0"/>
  <svg height="100" width="70" x="632" y="125">
    <defs/>
    <rect fill="gray" height="100" rx="5" ry="5" width="70" x="0" y="0"/>
    <svg height="100" viewBox="-35 -50 70 100" width="70" x="0" y="0">
      <defs/>
      <image height="12" style="filter: url(#shadow)" transform="translate(-0.0, -20.0)" width="12" x="-6" xlink:href="/img/pieces/pips/r.svg" y="-6"/>
      <image height="12" style="filter: url(#shadow)" transform="translate(17.32050807568878, -9.999999999999986)" width="12" x="-6" xlink:href="/img/pieces/pips/m.svg" y="-6"/>
    </svg>
  </svg>
  <svg height="20" width="64" x="635" y="230">
    <defs/>
    <rect fill="black" height="20" stroke="white" width="64" x="0" y="0"/>
    <svg height="20" width="64" x="0" y="0">
      <defs/>
      <text dominant-baseline="central" fill="white" text-anchor="middle" x="50%" y="50%">Prompt</text>
    </svg>
  </svg>
  <rect fill="orange" height="104" rx="5" ry="5" width="74" x="708.0" y="123.0"/>
  <svg height="100" width="70" x="710" y="125">
    <defs/>
    <image height="100" width="70" x="0" xlink:href="/img/pieces/cards/r.svg" y="0"/>
    <svg height="100" viewBox="-35 -50 70 100" width="70" x="0" y="0">
      <defs/>
    </svg>
  </svg>
  <svg height="100" width="70" x="788" y="125">
    <defs/>
    <rect fill="gray" height="100" rx="5" ry="5" width="70" x="0" y="0"/>
    <svg height="100" viewBox="-35 -50 70 100" width="70" x="0" y="0">
      <defs/>
    </svg>
  </svg>
  <svg height="100" width="70" x="866" y="125">
    <defs/>
    <rect fill="gray" height="100" rx="5" ry="5" width="70" x="0" y="0"/>
    <svg height="100" viewBox="-35 -50 70 100" width="70" x="0" y="0">
      <defs/>
    </svg>
  </svg>
  <svg height="100" width="70" x="944" y="125">
    <defs/>
    <rect fill="gray" height="100" rx="5" ry="5" width="70" x="0" y="0"/>
    <svg height="100" viewBox="-35 -50 70 100" width="70" x="0" y="0">
      <defs/>
    </svg>
  </svg>
  <text dy="57.0" fill="#000001" style="font-size: 1.4em;" x="542" y="265">Cathy</text>
  <svg height="100" width="70" x="632" y="265">
    <defs/>
    <rect fill="gray" height="100" rx="5" ry="5" width="70" x="0" y="0"/>
    <svg height="100" viewBox="-35 -50 70 100" width="70" x="0" y="0">
      <defs/>
    </svg>
  </svg>
  <svg height="100" width="70" x="710" y="265">
    <defs/>
    <rect fill="gray" height="100" rx="5" ry="5" width="70" x="0" y="0"/>
    <svg height="100" viewBox="-35 -50 70 100" width="70" x="0" y="0">
      <defs/>
    </svg>
  </svg>
  <rect fill="orange" height="104" rx="5" ry="5" width="74" x="786.0" y="263.0"/>
  <svg height="100" width="70" x="788" y="265">
    <defs/>
    <image height="100" width="70" x="0" xlink:href="/img/pieces/cards/r.svg" y="0"/>
    <svg height="100" viewBox="-35 -50 70 100" width="70" x="0" y="0">
      <defs/>
    </svg>
  </svg>
  <image height="70" width="50" x="798" xlink:href="/img/pieces/arrow.svg" y="225"/>
  <circle cx="823" cy="250" fill="red" r="15" stroke="black" stroke-width="2"/>
  <svg height="100" width="70" x="788" y="265">
    <defs/>
    <text dominant-baseline="central" fill="white" stroke="white" style="font-size: 1.5em; filter: url(#shadow);" text-anchor="middle" x="50%" y="50%">(4)</text>
  </svg>
  <svg height="100" width="70" x="866" y="265">
    <defs/>
    <rect fill="gray" height="100" rx="5" ry="5" width="70" x="0" y="0"/>
    <svg height="100" viewBox="-35 -50 70 100" width="70" x="0" y="0">
      <defs/>
    </svg>
  </svg>
  <svg height="100" width="70" x="944" y="265">
    <defs/>
    <rect fill="gray" height="100" rx="5" ry="5" width="70" x="0" y="0"/>
    <svg height="100" viewBox="-35 -50 70 100" width="70" x="0" y="0">
      <defs/>
    </svg>
  </svg>
</svg>

