<?xml version="1.0" encoding="utf-8" ?>
<svg xmlns="http://www.w3.org/2000/svg"  xmlns:xlink="http://www.w3.org/1999/xlink" baseProfile="full" height="615" version="1.1" viewBox="0 0 1022 615" width="1022">
  <defs>
        <filter id="shadow">
        <feOffset in="SourceAlpha" dx="2" dy="2" result="offsetblur"/>
        <feComponentTransfer result="shadow">
            <feFuncA type="linear" slope="0.5"/>
        </feComponentTransfer>
        <feMorphology in="SourceAlpha" operator="dilate" radius="1" result="border"/>
        <feMerge>
            <feMergeNode in="shadow"/>
            <feMergeNode in="border"/>
            <feMergeNode in="SourceGraphic"/>
        </feMerge>
        </filter>
    </defs>
  <image height="100" width="70" x="0" xlink:href="/img/pieces/cards/r2.svg" y="0"/>
  <image height="100" width="70" x="78" xlink:href="/img/pieces/cards/y2.svg" y="0"/>
  <image height="100" width="70" x="156" xlink:href="/img/pieces/cards/g2.svg" y="0"/>
  <image height="100" width="70" x="234" xlink:href="/img/pieces/cards/b2.svg" y="0"/>
  <image height="100" width="70" x="312" xlink:href="/img/pieces/cards/p2.svg" y="0"/>
  <image height="100" width="70" x="390" xlink:href="/img/pieces/cards/m2.svg" y="0"/>
  <text dy="20" fill="#000001" x="582" y="0">Situation before clue</text>
  <text dy="57.0" fill="#000001" style="font-size: 1.4em;" x="542" y="50">Alice</text>
  <svg height="100" width="70" x="632" y="50">
    <defs/>
    <rect fill="gray" height="100" rx="5" ry="5" width="70" x="0" y="0"/>
    <svg height="100" viewBox="-35 -50 70 100" width="70" x="0" y="0">
      <defs/>
    </svg>
  </svg>
  <svg height="100" width="70" x="710" y="50">
    <defs/>
    <rect fill="gray" height="100" rx="5" ry="5" width="70" x="0" y="0"/>
    <svg height="100" viewBox="-35 -50 70 100" width="70" x="0" y="0">
      <defs/>
    </svg>
  </svg>
  <svg height="100" width="70" x="788" y="50">
    <defs/>
    <rect fill="gray" height="100" rx="5" ry="5" width="70" x="0" y="0"/>
    <svg height="100" viewBox="-35 -50 70 100" width="70" x="0" y="0">
      <defs/>
    </svg>
  </svg>
  <svg height="100" width="70" x="866" y="50">
    <defs/>
    <rect fill="gray" height="100" rx="5" ry="5" width="70" x="0" y="0"/>
    <svg height="100" viewBox="-35 -50 70 100" width="70" x="0" y="0">
      <defs/>
    </svg>
  </svg>
  <svg height="100" width="70" x="944" y="50">
    <defs/>
    <rect fill="gray" height="100" rx="5" ry="5" width="70" x="0" y="0"/>
    <svg height="100" viewBox="-35 -50 70 100" width="70" x="0" y="0">
      <defs/>
    </svg>
  </svg>
  <text dy="57.0" fill="#000001" style="font-size: 1.4em;" x="542" y="175">Bob</text>
  <svg height="100" width="70" x="632" y="175">
    <defs/>
    <rect fill="gray" height="100" rx="5" ry="5" width="70" x="0" y="0"/>
    <svg height="100" viewBox="-35 -50 70 100" width="70" x="0" y="0">
      <defs/>
    </svg>
  </svg>
  <svg height="100" width="70" x="710" y="175">
    <defs/>
    <rect fill="gray" height="100" rx="5" ry="5" width="70" x="0" y="0"/>
    <svg height="100" viewBox="-35 -50 70 100" width="70" x="0" y="0">
      <defs/>
    </svg>
  </svg>
  <svg height="20" width="64" x="713" y="175">
    <defs/>
    <rect fill="darkred" height="20" stroke="white" width="64" x="0" y="0"/>
    <svg height="20" width="64" x="0" y="0">
      <defs/>
      <text dominant-baseline="central" fill="white" text-anchor="middle" x="50%" y="50%">Chop</text>
    </svg>
  </svg>
  <rect fill="orange" height="104" rx="5" ry="5" width="74" x="786.0" y="173.0"/>
  <svg height="100" width="70" x="788" y="175">
    <defs/>
    <rect fill="gray" height="100" rx="5" ry="5" width="70" x="0" y="0"/>
    <svg height="100" viewBox="-35 -50 70 100" width="70" x="0" y="0">
      <defs/>
      <image height="12" style="filter: url(#shadow)" transform="translate(-0.0, -20.0)" width="12" x="-6" xlink:href="/img/pieces/pips/r.svg" y="-6"/>
      <image height="12" style="filter: url(#shadow)" transform="translate(17.32050807568878, -9.999999999999986)" width="12" x="-6" xlink:href="/img/pieces/pips/m.svg" y="-6"/>
    </svg>
  </svg>
  <rect fill="orange" height="104" rx="5" ry="5" width="74" x="864.0" y="173.0"/>
  <svg height="100" width="70" x="866" y="175">
    <defs/>
    <rect fill="gray" height="100" rx="5" ry="5" width="70" x="0" y="0"/>
    <svg height="100" viewBox="-35 -50 70 100" width="70" x="0" y="0">
      <defs/>
      <image height="12" style="filter: url(#shadow)" transform="translate(-0.0, -20.0)" width="12" x="-6" xlink:href="/img/pieces/pips/r.svg" y="-6"/>
      <image height="12" style="filter: url(#shadow)" transform="translate(17.32050807568878, -9.999999999999986)" width="12" x="-6" xlink:href="/img/pieces/pips/m.svg" y="-6"/>
    </svg>
  </svg>
  <svg height="100" width="70" x="944" y="175">
    <defs/>
    <rect fill="gray" height="100" rx="5" ry="5" width="70" x="0" y="0"/>
    <svg height="100" viewBox="-35 -50 70 100" width="70" x="0" y="0">
      <defs/>
    </svg>
  </svg>
  <svg height="40" width="64" x="947" y="175">
    <defs/>
    <rect fill="black" height="40" stroke="white" width="64" x="0" y="0"/>
    <svg height="20" width="64" x="0" y="0">
      <defs/>
      <text dominant-baseline="central" fill="white" text-anchor="middle" x="50%" y="50%">Chop</text>
    </svg>
    <svg height="20" width="64" x="0" y="20">
      <defs/>
      <text dominant-baseline="central" fill="white" text-anchor="middle" x="50%" y="50%">Moved</text>
    </svg>
  </svg>
  <text dy="20" fill="#000001" x="582" y="300">Situation after clue</text>
  <text dy="57.0" fill="#000001" style="font-size: 1.4em;" x="542" y="350">Alice</text>
  <svg height="100" width="70" x="632" y="350">
    <defs/>
    <rect fill="gray" height="100" rx="5" ry="5" width="70" x="0" y="0"/>
    <svg height="100" viewBox="-35 -50 70 100" width="70" x="0" y="0">
      <defs/>
    </svg>
  </svg>
  <svg height="100" width="70" x="710" y="350">
    <defs/>
    <rect fill="gray" height="100" rx="5" ry="5" width="70" x="0" y="0"/>
    <svg height="100" viewBox="-35 -50 70 100" width="70" x="0" y="0">
      <defs/>
    </svg>
  </svg>
  <svg height="100" width="70" x="788" y="350">
    <defs/>
    <rect fill="gray" height="100" rx="5" ry="5" width="70" x="0" y="0"/>
    <svg height="100" viewBox="-35 -50 70 100" width="70" x="0" y="0">
      <defs/>
    </svg>
  </svg>
  <svg height="100" width="70" x="866" y="350">
    <defs/>
    <rect fill="gray" height="100" rx="5" ry="5" width="70" x="0" y="0"/>
    <svg height="100" viewBox="-35 -50 70 100" width="70" x="0" y="0">
      <defs/>
    </svg>
  </svg>
  <svg height="100" width="70" x="944" y="350">
    <defs/>
    <rect fill="gray" height="100" rx="5" ry="5" width="70" x="0" y="0"/>
    <svg height="100" viewBox="-35 -50 70 100" width="70" x="0" y="0">
      <defs/>
    </svg>
  </svg>
  <text dy="57.0" fill="#000001" style="font-size: 1.4em;" x="542" y="475">Bob</text>
  <svg height="100" width="70" x="632" y="475">
    <defs/>
    <rect fill="gray" height="100" rx="5" ry="5" width="70" x="0" y="0"/>
    <svg height="100" viewBox="-35 -50 70 100" width="70" x="0" y="0">
      <defs/>
    </svg>
  </svg>
  <svg height="100" width="70" x="710" y="475">
    <defs/>
    <rect fill="gray" height="100" rx="5" ry="5" width="70" x="0" y="0"/>
    <svg height="100" viewBox="-35 -50 70 100" width="70" x="0" y="0">
      <defs/>
    </svg>
  </svg>
  <svg height="20" width="64" x="713" y="475">
    <defs/>
    <rect fill="darkred" height="20" stroke="white" width="64" x="0" y="0"/>
    <svg height="20" width="64" x="0" y="0">
      <defs/>
      <text dominant-baseline="central" fill="white" text-anchor="middle" x="50%" y="50%">Chop</text>
    </svg>
  </svg>
  <rect fill="orange" height="104" rx="5" ry="5" width="74" x="786.0" y="473.0"/>
  <svg height="100" width="70" x="788" y="475">
    <defs/>
    <image height="100" width="70" x="0" xlink:href="/img/pieces/cards/m.svg" y="0"/>
    <svg height="100" viewBox="-35 -50 70 100" width="70" x="0" y="0">
      <defs/>
    </svg>
  </svg>
  <image height="70" width="50" x="798" xlink:href="/img/pieces/arrow.svg" y="435"/>
  <circle cx="823" cy="460" fill="blue" r="15" stroke="black" stroke-width="2"/>
  <rect fill="orange" height="104" rx="5" ry="5" width="74" x="864.0" y="473.0"/>
  <svg height="100" width="70" x="866" y="475">
    <defs/>
    <image height="100" width="70" x="0" xlink:href="/img/pieces/cards/m.svg" y="0"/>
    <svg height="100" viewBox="-35 -50 70 100" width="70" x="0" y="0">
      <defs/>
    </svg>
  </svg>
  <image height="70" width="50" x="876" xlink:href="/img/pieces/arrow.svg" y="435"/>
  <circle cx="901" cy="460" fill="blue" r="15" stroke="black" stroke-width="2"/>
  <rect fill="orange" height="104" rx="5" ry="5" width="74" x="942.0" y="473.0"/>
  <svg height="100" width="70" x="944" y="475">
    <defs/>
    <image height="100" width="70" x="0" xlink:href="/img/pieces/cards/b.svg" y="0"/>
    <svg height="100" viewBox="-35 -50 70 100" width="70" x="0" y="0">
      <defs/>
    </svg>
  </svg>
  <image height="70" width="50" x="954" xlink:href="/img/pieces/arrow.svg" y="435"/>
  <circle cx="979" cy="460" fill="blue" r="15" stroke="black" stroke-width="2"/>
  <svg height="20" width="64" x="947" y="580">
    <defs/>
    <rect fill="gold" height="20" stroke="black" width="64" x="0" y="0"/>
    <svg height="20" width="64" x="0" y="0">
      <defs/>
      <text dominant-baseline="central" fill="black" text-anchor="middle" x="50%" y="50%">Focus</text>
    </svg>
  </svg>
</svg>

