<?xml version="1.0" encoding="utf-8" ?>
<svg xmlns="http://www.w3.org/2000/svg"  xmlns:xlink="http://www.w3.org/1999/xlink" baseProfile="full" height="590" version="1.1" viewBox="0 0 862 590" width="862">
  <defs>
    <filter id="shadow">
      <feOffset in="SourceAlpha" dx="2" dy="2" result="offsetblur"/>
      <feComponentTransfer result="shadow">
        <feFuncA type="linear" slope="0.5"/>
      </feComponentTransfer>
      <feMorphology in="SourceAlpha" operator="dilate" radius="1" result="border"/>
      <feMerge>
        <feMergeNode in="shadow"/>
        <feMergeNode in="border"/>
        <feMergeNode in="SourceGraphic"/>
      </feMerge>
    </filter>
  </defs>
  <text dy="30" fill="#000001" font-size="24" x="20">Chop Moves + New Clues (Exception)</text>
  <image height="100" width="70" x="0" xlink:href="/img/pieces/r2.svg" y="50"/>
  <image height="100" width="70" x="72" xlink:href="/img/pieces/y2.svg" y="50"/>
  <image height="100" width="70" x="144" xlink:href="/img/pieces/g2.svg" y="50"/>
  <image height="100" width="70" x="216" xlink:href="/img/pieces/b2.svg" y="50"/>
  <image height="100" width="70" x="288" xlink:href="/img/pieces/p2.svg" y="50"/>
  <image height="100" width="70" x="360" xlink:href="/img/pieces/m2.svg" y="50"/>
  <text dy="20" fill="#000001" x="472" y="0">Situation before clue</text>
  <text dy="50" fill="#000001" x="432" y="30">Alice</text>
  <svg height="100" width="70" x="492" y="40">
    <defs/>
    <rect fill="gray" height="100" width="70" x="0" y="0"/>
    <svg height="20" width="14.0" x="0.0" y="80">
      <defs/>
      <text dominant-baseline="central" fill="white" style="filter: url(#shadow)" text-anchor="middle" x="50%" y="50%">1</text>
    </svg>
    <svg height="20" width="14.0" x="14.0" y="80">
      <defs/>
      <text dominant-baseline="central" fill="white" style="filter: url(#shadow)" text-anchor="middle" x="50%" y="50%">2</text>
    </svg>
    <svg height="20" width="14.0" x="28.0" y="80">
      <defs/>
      <text dominant-baseline="central" fill="white" style="filter: url(#shadow)" text-anchor="middle" x="50%" y="50%">3</text>
    </svg>
    <svg height="20" width="14.0" x="42.0" y="80">
      <defs/>
      <text dominant-baseline="central" fill="white" style="filter: url(#shadow)" text-anchor="middle" x="50%" y="50%">4</text>
    </svg>
    <svg height="20" width="14.0" x="56.0" y="80">
      <defs/>
      <text dominant-baseline="central" fill="white" style="filter: url(#shadow)" text-anchor="middle" x="50%" y="50%">5</text>
    </svg>
    <svg height="100" viewBox="-35 -50 70 100" width="70" x="0" y="0">
      <defs/>
      <image height="12" style="filter: url(#shadow)" transform="translate(-0.0, -20.0)" width="12" x="-6" xlink:href="/img/pieces/pip-r.svg" y="-6"/>
      <image height="12" style="filter: url(#shadow)" transform="translate(-17.32050807568877, -10.000000000000002)" width="12" x="-6" xlink:href="/img/pieces/pip-y.svg" y="-6"/>
      <image height="12" style="filter: url(#shadow)" transform="translate(-17.320508075688775, 9.999999999999996)" width="12" x="-6" xlink:href="/img/pieces/pip-g.svg" y="-6"/>
      <image height="12" style="filter: url(#shadow)" transform="translate(-2.4492935982947065e-15, 20.0)" width="12" x="-6" xlink:href="/img/pieces/pip-b.svg" y="-6"/>
      <image height="12" style="filter: url(#shadow)" transform="translate(17.32050807568877, 10.000000000000009)" width="12" x="-6" xlink:href="/img/pieces/pip-p.svg" y="-6"/>
      <image height="12" style="filter: url(#shadow)" transform="translate(17.32050807568878, -9.999999999999986)" width="12" x="-6" xlink:href="/img/pieces/pip-m.svg" y="-6"/>
    </svg>
  </svg>
  <svg height="100" width="70" x="566" y="40">
    <defs/>
    <rect fill="gray" height="100" width="70" x="0" y="0"/>
    <svg height="20" width="14.0" x="0.0" y="80">
      <defs/>
      <text dominant-baseline="central" fill="white" style="filter: url(#shadow)" text-anchor="middle" x="50%" y="50%">1</text>
    </svg>
    <svg height="20" width="14.0" x="14.0" y="80">
      <defs/>
      <text dominant-baseline="central" fill="white" style="filter: url(#shadow)" text-anchor="middle" x="50%" y="50%">2</text>
    </svg>
    <svg height="20" width="14.0" x="28.0" y="80">
      <defs/>
      <text dominant-baseline="central" fill="white" style="filter: url(#shadow)" text-anchor="middle" x="50%" y="50%">3</text>
    </svg>
    <svg height="20" width="14.0" x="42.0" y="80">
      <defs/>
      <text dominant-baseline="central" fill="white" style="filter: url(#shadow)" text-anchor="middle" x="50%" y="50%">4</text>
    </svg>
    <svg height="20" width="14.0" x="56.0" y="80">
      <defs/>
      <text dominant-baseline="central" fill="white" style="filter: url(#shadow)" text-anchor="middle" x="50%" y="50%">5</text>
    </svg>
    <svg height="100" viewBox="-35 -50 70 100" width="70" x="0" y="0">
      <defs/>
      <image height="12" style="filter: url(#shadow)" transform="translate(-0.0, -20.0)" width="12" x="-6" xlink:href="/img/pieces/pip-r.svg" y="-6"/>
      <image height="12" style="filter: url(#shadow)" transform="translate(-17.32050807568877, -10.000000000000002)" width="12" x="-6" xlink:href="/img/pieces/pip-y.svg" y="-6"/>
      <image height="12" style="filter: url(#shadow)" transform="translate(-17.320508075688775, 9.999999999999996)" width="12" x="-6" xlink:href="/img/pieces/pip-g.svg" y="-6"/>
      <image height="12" style="filter: url(#shadow)" transform="translate(-2.4492935982947065e-15, 20.0)" width="12" x="-6" xlink:href="/img/pieces/pip-b.svg" y="-6"/>
      <image height="12" style="filter: url(#shadow)" transform="translate(17.32050807568877, 10.000000000000009)" width="12" x="-6" xlink:href="/img/pieces/pip-p.svg" y="-6"/>
      <image height="12" style="filter: url(#shadow)" transform="translate(17.32050807568878, -9.999999999999986)" width="12" x="-6" xlink:href="/img/pieces/pip-m.svg" y="-6"/>
    </svg>
  </svg>
  <svg height="100" width="70" x="640" y="40">
    <defs/>
    <rect fill="gray" height="100" width="70" x="0" y="0"/>
    <svg height="20" width="14.0" x="0.0" y="80">
      <defs/>
      <text dominant-baseline="central" fill="white" style="filter: url(#shadow)" text-anchor="middle" x="50%" y="50%">1</text>
    </svg>
    <svg height="20" width="14.0" x="14.0" y="80">
      <defs/>
      <text dominant-baseline="central" fill="white" style="filter: url(#shadow)" text-anchor="middle" x="50%" y="50%">2</text>
    </svg>
    <svg height="20" width="14.0" x="28.0" y="80">
      <defs/>
      <text dominant-baseline="central" fill="white" style="filter: url(#shadow)" text-anchor="middle" x="50%" y="50%">3</text>
    </svg>
    <svg height="20" width="14.0" x="42.0" y="80">
      <defs/>
      <text dominant-baseline="central" fill="white" style="filter: url(#shadow)" text-anchor="middle" x="50%" y="50%">4</text>
    </svg>
    <svg height="20" width="14.0" x="56.0" y="80">
      <defs/>
      <text dominant-baseline="central" fill="white" style="filter: url(#shadow)" text-anchor="middle" x="50%" y="50%">5</text>
    </svg>
    <svg height="100" viewBox="-35 -50 70 100" width="70" x="0" y="0">
      <defs/>
      <image height="12" style="filter: url(#shadow)" transform="translate(-0.0, -20.0)" width="12" x="-6" xlink:href="/img/pieces/pip-r.svg" y="-6"/>
      <image height="12" style="filter: url(#shadow)" transform="translate(-17.32050807568877, -10.000000000000002)" width="12" x="-6" xlink:href="/img/pieces/pip-y.svg" y="-6"/>
      <image height="12" style="filter: url(#shadow)" transform="translate(-17.320508075688775, 9.999999999999996)" width="12" x="-6" xlink:href="/img/pieces/pip-g.svg" y="-6"/>
      <image height="12" style="filter: url(#shadow)" transform="translate(-2.4492935982947065e-15, 20.0)" width="12" x="-6" xlink:href="/img/pieces/pip-b.svg" y="-6"/>
      <image height="12" style="filter: url(#shadow)" transform="translate(17.32050807568877, 10.000000000000009)" width="12" x="-6" xlink:href="/img/pieces/pip-p.svg" y="-6"/>
      <image height="12" style="filter: url(#shadow)" transform="translate(17.32050807568878, -9.999999999999986)" width="12" x="-6" xlink:href="/img/pieces/pip-m.svg" y="-6"/>
    </svg>
  </svg>
  <svg height="100" width="70" x="714" y="40">
    <defs/>
    <rect fill="gray" height="100" width="70" x="0" y="0"/>
    <svg height="20" width="14.0" x="0.0" y="80">
      <defs/>
      <text dominant-baseline="central" fill="white" style="filter: url(#shadow)" text-anchor="middle" x="50%" y="50%">1</text>
    </svg>
    <svg height="20" width="14.0" x="14.0" y="80">
      <defs/>
      <text dominant-baseline="central" fill="white" style="filter: url(#shadow)" text-anchor="middle" x="50%" y="50%">2</text>
    </svg>
    <svg height="20" width="14.0" x="28.0" y="80">
      <defs/>
      <text dominant-baseline="central" fill="white" style="filter: url(#shadow)" text-anchor="middle" x="50%" y="50%">3</text>
    </svg>
    <svg height="20" width="14.0" x="42.0" y="80">
      <defs/>
      <text dominant-baseline="central" fill="white" style="filter: url(#shadow)" text-anchor="middle" x="50%" y="50%">4</text>
    </svg>
    <svg height="20" width="14.0" x="56.0" y="80">
      <defs/>
      <text dominant-baseline="central" fill="white" style="filter: url(#shadow)" text-anchor="middle" x="50%" y="50%">5</text>
    </svg>
    <svg height="100" viewBox="-35 -50 70 100" width="70" x="0" y="0">
      <defs/>
      <image height="12" style="filter: url(#shadow)" transform="translate(-0.0, -20.0)" width="12" x="-6" xlink:href="/img/pieces/pip-r.svg" y="-6"/>
      <image height="12" style="filter: url(#shadow)" transform="translate(-17.32050807568877, -10.000000000000002)" width="12" x="-6" xlink:href="/img/pieces/pip-y.svg" y="-6"/>
      <image height="12" style="filter: url(#shadow)" transform="translate(-17.320508075688775, 9.999999999999996)" width="12" x="-6" xlink:href="/img/pieces/pip-g.svg" y="-6"/>
      <image height="12" style="filter: url(#shadow)" transform="translate(-2.4492935982947065e-15, 20.0)" width="12" x="-6" xlink:href="/img/pieces/pip-b.svg" y="-6"/>
      <image height="12" style="filter: url(#shadow)" transform="translate(17.32050807568877, 10.000000000000009)" width="12" x="-6" xlink:href="/img/pieces/pip-p.svg" y="-6"/>
      <image height="12" style="filter: url(#shadow)" transform="translate(17.32050807568878, -9.999999999999986)" width="12" x="-6" xlink:href="/img/pieces/pip-m.svg" y="-6"/>
    </svg>
  </svg>
  <svg height="100" width="70" x="788" y="40">
    <defs/>
    <rect fill="gray" height="100" width="70" x="0" y="0"/>
    <svg height="20" width="14.0" x="0.0" y="80">
      <defs/>
      <text dominant-baseline="central" fill="white" style="filter: url(#shadow)" text-anchor="middle" x="50%" y="50%">1</text>
    </svg>
    <svg height="20" width="14.0" x="14.0" y="80">
      <defs/>
      <text dominant-baseline="central" fill="white" style="filter: url(#shadow)" text-anchor="middle" x="50%" y="50%">2</text>
    </svg>
    <svg height="20" width="14.0" x="28.0" y="80">
      <defs/>
      <text dominant-baseline="central" fill="white" style="filter: url(#shadow)" text-anchor="middle" x="50%" y="50%">3</text>
    </svg>
    <svg height="20" width="14.0" x="42.0" y="80">
      <defs/>
      <text dominant-baseline="central" fill="white" style="filter: url(#shadow)" text-anchor="middle" x="50%" y="50%">4</text>
    </svg>
    <svg height="20" width="14.0" x="56.0" y="80">
      <defs/>
      <text dominant-baseline="central" fill="white" style="filter: url(#shadow)" text-anchor="middle" x="50%" y="50%">5</text>
    </svg>
    <svg height="100" viewBox="-35 -50 70 100" width="70" x="0" y="0">
      <defs/>
      <image height="12" style="filter: url(#shadow)" transform="translate(-0.0, -20.0)" width="12" x="-6" xlink:href="/img/pieces/pip-r.svg" y="-6"/>
      <image height="12" style="filter: url(#shadow)" transform="translate(-17.32050807568877, -10.000000000000002)" width="12" x="-6" xlink:href="/img/pieces/pip-y.svg" y="-6"/>
      <image height="12" style="filter: url(#shadow)" transform="translate(-17.320508075688775, 9.999999999999996)" width="12" x="-6" xlink:href="/img/pieces/pip-g.svg" y="-6"/>
      <image height="12" style="filter: url(#shadow)" transform="translate(-2.4492935982947065e-15, 20.0)" width="12" x="-6" xlink:href="/img/pieces/pip-b.svg" y="-6"/>
      <image height="12" style="filter: url(#shadow)" transform="translate(17.32050807568877, 10.000000000000009)" width="12" x="-6" xlink:href="/img/pieces/pip-p.svg" y="-6"/>
      <image height="12" style="filter: url(#shadow)" transform="translate(17.32050807568878, -9.999999999999986)" width="12" x="-6" xlink:href="/img/pieces/pip-m.svg" y="-6"/>
    </svg>
  </svg>
  <text dy="50" fill="#000001" x="432" y="155">Bob</text>
  <svg height="100" width="70" x="492" y="165">
    <defs/>
    <rect fill="gray" height="100" width="70" x="0" y="0"/>
    <svg height="20" width="14.0" x="0.0" y="80">
      <defs/>
      <text dominant-baseline="central" fill="white" style="filter: url(#shadow)" text-anchor="middle" x="50%" y="50%">1</text>
    </svg>
    <svg height="20" width="14.0" x="14.0" y="80">
      <defs/>
      <text dominant-baseline="central" fill="white" style="filter: url(#shadow)" text-anchor="middle" x="50%" y="50%">2</text>
    </svg>
    <svg height="20" width="14.0" x="28.0" y="80">
      <defs/>
      <text dominant-baseline="central" fill="white" style="filter: url(#shadow)" text-anchor="middle" x="50%" y="50%">3</text>
    </svg>
    <svg height="20" width="14.0" x="42.0" y="80">
      <defs/>
      <text dominant-baseline="central" fill="white" style="filter: url(#shadow)" text-anchor="middle" x="50%" y="50%">4</text>
    </svg>
    <svg height="20" width="14.0" x="56.0" y="80">
      <defs/>
      <text dominant-baseline="central" fill="white" style="filter: url(#shadow)" text-anchor="middle" x="50%" y="50%">5</text>
    </svg>
    <svg height="100" viewBox="-35 -50 70 100" width="70" x="0" y="0">
      <defs/>
      <image height="12" style="filter: url(#shadow)" transform="translate(-0.0, -20.0)" width="12" x="-6" xlink:href="/img/pieces/pip-r.svg" y="-6"/>
      <image height="12" style="filter: url(#shadow)" transform="translate(-17.32050807568877, -10.000000000000002)" width="12" x="-6" xlink:href="/img/pieces/pip-y.svg" y="-6"/>
      <image height="12" style="filter: url(#shadow)" transform="translate(-17.320508075688775, 9.999999999999996)" width="12" x="-6" xlink:href="/img/pieces/pip-g.svg" y="-6"/>
      <image height="12" style="filter: url(#shadow)" transform="translate(-2.4492935982947065e-15, 20.0)" width="12" x="-6" xlink:href="/img/pieces/pip-b.svg" y="-6"/>
      <image height="12" style="filter: url(#shadow)" transform="translate(17.32050807568877, 10.000000000000009)" width="12" x="-6" xlink:href="/img/pieces/pip-p.svg" y="-6"/>
      <image height="12" style="filter: url(#shadow)" transform="translate(17.32050807568878, -9.999999999999986)" width="12" x="-6" xlink:href="/img/pieces/pip-m.svg" y="-6"/>
    </svg>
  </svg>
  <svg height="100" width="70" x="566" y="165">
    <defs/>
    <rect fill="gray" height="100" width="70" x="0" y="0"/>
    <svg height="20" width="14.0" x="0.0" y="80">
      <defs/>
      <text dominant-baseline="central" fill="white" style="filter: url(#shadow)" text-anchor="middle" x="50%" y="50%">1</text>
    </svg>
    <svg height="20" width="14.0" x="14.0" y="80">
      <defs/>
      <text dominant-baseline="central" fill="white" style="filter: url(#shadow)" text-anchor="middle" x="50%" y="50%">2</text>
    </svg>
    <svg height="20" width="14.0" x="28.0" y="80">
      <defs/>
      <text dominant-baseline="central" fill="white" style="filter: url(#shadow)" text-anchor="middle" x="50%" y="50%">3</text>
    </svg>
    <svg height="20" width="14.0" x="42.0" y="80">
      <defs/>
      <text dominant-baseline="central" fill="white" style="filter: url(#shadow)" text-anchor="middle" x="50%" y="50%">4</text>
    </svg>
    <svg height="20" width="14.0" x="56.0" y="80">
      <defs/>
      <text dominant-baseline="central" fill="white" style="filter: url(#shadow)" text-anchor="middle" x="50%" y="50%">5</text>
    </svg>
    <svg height="100" viewBox="-35 -50 70 100" width="70" x="0" y="0">
      <defs/>
      <image height="12" style="filter: url(#shadow)" transform="translate(-0.0, -20.0)" width="12" x="-6" xlink:href="/img/pieces/pip-r.svg" y="-6"/>
      <image height="12" style="filter: url(#shadow)" transform="translate(-17.32050807568877, -10.000000000000002)" width="12" x="-6" xlink:href="/img/pieces/pip-y.svg" y="-6"/>
      <image height="12" style="filter: url(#shadow)" transform="translate(-17.320508075688775, 9.999999999999996)" width="12" x="-6" xlink:href="/img/pieces/pip-g.svg" y="-6"/>
      <image height="12" style="filter: url(#shadow)" transform="translate(-2.4492935982947065e-15, 20.0)" width="12" x="-6" xlink:href="/img/pieces/pip-b.svg" y="-6"/>
      <image height="12" style="filter: url(#shadow)" transform="translate(17.32050807568877, 10.000000000000009)" width="12" x="-6" xlink:href="/img/pieces/pip-p.svg" y="-6"/>
      <image height="12" style="filter: url(#shadow)" transform="translate(17.32050807568878, -9.999999999999986)" width="12" x="-6" xlink:href="/img/pieces/pip-m.svg" y="-6"/>
    </svg>
  </svg>
  <svg height="40" width="64" x="569" y="155">
    <defs/>
    <rect fill="peru" height="40" stroke="white" width="64" x="0" y="0"/>
    <svg height="20" width="64" x="0" y="0">
      <defs/>
      <text dominant-baseline="central" fill="white" text-anchor="middle" x="50%" y="50%">Chop</text>
    </svg>
    <svg height="20" width="64" x="0" y="20">
      <defs/>
      <text dominant-baseline="central" fill="white" text-anchor="middle" x="50%" y="50%">slot</text>
    </svg>
  </svg>
  <rect fill="orange" height="102" rx="2" ry="2" width="72" x="639" y="154"/>
  <svg height="100" width="70" x="640" y="155">
    <defs/>
    <rect fill="gray" height="100" width="70" x="0" y="0"/>
    <svg height="20" width="14.0" x="0.0" y="80">
      <defs/>
      <text dominant-baseline="central" fill="white" style="filter: url(#shadow)" text-anchor="middle" x="50%" y="50%">1</text>
    </svg>
    <svg height="20" width="14.0" x="14.0" y="80">
      <defs/>
      <text dominant-baseline="central" fill="white" style="filter: url(#shadow)" text-anchor="middle" x="50%" y="50%">2</text>
    </svg>
    <svg height="20" width="14.0" x="28.0" y="80">
      <defs/>
      <text dominant-baseline="central" fill="white" style="filter: url(#shadow)" text-anchor="middle" x="50%" y="50%">3</text>
    </svg>
    <svg height="20" width="14.0" x="42.0" y="80">
      <defs/>
      <text dominant-baseline="central" fill="white" style="filter: url(#shadow)" text-anchor="middle" x="50%" y="50%">4</text>
    </svg>
    <svg height="20" width="14.0" x="56.0" y="80">
      <defs/>
      <text dominant-baseline="central" fill="white" style="filter: url(#shadow)" text-anchor="middle" x="50%" y="50%">5</text>
    </svg>
    <svg height="100" viewBox="-35 -50 70 100" width="70" x="0" y="0">
      <defs/>
      <image height="12" style="filter: url(#shadow)" transform="translate(-0.0, -20.0)" width="12" x="-6" xlink:href="/img/pieces/pip-r.svg" y="-6"/>
      <image height="12" style="filter: url(#shadow)" transform="translate(17.32050807568878, -9.999999999999986)" width="12" x="-6" xlink:href="/img/pieces/pip-m.svg" y="-6"/>
    </svg>
  </svg>
  <rect fill="orange" height="102" rx="2" ry="2" width="72" x="713" y="154"/>
  <svg height="100" width="70" x="714" y="155">
    <defs/>
    <rect fill="gray" height="100" width="70" x="0" y="0"/>
    <svg height="20" width="14.0" x="0.0" y="80">
      <defs/>
      <text dominant-baseline="central" fill="white" style="filter: url(#shadow)" text-anchor="middle" x="50%" y="50%">1</text>
    </svg>
    <svg height="20" width="14.0" x="14.0" y="80">
      <defs/>
      <text dominant-baseline="central" fill="white" style="filter: url(#shadow)" text-anchor="middle" x="50%" y="50%">2</text>
    </svg>
    <svg height="20" width="14.0" x="28.0" y="80">
      <defs/>
      <text dominant-baseline="central" fill="white" style="filter: url(#shadow)" text-anchor="middle" x="50%" y="50%">3</text>
    </svg>
    <svg height="20" width="14.0" x="42.0" y="80">
      <defs/>
      <text dominant-baseline="central" fill="white" style="filter: url(#shadow)" text-anchor="middle" x="50%" y="50%">4</text>
    </svg>
    <svg height="20" width="14.0" x="56.0" y="80">
      <defs/>
      <text dominant-baseline="central" fill="white" style="filter: url(#shadow)" text-anchor="middle" x="50%" y="50%">5</text>
    </svg>
    <svg height="100" viewBox="-35 -50 70 100" width="70" x="0" y="0">
      <defs/>
      <image height="12" style="filter: url(#shadow)" transform="translate(-0.0, -20.0)" width="12" x="-6" xlink:href="/img/pieces/pip-r.svg" y="-6"/>
      <image height="12" style="filter: url(#shadow)" transform="translate(17.32050807568878, -9.999999999999986)" width="12" x="-6" xlink:href="/img/pieces/pip-m.svg" y="-6"/>
    </svg>
  </svg>
  <svg height="100" width="70" x="788" y="165">
    <defs/>
    <rect fill="gray" height="100" width="70" x="0" y="0"/>
    <svg height="20" width="14.0" x="0.0" y="80">
      <defs/>
      <text dominant-baseline="central" fill="white" style="filter: url(#shadow)" text-anchor="middle" x="50%" y="50%">1</text>
    </svg>
    <svg height="20" width="14.0" x="14.0" y="80">
      <defs/>
      <text dominant-baseline="central" fill="white" style="filter: url(#shadow)" text-anchor="middle" x="50%" y="50%">2</text>
    </svg>
    <svg height="20" width="14.0" x="28.0" y="80">
      <defs/>
      <text dominant-baseline="central" fill="white" style="filter: url(#shadow)" text-anchor="middle" x="50%" y="50%">3</text>
    </svg>
    <svg height="20" width="14.0" x="42.0" y="80">
      <defs/>
      <text dominant-baseline="central" fill="white" style="filter: url(#shadow)" text-anchor="middle" x="50%" y="50%">4</text>
    </svg>
    <svg height="20" width="14.0" x="56.0" y="80">
      <defs/>
      <text dominant-baseline="central" fill="white" style="filter: url(#shadow)" text-anchor="middle" x="50%" y="50%">5</text>
    </svg>
    <svg height="100" viewBox="-35 -50 70 100" width="70" x="0" y="0">
      <defs/>
      <image height="12" style="filter: url(#shadow)" transform="translate(-17.32050807568877, -10.000000000000002)" width="12" x="-6" xlink:href="/img/pieces/pip-y.svg" y="-6"/>
      <image height="12" style="filter: url(#shadow)" transform="translate(-17.320508075688775, 9.999999999999996)" width="12" x="-6" xlink:href="/img/pieces/pip-g.svg" y="-6"/>
      <image height="12" style="filter: url(#shadow)" transform="translate(-2.4492935982947065e-15, 20.0)" width="12" x="-6" xlink:href="/img/pieces/pip-b.svg" y="-6"/>
      <image height="12" style="filter: url(#shadow)" transform="translate(17.32050807568877, 10.000000000000009)" width="12" x="-6" xlink:href="/img/pieces/pip-p.svg" y="-6"/>
    </svg>
  </svg>
  <svg height="20" width="64" x="791" y="260">
    <defs/>
    <rect fill="black" height="20" stroke="white" width="64" x="0" y="0"/>
    <svg height="20" width="64" x="0" y="0">
      <defs/>
      <text dominant-baseline="central" fill="white" text-anchor="middle" x="50%" y="50%">Save</text>
    </svg>
  </svg>
  <text dy="30" fill="white" stroke="white" style="filter: url(#shadow)" x="823" y="155">(CM)</text>
  <text dy="20" fill="#000001" x="472" y="295">Situation after clue</text>
  <text dy="50" fill="#000001" x="432" y="325">Alice</text>
  <text dy="70" fill="#000001" x="432" y="325">(clue</text>
  <text dy="90" fill="#000001" x="432" y="325">giver)</text>
  <svg height="100" width="70" x="492" y="335">
    <defs/>
    <rect fill="gray" height="100" width="70" x="0" y="0"/>
    <svg height="20" width="14.0" x="0.0" y="80">
      <defs/>
      <text dominant-baseline="central" fill="white" style="filter: url(#shadow)" text-anchor="middle" x="50%" y="50%">1</text>
    </svg>
    <svg height="20" width="14.0" x="14.0" y="80">
      <defs/>
      <text dominant-baseline="central" fill="white" style="filter: url(#shadow)" text-anchor="middle" x="50%" y="50%">2</text>
    </svg>
    <svg height="20" width="14.0" x="28.0" y="80">
      <defs/>
      <text dominant-baseline="central" fill="white" style="filter: url(#shadow)" text-anchor="middle" x="50%" y="50%">3</text>
    </svg>
    <svg height="20" width="14.0" x="42.0" y="80">
      <defs/>
      <text dominant-baseline="central" fill="white" style="filter: url(#shadow)" text-anchor="middle" x="50%" y="50%">4</text>
    </svg>
    <svg height="20" width="14.0" x="56.0" y="80">
      <defs/>
      <text dominant-baseline="central" fill="white" style="filter: url(#shadow)" text-anchor="middle" x="50%" y="50%">5</text>
    </svg>
    <svg height="100" viewBox="-35 -50 70 100" width="70" x="0" y="0">
      <defs/>
      <image height="12" style="filter: url(#shadow)" transform="translate(-0.0, -20.0)" width="12" x="-6" xlink:href="/img/pieces/pip-r.svg" y="-6"/>
      <image height="12" style="filter: url(#shadow)" transform="translate(-17.32050807568877, -10.000000000000002)" width="12" x="-6" xlink:href="/img/pieces/pip-y.svg" y="-6"/>
      <image height="12" style="filter: url(#shadow)" transform="translate(-17.320508075688775, 9.999999999999996)" width="12" x="-6" xlink:href="/img/pieces/pip-g.svg" y="-6"/>
      <image height="12" style="filter: url(#shadow)" transform="translate(-2.4492935982947065e-15, 20.0)" width="12" x="-6" xlink:href="/img/pieces/pip-b.svg" y="-6"/>
      <image height="12" style="filter: url(#shadow)" transform="translate(17.32050807568877, 10.000000000000009)" width="12" x="-6" xlink:href="/img/pieces/pip-p.svg" y="-6"/>
      <image height="12" style="filter: url(#shadow)" transform="translate(17.32050807568878, -9.999999999999986)" width="12" x="-6" xlink:href="/img/pieces/pip-m.svg" y="-6"/>
    </svg>
  </svg>
  <svg height="100" width="70" x="566" y="335">
    <defs/>
    <rect fill="gray" height="100" width="70" x="0" y="0"/>
    <svg height="20" width="14.0" x="0.0" y="80">
      <defs/>
      <text dominant-baseline="central" fill="white" style="filter: url(#shadow)" text-anchor="middle" x="50%" y="50%">1</text>
    </svg>
    <svg height="20" width="14.0" x="14.0" y="80">
      <defs/>
      <text dominant-baseline="central" fill="white" style="filter: url(#shadow)" text-anchor="middle" x="50%" y="50%">2</text>
    </svg>
    <svg height="20" width="14.0" x="28.0" y="80">
      <defs/>
      <text dominant-baseline="central" fill="white" style="filter: url(#shadow)" text-anchor="middle" x="50%" y="50%">3</text>
    </svg>
    <svg height="20" width="14.0" x="42.0" y="80">
      <defs/>
      <text dominant-baseline="central" fill="white" style="filter: url(#shadow)" text-anchor="middle" x="50%" y="50%">4</text>
    </svg>
    <svg height="20" width="14.0" x="56.0" y="80">
      <defs/>
      <text dominant-baseline="central" fill="white" style="filter: url(#shadow)" text-anchor="middle" x="50%" y="50%">5</text>
    </svg>
    <svg height="100" viewBox="-35 -50 70 100" width="70" x="0" y="0">
      <defs/>
      <image height="12" style="filter: url(#shadow)" transform="translate(-0.0, -20.0)" width="12" x="-6" xlink:href="/img/pieces/pip-r.svg" y="-6"/>
      <image height="12" style="filter: url(#shadow)" transform="translate(-17.32050807568877, -10.000000000000002)" width="12" x="-6" xlink:href="/img/pieces/pip-y.svg" y="-6"/>
      <image height="12" style="filter: url(#shadow)" transform="translate(-17.320508075688775, 9.999999999999996)" width="12" x="-6" xlink:href="/img/pieces/pip-g.svg" y="-6"/>
      <image height="12" style="filter: url(#shadow)" transform="translate(-2.4492935982947065e-15, 20.0)" width="12" x="-6" xlink:href="/img/pieces/pip-b.svg" y="-6"/>
      <image height="12" style="filter: url(#shadow)" transform="translate(17.32050807568877, 10.000000000000009)" width="12" x="-6" xlink:href="/img/pieces/pip-p.svg" y="-6"/>
      <image height="12" style="filter: url(#shadow)" transform="translate(17.32050807568878, -9.999999999999986)" width="12" x="-6" xlink:href="/img/pieces/pip-m.svg" y="-6"/>
    </svg>
  </svg>
  <svg height="100" width="70" x="640" y="335">
    <defs/>
    <rect fill="gray" height="100" width="70" x="0" y="0"/>
    <svg height="20" width="14.0" x="0.0" y="80">
      <defs/>
      <text dominant-baseline="central" fill="white" style="filter: url(#shadow)" text-anchor="middle" x="50%" y="50%">1</text>
    </svg>
    <svg height="20" width="14.0" x="14.0" y="80">
      <defs/>
      <text dominant-baseline="central" fill="white" style="filter: url(#shadow)" text-anchor="middle" x="50%" y="50%">2</text>
    </svg>
    <svg height="20" width="14.0" x="28.0" y="80">
      <defs/>
      <text dominant-baseline="central" fill="white" style="filter: url(#shadow)" text-anchor="middle" x="50%" y="50%">3</text>
    </svg>
    <svg height="20" width="14.0" x="42.0" y="80">
      <defs/>
      <text dominant-baseline="central" fill="white" style="filter: url(#shadow)" text-anchor="middle" x="50%" y="50%">4</text>
    </svg>
    <svg height="20" width="14.0" x="56.0" y="80">
      <defs/>
      <text dominant-baseline="central" fill="white" style="filter: url(#shadow)" text-anchor="middle" x="50%" y="50%">5</text>
    </svg>
    <svg height="100" viewBox="-35 -50 70 100" width="70" x="0" y="0">
      <defs/>
      <image height="12" style="filter: url(#shadow)" transform="translate(-0.0, -20.0)" width="12" x="-6" xlink:href="/img/pieces/pip-r.svg" y="-6"/>
      <image height="12" style="filter: url(#shadow)" transform="translate(-17.32050807568877, -10.000000000000002)" width="12" x="-6" xlink:href="/img/pieces/pip-y.svg" y="-6"/>
      <image height="12" style="filter: url(#shadow)" transform="translate(-17.320508075688775, 9.999999999999996)" width="12" x="-6" xlink:href="/img/pieces/pip-g.svg" y="-6"/>
      <image height="12" style="filter: url(#shadow)" transform="translate(-2.4492935982947065e-15, 20.0)" width="12" x="-6" xlink:href="/img/pieces/pip-b.svg" y="-6"/>
      <image height="12" style="filter: url(#shadow)" transform="translate(17.32050807568877, 10.000000000000009)" width="12" x="-6" xlink:href="/img/pieces/pip-p.svg" y="-6"/>
      <image height="12" style="filter: url(#shadow)" transform="translate(17.32050807568878, -9.999999999999986)" width="12" x="-6" xlink:href="/img/pieces/pip-m.svg" y="-6"/>
    </svg>
  </svg>
  <svg height="100" width="70" x="714" y="335">
    <defs/>
    <rect fill="gray" height="100" width="70" x="0" y="0"/>
    <svg height="20" width="14.0" x="0.0" y="80">
      <defs/>
      <text dominant-baseline="central" fill="white" style="filter: url(#shadow)" text-anchor="middle" x="50%" y="50%">1</text>
    </svg>
    <svg height="20" width="14.0" x="14.0" y="80">
      <defs/>
      <text dominant-baseline="central" fill="white" style="filter: url(#shadow)" text-anchor="middle" x="50%" y="50%">2</text>
    </svg>
    <svg height="20" width="14.0" x="28.0" y="80">
      <defs/>
      <text dominant-baseline="central" fill="white" style="filter: url(#shadow)" text-anchor="middle" x="50%" y="50%">3</text>
    </svg>
    <svg height="20" width="14.0" x="42.0" y="80">
      <defs/>
      <text dominant-baseline="central" fill="white" style="filter: url(#shadow)" text-anchor="middle" x="50%" y="50%">4</text>
    </svg>
    <svg height="20" width="14.0" x="56.0" y="80">
      <defs/>
      <text dominant-baseline="central" fill="white" style="filter: url(#shadow)" text-anchor="middle" x="50%" y="50%">5</text>
    </svg>
    <svg height="100" viewBox="-35 -50 70 100" width="70" x="0" y="0">
      <defs/>
      <image height="12" style="filter: url(#shadow)" transform="translate(-0.0, -20.0)" width="12" x="-6" xlink:href="/img/pieces/pip-r.svg" y="-6"/>
      <image height="12" style="filter: url(#shadow)" transform="translate(-17.32050807568877, -10.000000000000002)" width="12" x="-6" xlink:href="/img/pieces/pip-y.svg" y="-6"/>
      <image height="12" style="filter: url(#shadow)" transform="translate(-17.320508075688775, 9.999999999999996)" width="12" x="-6" xlink:href="/img/pieces/pip-g.svg" y="-6"/>
      <image height="12" style="filter: url(#shadow)" transform="translate(-2.4492935982947065e-15, 20.0)" width="12" x="-6" xlink:href="/img/pieces/pip-b.svg" y="-6"/>
      <image height="12" style="filter: url(#shadow)" transform="translate(17.32050807568877, 10.000000000000009)" width="12" x="-6" xlink:href="/img/pieces/pip-p.svg" y="-6"/>
      <image height="12" style="filter: url(#shadow)" transform="translate(17.32050807568878, -9.999999999999986)" width="12" x="-6" xlink:href="/img/pieces/pip-m.svg" y="-6"/>
    </svg>
  </svg>
  <svg height="100" width="70" x="788" y="335">
    <defs/>
    <rect fill="gray" height="100" width="70" x="0" y="0"/>
    <svg height="20" width="14.0" x="0.0" y="80">
      <defs/>
      <text dominant-baseline="central" fill="white" style="filter: url(#shadow)" text-anchor="middle" x="50%" y="50%">1</text>
    </svg>
    <svg height="20" width="14.0" x="14.0" y="80">
      <defs/>
      <text dominant-baseline="central" fill="white" style="filter: url(#shadow)" text-anchor="middle" x="50%" y="50%">2</text>
    </svg>
    <svg height="20" width="14.0" x="28.0" y="80">
      <defs/>
      <text dominant-baseline="central" fill="white" style="filter: url(#shadow)" text-anchor="middle" x="50%" y="50%">3</text>
    </svg>
    <svg height="20" width="14.0" x="42.0" y="80">
      <defs/>
      <text dominant-baseline="central" fill="white" style="filter: url(#shadow)" text-anchor="middle" x="50%" y="50%">4</text>
    </svg>
    <svg height="20" width="14.0" x="56.0" y="80">
      <defs/>
      <text dominant-baseline="central" fill="white" style="filter: url(#shadow)" text-anchor="middle" x="50%" y="50%">5</text>
    </svg>
    <svg height="100" viewBox="-35 -50 70 100" width="70" x="0" y="0">
      <defs/>
      <image height="12" style="filter: url(#shadow)" transform="translate(-0.0, -20.0)" width="12" x="-6" xlink:href="/img/pieces/pip-r.svg" y="-6"/>
      <image height="12" style="filter: url(#shadow)" transform="translate(-17.32050807568877, -10.000000000000002)" width="12" x="-6" xlink:href="/img/pieces/pip-y.svg" y="-6"/>
      <image height="12" style="filter: url(#shadow)" transform="translate(-17.320508075688775, 9.999999999999996)" width="12" x="-6" xlink:href="/img/pieces/pip-g.svg" y="-6"/>
      <image height="12" style="filter: url(#shadow)" transform="translate(-2.4492935982947065e-15, 20.0)" width="12" x="-6" xlink:href="/img/pieces/pip-b.svg" y="-6"/>
      <image height="12" style="filter: url(#shadow)" transform="translate(17.32050807568877, 10.000000000000009)" width="12" x="-6" xlink:href="/img/pieces/pip-p.svg" y="-6"/>
      <image height="12" style="filter: url(#shadow)" transform="translate(17.32050807568878, -9.999999999999986)" width="12" x="-6" xlink:href="/img/pieces/pip-m.svg" y="-6"/>
    </svg>
  </svg>
  <text dy="50" fill="#000001" x="432" y="450">Bob</text>
  <svg height="100" width="70" x="492" y="460">
    <defs/>
    <rect fill="gray" height="100" width="70" x="0" y="0"/>
    <svg height="20" width="14.0" x="0.0" y="80">
      <defs/>
      <text dominant-baseline="central" fill="white" style="filter: url(#shadow)" text-anchor="middle" x="50%" y="50%">1</text>
    </svg>
    <svg height="20" width="14.0" x="14.0" y="80">
      <defs/>
      <text dominant-baseline="central" fill="white" style="filter: url(#shadow)" text-anchor="middle" x="50%" y="50%">2</text>
    </svg>
    <svg height="20" width="14.0" x="28.0" y="80">
      <defs/>
      <text dominant-baseline="central" fill="white" style="filter: url(#shadow)" text-anchor="middle" x="50%" y="50%">3</text>
    </svg>
    <svg height="20" width="14.0" x="42.0" y="80">
      <defs/>
      <text dominant-baseline="central" fill="white" style="filter: url(#shadow)" text-anchor="middle" x="50%" y="50%">4</text>
    </svg>
    <svg height="20" width="14.0" x="56.0" y="80">
      <defs/>
      <text dominant-baseline="central" fill="white" style="filter: url(#shadow)" text-anchor="middle" x="50%" y="50%">5</text>
    </svg>
    <svg height="100" viewBox="-35 -50 70 100" width="70" x="0" y="0">
      <defs/>
      <image height="12" style="filter: url(#shadow)" transform="translate(-0.0, -20.0)" width="12" x="-6" xlink:href="/img/pieces/pip-r.svg" y="-6"/>
      <image height="12" style="filter: url(#shadow)" transform="translate(-17.32050807568877, -10.000000000000002)" width="12" x="-6" xlink:href="/img/pieces/pip-y.svg" y="-6"/>
      <image height="12" style="filter: url(#shadow)" transform="translate(-17.320508075688775, 9.999999999999996)" width="12" x="-6" xlink:href="/img/pieces/pip-g.svg" y="-6"/>
      <image height="12" style="filter: url(#shadow)" transform="translate(17.32050807568877, 10.000000000000009)" width="12" x="-6" xlink:href="/img/pieces/pip-p.svg" y="-6"/>
    </svg>
  </svg>
  <svg height="100" width="70" x="566" y="460">
    <defs/>
    <rect fill="gray" height="100" width="70" x="0" y="0"/>
    <svg height="20" width="14.0" x="0.0" y="80">
      <defs/>
      <text dominant-baseline="central" fill="white" style="filter: url(#shadow)" text-anchor="middle" x="50%" y="50%">1</text>
    </svg>
    <svg height="20" width="14.0" x="14.0" y="80">
      <defs/>
      <text dominant-baseline="central" fill="white" style="filter: url(#shadow)" text-anchor="middle" x="50%" y="50%">2</text>
    </svg>
    <svg height="20" width="14.0" x="28.0" y="80">
      <defs/>
      <text dominant-baseline="central" fill="white" style="filter: url(#shadow)" text-anchor="middle" x="50%" y="50%">3</text>
    </svg>
    <svg height="20" width="14.0" x="42.0" y="80">
      <defs/>
      <text dominant-baseline="central" fill="white" style="filter: url(#shadow)" text-anchor="middle" x="50%" y="50%">4</text>
    </svg>
    <svg height="20" width="14.0" x="56.0" y="80">
      <defs/>
      <text dominant-baseline="central" fill="white" style="filter: url(#shadow)" text-anchor="middle" x="50%" y="50%">5</text>
    </svg>
    <svg height="100" viewBox="-35 -50 70 100" width="70" x="0" y="0">
      <defs/>
      <image height="12" style="filter: url(#shadow)" transform="translate(-0.0, -20.0)" width="12" x="-6" xlink:href="/img/pieces/pip-r.svg" y="-6"/>
      <image height="12" style="filter: url(#shadow)" transform="translate(-17.32050807568877, -10.000000000000002)" width="12" x="-6" xlink:href="/img/pieces/pip-y.svg" y="-6"/>
      <image height="12" style="filter: url(#shadow)" transform="translate(-17.320508075688775, 9.999999999999996)" width="12" x="-6" xlink:href="/img/pieces/pip-g.svg" y="-6"/>
      <image height="12" style="filter: url(#shadow)" transform="translate(17.32050807568877, 10.000000000000009)" width="12" x="-6" xlink:href="/img/pieces/pip-p.svg" y="-6"/>
    </svg>
  </svg>
  <svg height="40" width="64" x="569" y="450">
    <defs/>
    <rect fill="peru" height="40" stroke="white" width="64" x="0" y="0"/>
    <svg height="20" width="64" x="0" y="0">
      <defs/>
      <text dominant-baseline="central" fill="white" text-anchor="middle" x="50%" y="50%">Chop</text>
    </svg>
    <svg height="20" width="64" x="0" y="20">
      <defs/>
      <text dominant-baseline="central" fill="white" text-anchor="middle" x="50%" y="50%">slot</text>
    </svg>
  </svg>
  <rect fill="orange" height="102" rx="2" ry="2" width="72" x="639" y="449"/>
  <svg height="100" width="70" x="640" y="450">
    <defs/>
    <image height="100" width="70" x="0" xlink:href="/img/pieces/m.svg" y="0"/>
    <svg height="20" width="14.0" x="0.0" y="80">
      <defs/>
      <text dominant-baseline="central" fill="white" style="filter: url(#shadow)" text-anchor="middle" x="50%" y="50%">1</text>
    </svg>
    <svg height="20" width="14.0" x="14.0" y="80">
      <defs/>
      <text dominant-baseline="central" fill="white" style="filter: url(#shadow)" text-anchor="middle" x="50%" y="50%">2</text>
    </svg>
    <svg height="20" width="14.0" x="28.0" y="80">
      <defs/>
      <text dominant-baseline="central" fill="white" style="filter: url(#shadow)" text-anchor="middle" x="50%" y="50%">3</text>
    </svg>
    <svg height="20" width="14.0" x="42.0" y="80">
      <defs/>
      <text dominant-baseline="central" fill="white" style="filter: url(#shadow)" text-anchor="middle" x="50%" y="50%">4</text>
    </svg>
    <svg height="20" width="14.0" x="56.0" y="80">
      <defs/>
      <text dominant-baseline="central" fill="white" style="filter: url(#shadow)" text-anchor="middle" x="50%" y="50%">5</text>
    </svg>
    <svg height="100" viewBox="-35 -50 70 100" width="70" x="0" y="0">
      <defs/>
    </svg>
  </svg>
  <image height="70" width="50" x="650" xlink:href="/img/pieces/clue-b.png" y="410"/>
  <rect fill="orange" height="102" rx="2" ry="2" width="72" x="713" y="449"/>
  <svg height="100" width="70" x="714" y="450">
    <defs/>
    <image height="100" width="70" x="0" xlink:href="/img/pieces/m.svg" y="0"/>
    <svg height="20" width="14.0" x="0.0" y="80">
      <defs/>
      <text dominant-baseline="central" fill="white" style="filter: url(#shadow)" text-anchor="middle" x="50%" y="50%">1</text>
    </svg>
    <svg height="20" width="14.0" x="14.0" y="80">
      <defs/>
      <text dominant-baseline="central" fill="white" style="filter: url(#shadow)" text-anchor="middle" x="50%" y="50%">2</text>
    </svg>
    <svg height="20" width="14.0" x="28.0" y="80">
      <defs/>
      <text dominant-baseline="central" fill="white" style="filter: url(#shadow)" text-anchor="middle" x="50%" y="50%">3</text>
    </svg>
    <svg height="20" width="14.0" x="42.0" y="80">
      <defs/>
      <text dominant-baseline="central" fill="white" style="filter: url(#shadow)" text-anchor="middle" x="50%" y="50%">4</text>
    </svg>
    <svg height="20" width="14.0" x="56.0" y="80">
      <defs/>
      <text dominant-baseline="central" fill="white" style="filter: url(#shadow)" text-anchor="middle" x="50%" y="50%">5</text>
    </svg>
    <svg height="100" viewBox="-35 -50 70 100" width="70" x="0" y="0">
      <defs/>
    </svg>
  </svg>
  <image height="70" width="50" x="724" xlink:href="/img/pieces/clue-b.png" y="410"/>
  <rect fill="orange" height="102" rx="2" ry="2" width="72" x="787" y="449"/>
  <svg height="100" width="70" x="788" y="450">
    <defs/>
    <image height="100" width="70" x="0" xlink:href="/img/pieces/b.svg" y="0"/>
    <svg height="20" width="14.0" x="0.0" y="80">
      <defs/>
      <text dominant-baseline="central" fill="white" style="filter: url(#shadow)" text-anchor="middle" x="50%" y="50%">1</text>
    </svg>
    <svg height="20" width="14.0" x="14.0" y="80">
      <defs/>
      <text dominant-baseline="central" fill="white" style="filter: url(#shadow)" text-anchor="middle" x="50%" y="50%">2</text>
    </svg>
    <svg height="20" width="14.0" x="28.0" y="80">
      <defs/>
      <text dominant-baseline="central" fill="white" style="filter: url(#shadow)" text-anchor="middle" x="50%" y="50%">3</text>
    </svg>
    <svg height="20" width="14.0" x="42.0" y="80">
      <defs/>
      <text dominant-baseline="central" fill="white" style="filter: url(#shadow)" text-anchor="middle" x="50%" y="50%">4</text>
    </svg>
    <svg height="20" width="14.0" x="56.0" y="80">
      <defs/>
      <text dominant-baseline="central" fill="white" style="filter: url(#shadow)" text-anchor="middle" x="50%" y="50%">5</text>
    </svg>
    <svg height="100" viewBox="-35 -50 70 100" width="70" x="0" y="0">
      <defs/>
    </svg>
  </svg>
  <image height="70" width="50" x="798" xlink:href="/img/pieces/clue-b.png" y="410"/>
  <svg height="20" width="64" x="791" y="555">
    <defs/>
    <rect fill="gold" height="20" stroke="black" width="64" x="0" y="0"/>
    <svg height="20" width="64" x="0" y="0">
      <defs/>
      <text dominant-baseline="central" fill="black" text-anchor="middle" x="50%" y="50%">Focus</text>
    </svg>
  </svg>
</svg>

